{
.appVersion = "3112";
.formatVersion = 3;
DisplayStrings = (
"coucou les concerné..es vous êtes merveilleux..ses
i..els sont belle..aux et guerrièr..es, fièr..es, 
meilleur..es ami..es, 
poête..sses, prêt..es"
);
classes = (
{
automatic = 1;
code = "A B C D E F G H I J K L M N O P Q R S T U V W X Y Z AE Lslash Oslash OE Eth Thorn Aacute Acircumflex Adieresis Agrave Aring Atilde Ccedilla Eacute Ecircumflex Edieresis Egrave Iacute Icircumflex Idieresis Igrave Ntilde Oacute Ocircumflex Odieresis Ograve Otilde Scaron Uacute Ucircumflex Udieresis Ugrave Yacute Ydieresis Zcaron Abreve Amacron Aogonek Cacute Ccaron Ccircumflex Cdotaccent Dcaron Dcroat Ebreve Ecaron Edotaccent Emacron Eng Eogonek Gbreve Gcircumflex uni0122 Gdotaccent Hbar Hcircumflex Ibreve Idotaccent IJ Imacron Iogonek Itilde Jcircumflex uni0136 Lacute Lcaron uni013B Ldot Nacute Ncaron uni0145 Obreve Ohungarumlaut Omacron Racute Rcaron uni0156 Sacute Scedilla Scircumflex uni0218 Tbar Tcaron uni0162 uni021A Ubreve Uhungarumlaut Umacron Uogonek Uring Utilde Wacute Wdieresis Wgrave Wcircumflex Ycircumflex Ygrave Zacute Zdotaccent I_e";
name = Uppercase;
},
{
automatic = 1;

glyphs = (
{
glyphname = .notdef;
lastChange = "2023-10-04 10:02:15 +0000";
layers = (
{
layerId = m01;
shapes = (
{
closed = 1;
nodes = (
(60,-100,l),
(454,-100,l),
(454,750,l),
(60,750,l)
);
}
);
width = 514;
}
);
note = ".notdef";
},
{
glyphname = exclam;
kernLeft = exclam;
lastChange = "2023-10-04 10:02:26 +0000";
layers = (
{
layerId = m01;
shapes = (
{
closed = 1;
nodes = (
(119,187,l),
(121,187,l),
(173,641,ls),
(178.333,682.333,o),
(152,712,o),
(120,712,cs),
(88,712,o),
(61.667,682.333,o),
(67,641,cs)
);
},
{
closed = 1;
nodes = (
(176,0,l),
(176,113,l),
(64,113,l),
(64,0,l)
);
}
);
width = 240;
}
);
note = exclam;
unicode = 33;
},
{
glyphname = quotedbl;
kernLeft = quotedbl;
kernRight = quotedbl;
lastChange = "2023-10-03 16:37:10 +0000";
layers = (
{
layerId = m01;
shapes = (
{
closed = 1;
nodes = (
(120,452,l),
(171,621,ls),
(173.667,629,o),
(175,638,o),
(175,648,cs),
(175,684,o),
(153,711,o),
(121,711,cs),
(87.667,711,o),
(65,684,o),
(65,648,cs),
(65,638,o),
(66.333,629,o),
(69,621,cs)
);
},
{
closed = 1;
nodes = (
(280,452,l),
(331,621,ls),
(333.667,629,o),
(335,638,o),
(335,648,cs),
(335,684,o),
(313,711,o),
(281,711,cs),
(247.667,711,o),
(225,684,o),
(225,648,cs),
(225,638,o),
(226.333,629,o),
(229,621,cs)
);
}
);
width = 400;
}
);
note = quotedbl;
unicode = 34;
},
{
glyphname = numbersign;
lastChange = "2023-10-04 10:02:34 +0000";
layers = (
{
layerId = m01;
shapes = (
{
closed = 1;
nodes = (
(22,217,l),
(212,217,l),
(150,0,l),
(185,0,l),
(247,217,l),
(421,217,l),
(359,0,l),
(394,0,l),
(456,217,l),
(646,217,l),
(655,248,l),
(465,248,l),
(523,453,l),
(713,453,l),
(722,484,l),
(532,484,l),
(594,701,l),
(559,701,l),
(497,484,l),
(323,484,l),
(385,701,l),
(350,701,l),
(288,484,l),
(98,484,l),
(89,453,l),
(279,453,l),
(221,248,l),
(31,248,l)
);
},
{
closed = 1;
nodes = (
(314,453,l),
(488,453,l),
(430,248,l),
(256,248,l)
);
}
);
width = 744;
}
);
note = numbersign;
unicode = 35;
},
{
glyphname = dollar;
lastChange = "2023-10-03 16:37:10 +0000";
layers = (
{
layerId = m01;
shapes = (
{
closed = 1;
nodes = (
(225,-68,l),
(261,-68,l),
(261,9,l),
(381,19.667,o),
(459,97.333,o),
(459,208,cs),
(459,280,o),
(421,334,o),
(345,370,cs),
(199,438,ls),
(142.333,464,o),
(114,498.667,o),
(114,542,cs),
(114,603.333,o),
(159,646.333,o),
(227,649,c),
(227,445,l),
(263,430,l),
(263,647,l),
(313.667,641.667,o),
(342.667,621.333,o),
(344,588,c),
(322,588,l),
(321.333,584.667,o),
(321,579.667,o),
(321,573,cs),
(321,534.333,o),
(344.333,509,o),
(379,509,cs),
(408.333,509,o),
(431,534.333,o),
(431,565,cs),
(431,625.067,o),
(362.55,682.528,o),
(263,691,c),
(263,750,l),
(227,750,l),
(227,692,l),
(111,686.667,o),
(32,615,o),
(32,511,cs),
(32,441,o),
(70,388.333,o),
(146,353,cs),
(292,285,ls),
(346,259.667,o),
(373,222,o),
(373,172,cs),
(373,106.667,o),
(329,60,o),
(261,52,c),
(261,279,l),
(225,296,l),
(225,51,l),
(159.667,53.667,o),
(122.667,77.333,o),
(120,116,c),
(142,116,l),
(147.333,164,o),
(125,196,o),
(85,196,cs),
(55.667,196,o),
(32,170.667,o),
(32,140,cs),
(32,72.459,o),
(113.366,12.213,o),
(225,8,c)
);
}
);
width = 495;
}
);
note = dollar;
unicode = 36;
},
{
glyphname = percent;
lastChange = "2023-10-04 10:02:41 +0000";
layers = (
{
layerId = m01;
shapes = (
{
closed = 1;
nodes = (
(104.619,706,o),
(37,630.308,o),
(37,511,cs),
(37,398.274,o),
(101.557,319,o),
(187,319,cs),
(268.721,319,o),
(332,402.316,o),
(332,515,cs),
(332,633.597,o),
(265.299,706,o),
(183,706,cs)
);
},
{
closed = 1;
nodes = (
(114,573,o),
(120.167,611.667,o),
(132.5,639,cs),
(144.833,666.333,o),
(160.333,680,o),
(179,680,cs),
(202.333,680,o),
(220.833,664.333,o),
(234.5,633,cs),
(248.167,601.667,o),
(255,558.333,o),
(255,503,cs),
(255,453,o),
(248.833,414.333,o),
(236.5,387,cs),
(224.167,359.667,o),
(208.333,346,o),
(189,346,cs),
(165.667,346,o),
(147.333,361.667,o),
(134,393,cs),
(120.667,424.333,o),
(114,467.667,o),
(114,523,cs)
);
},
{
closed = 1;
nodes = (
(189,0,l),
(639,700,l),
(593,700,l),
(143,0,l)
);
},
{
closed = 1;
nodes = (
(448,73.274,o),
(512.557,-6,o),
(598,-6,cs),
(679.721,-6,o),
(743,77.316,o),
(743,190,cs),
(743,308.597,o),
(676.299,381,o),
(594,381,cs),
(515.619,381,o),
(448,305.308,o),
(448,186,cs)
);
},
{
closed = 1;
nodes = (
(525,248,o),
(531.167,286.667,o),
(543.5,314,cs),
(555.833,341.333,o),
(571.333,355,o),
(590,355,cs),
(613.333,355,o),
(631.833,339.333,o),
(645.5,308,cs),
(659.167,276.667,o),
(666,233.333,o),
(666,178,cs),
(666,128,o),
(659.833,89.333,o),
(647.5,62,cs),
(635.167,34.667,o),
(619.333,21,o),
(600,21,cs),
(576.667,21,o),
(558.333,36.667,o),
(545,68,cs),
(531.667,99.333,o),
(525,142.667,o),
(525,198,cs)
);
}
);
width = 780;
}
);
note = percent;
unicode = 37;
},
{
glyphname = ampersand;
kernLeft = ampersand;
kernRight = ampersand;
lastChange = "2023-10-03 16:37:10 +0000";
layers = (
{
layerId = m01;
shapes = (
{
closed = 1;
nodes = (
(470,78,l),
(448,55,l),
(497.333,9.667,o),
(535.333,-5,o),
(586,-5,cs),
(640.667,-5,o),
(696.333,23.667,o),
(731,65,c),
(716.333,58.333,o),
(685.667,55,o),
(663,55,cs),
(605.667,55,o),
(561.667,80.333,o),
(499,147,c),
(519.667,175.667,o),
(538.667,207,o),
(556,241,cs),
(601,326,ls),
(621,363.333,o),
(648,383.667,o),
(688,393,c),
(688,418,l),
(493,418,l),
(493,392,l),
(516,389,ls),
(541.333,386.333,o),
(554,373.333,o),
(554,350,cs),
(554,337.333,o),
(550,322,o),
(542,304,cs),
(523,263,ls),
(506.333,226.333,o),
(490.667,196.333,o),
(476,173,c),
(419.333,237,o),
(360.667,312,o),
(300,398,c),
(273,383,l),
(261,400,l),
(341,444,ls),
(429,492,o),
(462,532,o),
(462,588,cs),
(462,651.907,o),
(403.389,708,o),
(320,708,cs),
(240,708,o),
(182.167,674.667,o),
(153.5,624,cs),
(139.167,598.667,o),
(132,571.667,o),
(132,543,cs),
(132,497.667,o),
(148.333,455,o),
(191,387,c),
(96.333,335,o),
(49.667,293.5,o),
(31,251.5,cs),
(21.667,230.5,o),
(17,206,o),
(17,178,cs),
(17,72.809,o),
(103.112,-9,o),
(235,-9,cs),
(323,-9,o),
(391,24,o),
(455,92,c)
);
},
{
closed = 1;
nodes = (
(115,274.667,o),
(144.333,330.333,o),
(203,369,c),
(255,290.333,o),
(355.333,150.667,o),
(410,92,c),
(371.333,57.333,o),
(332,37,o),
(268,37,cs),
(176,37,o),
(115,102,o),
(115,202,cs)
);
},
{
closed = 1;
nodes = (
(218,631.667,o),
(252.667,675,o),
(302,675,cs),
(347.333,675,o),
(380,635.333,o),
(380,582,cs),
(380,518,o),
(343.333,466,o),
(274,434,c),
(232.667,494,o),
(219.333,530.333,o),
(218,573,cs)
);
}
);
width = 725;
}
);
note = ampersand;
unicode = 38;
},
{
glyphname = quoteright;
kernLeft = quotedbl;
kernRight = quotedbl;
lastChange = "2023-10-03 16:37:10 +0000";
layers = (
{
layerId = m01;
shapes = (
{
closed = 1;
nodes = (
(41,455,l),
(126.333,484.333,o),
(182,552.333,o),
(182,627,cs),
(182,677.667,o),
(155.333,711,o),
(114,711,cs),
(79.333,711,o),
(53,685.667,o),
(53,651,cs),
(53,620.333,o),
(76.667,595,o),
(106,595,cs),
(114,595,o),
(121,596.333,o),
(125,599,c),
(125,623,l),
(141,623,l),
(141,604,ls),
(141,548,o),
(101,490.333,o),
(37,461,c)
);
}
);
width = 238;
}
);
note = quoteright;
unicode = 8217;
},
{
glyphname = parenleft;
lastChange = "2023-10-03 16:37:10 +0000";
layers = (
{
layerId = m01;
shapes = (
{
closed = 1;
nodes = (
(62,97.667,o),
(124,-45.333,o),
(228,-136,cs),
(280,-181.333,o),
(339,-211.333,o),
(405,-226,c),
(405,-224,l),
(254.333,-136,o),
(171,33.667,o),
(171,259,cs),
(171,484.333,o),
(254.333,654,o),
(405,742,c),
(405,744,l),
(273,714.667,o),
(164.667,620.333,o),
(106,483,cs),
(76.667,414.333,o),
(62,339.667,o),
(62,259,cs)
);
}
);
width = 416;
}
);
note = parenleft;
unicode = 40;
},
{
glyphname = parenright;
lastChange = "2023-10-03 16:37:10 +0000";
layers = (
{
layerId = m01;
shapes = (
{
closed = 1;
nodes = (
(354,420.333,o),
(292,563.333,o),
(188,654,cs),
(136,699.333,o),
(77,729.333,o),
(11,744,c),
(11,742,l),
(161.667,654,o),
(245,484.333,o),
(245,259,cs),
(245,33.667,o),
(161.667,-136,o),
(11,-224,c),
(11,-226,l),
(143,-196.667,o),
(251.333,-102.333,o),
(310,35,cs),
(339.333,103.667,o),
(354,178.333,o),
(354,259,cs)
);
}
);
width = 416;
}
);
note = parenright;
unicode = 41;
},
{
glyphname = asterisk;
kernLeft = asterisk;
kernRight = asterisk;
lastChange = "2023-10-03 16:38:19 +0000";
layers = (
{
layerId = m01;
shapes = (
{
closed = 1;
nodes = (
(48,617,l),
(28,583,l),
(169,501,l),
(189,536,l)
);
},
{
closed = 1;
nodes = (
(48,385,l),
(189,466,l),
(169,501,l),
(28,419,l)
);
},
{
closed = 1;
nodes = (
(229,303,l),
(229,466,l),
(189,466,l),
(189,303,l)
);
},
{
closed = 1;
nodes = (
(229,536,l),
(229,699,l),
(189,699,l),
(189,536,l)
);
},
{
closed = 1;
nodes = (
(370,385,l),
(390,419,l),
(249,501,l),
(229,466,l)
);
},
{
closed = 1;
nodes = (
(249,501,l),
(390,583,l),
(370,617,l),
(229,536,l)
);
}
);
width = 418;
}
);
note = asterisk;
unicode = 42;
},
{
glyphname = plus;
kernLeft = plus;
kernRight = plus;
lastChange = "2023-10-03 16:38:28 +0000";
layers = (
{
layerId = m01;
shapes = (
{
closed = 1;
nodes = (
(35,335,l),
(35,295,l),
(239,295,l),
(239,91,l),
(279,91,l),
(279,295,l),
(483,295,l),
(483,335,l),
(279,335,l),
(279,539,l),
(239,539,l),
(239,335,l)
);
}
);
width = 518;
}
);
note = plus;
unicode = 43;
},
{
glyphname = comma;
kernLeft = comma;
kernRight = comma;
lastChange = "2023-10-03 16:37:10 +0000";
layers = (
{
layerId = m01;
shapes = (
{
closed = 1;
nodes = (
(41,-141,l),
(126.333,-111.667,o),
(182,-43.667,o),
(182,31,cs),
(182,81.667,o),
(155.333,115,o),
(114,115,cs),
(79.333,115,o),
(53,89.667,o),
(53,55,cs),
(53,24.333,o),
(76.667,-1,o),
(106,-1,cs),
(114,-1,o),
(121,0.333,o),
(125,3,c),
(125,27,l),
(141,27,l),
(141,8,ls),
(141,-48,o),
(101,-105.667,o),
(37,-135,c)
);
}
);
width = 238;
}
);
note = comma;
unicode = 44;
},
{
glyphname = hyphen;
kernLeft = plus;
kernRight = plus;
lastChange = "2023-10-03 16:38:41 +0000";
layers = (
{
layerId = m01;
shapes = (
{
closed = 1;
nodes = (
(35,335,l),
(35,295,l),
(383,295,l),
(383,335,l)
);
}
);
width = 418;
}
);
note = hyphen;
unicode = 45;
},
{
glyphname = period;
kernLeft = comma;
kernRight = comma;
lastChange = "2023-10-03 16:38:46 +0000";
layers = (
{
layerId = m01;
shapes = (
{
closed = 1;
nodes = (
(64,113,l),
(64,0,l),
(176,0,l),
(176,113,l)
);
}
);
width = 240;
}
);
note = period;
unicode = 46;
},
{
glyphname = slash;
kernLeft = slash;
kernRight = asterisk;
lastChange = "2023-10-03 16:38:54 +0000";
layers = (
{
layerId = m01;
shapes = (
{
closed = 1;
nodes = (
(353,700,l),
(317,700,l),
(-82,-231,l),
(-46,-231,l)
);
}
);
width = 370;
}
);
note = slash;
unicode = 47;
},
{
glyphname = zero;
kernLeft = zero;
kernRight = zero;
lastChange = "2023-10-03 16:37:10 +0000";
layers = (
{
layerId = m01;
shapes = (
{
closed = 1;
nodes = (
(201.667,711,o),
(123.667,644.667,o),
(81,534,cs),
(59.667,478.667,o),
(49,416.333,o),
(49,347,cs),
(49,209.667,o),
(95.833,95.167,o),
(172.5,34.5,cs),
(210.833,4.167,o),
(254,-11,o),
(302,-11,cs),
(391.333,-11,o),
(469.333,56.333,o),
(512,167,cs),
(533.333,222.333,o),
(544,284.333,o),
(544,353,cs),
(544,490.333,o),
(497.167,604.833,o),
(420.5,665.5,cs),
(382.167,695.833,o),
(339,711,o),
(291,711,cs)
);
},
{
closed = 1;
nodes = (
(149,553,o),
(203.333,669,o),
(290,669,cs),
(382.302,669,o),
(444,539.217,o),
(444,335,cs),
(444,148.333,o),
(389,31,o),
(301,31,cs),
(239.667,31,o),
(193.333,87.833,o),
(168,188.5,cs),
(155.333,238.833,o),
(149,297.667,o),
(149,365,cs)
);
}
);
width = 593;
}
);
note = zero;
unicode = 48;
},
{
glyphname = one;
kernLeft = one;
kernRight = one;
lastChange = "2023-10-03 16:37:10 +0000";
layers = (
{
layerId = m01;
shapes = (
{
closed = 1;
nodes = (
(231,710,l),
(41,668,l),
(81,651,ls),
(129,631,o),
(139,619.667,o),
(139,589,cs),
(139,95,ls),
(139,53.667,o),
(113.667,33.333,o),
(59,28,cs),
(39,26,l),
(39,0,l),
(332,0,l),
(332,26,l),
(311,28,ls),
(256.333,33.333,o),
(231,53.667,o),
(231,95,cs)
);
}
);
width = 370;
}
);
note = one;
unicode = 49;
},
{
glyphname = two;
kernLeft = two;
kernRight = two;
lastChange = "2023-10-03 16:39:08 +0000";
layers = (
{
layerId = m01;
shapes = (
{
closed = 1;
nodes = (
(97,47,l),
(340,329,ls),
(418.667,418.333,o),
(450,483,o),
(450,539,cs),
(450,643,o),
(374.667,710,o),
(236,710,cs),
(119.096,710,o),
(29,634.43,o),
(29,545,cs),
(29,513,o),
(51.667,488,o),
(81,488,cs),
(111.667,488,o),
(132,512,o),
(132,548,cs),
(132,553.333,o),
(131.667,557.333,o),
(131,560,c),
(110,560,l),
(111.333,628,o),
(153,669,o),
(225,669,cs),
(299.667,669,o),
(346,613.667,o),
(346,523,cs),
(346,459,o),
(321.333,401,o),
(256,317,cs),
(15,0,l),
(444,0,l),
(475,174,l),
(443,174,l),
(425,134,ls),
(407,92,o),
(363,71,o),
(293,71,cs),
(141,71,l),
(120,47,l)
);
}
);
width = 504;
}
);
note = two;
unicode = 50;
},
{
glyphname = three;
kernLeft = three;
kernRight = three;
lastChange = "2023-10-03 16:37:10 +0000";
layers = (
{
layerId = m01;
shapes = (
{
closed = 1;
nodes = (
(479,342.927,o),
(383.608,422.894,o),
(259,419,c),
(482,700,l),
(73,700,l),
(45,537,l),
(77,537,l),
(87,565,ls),
(103,613,o),
(130,629,o),
(182,629,cs),
(345,629,l),
(365,654,l),
(388,654,l),
(144,347,l),
(167.333,351.667,o),
(189.667,354,o),
(211,354,cs),
(325.667,354,o),
(379,290.667,o),
(379,200,cs),
(379,97.333,o),
(321.333,30,o),
(232,30,cs),
(164,30,o),
(122.667,64,o),
(120,120,c),
(140,120,l),
(141.333,128,o),
(142,133.667,o),
(142,137,cs),
(142,173,o),
(120,197,o),
(88,197,cs),
(58.667,197,o),
(36,173.667,o),
(36,143,cs),
(36,55.473,o),
(126.703,-11,o),
(243,-11,cs),
(384.013,-11,o),
(479,91.304,o),
(479,218,cs)
);
}
);
width = 520;
}
);
note = three;
unicode = 51;
},
{
glyphname = four;
kernLeft = four;
kernRight = four;
lastChange = "2023-10-03 16:37:10 +0000";
layers = (
{
layerId = m01;
shapes = (
{
closed = 1;
nodes = (
(355,214,l),
(355,95,ls),
(355,52.333,o),
(341.667,32,o),
(299,28,cs),
(278,26,l),
(278,0,l),
(523,0,l),
(523,26,l),
(502,28,ls),
(459.333,32,o),
(446,51,o),
(446,95,cs),
(446,196,l),
(413,196,l),
(413,214,l),
(553,214,l),
(579,385,l),
(547,385,l),
(535,354,ls),
(519.667,314.667,o),
(490,291,o),
(446,283,c),
(446,469,l),
(355,416,l),
(355,280,l),
(123,280,l),
(184.333,349.333,o),
(246.333,421,o),
(309,495,cs),
(358.333,553.667,o),
(391.167,599.667,o),
(407.5,633,cs),
(423.833,666.333,o),
(431,695,o),
(429,719,c),
(313,698,l),
(315.667,634,o),
(294.667,572.667,o),
(228,478,cs),
(164.667,387.333,o),
(97,299.333,o),
(25,214,c)
);
}
);
width = 601;
}
);
note = four;
unicode = 52;
},
{
glyphname = five;
kernLeft = five;
kernRight = three;
lastChange = "2023-10-03 16:39:22 +0000";
layers = (
{
layerId = m01;
shapes = (
{
closed = 1;
nodes = (
(174,624,l),
(437,624,l),
(456,752,l),
(429,752,l),
(423,736,ls),
(415,712,o),
(390,700,o),
(348,700,cs),
(119,700,l),
(84,327,l),
(132,351.667,o),
(180.667,364,o),
(230,364,cs),
(322,364,o),
(388,304,o),
(388,204,cs),
(388,100,o),
(333.667,31,o),
(243,31,cs),
(173.667,31,o),
(130.667,63.667,o),
(128,121,c),
(149,121,l),
(149.667,125,o),
(150,130.667,o),
(150,138,cs),
(150,179.333,o),
(126,198,o),
(98,198,cs),
(68.667,198,o),
(46,172,o),
(46,140,cs),
(46,55.019,o),
(134.282,-10,o),
(241,-10,cs),
(384.462,-10,o),
(486,86.497,o),
(486,224,cs),
(486,353.561,o),
(394.118,442,o),
(251,442,cs),
(207.667,442,o),
(169.667,435.333,o),
(137,422,c),
(158,654,l),
(176,654,l)
);
}
);
width = 521;
}
);
note = five;
unicode = 53;
},
{
glyphname = six;
kernLeft = zero;
kernRight = three;
lastChange = "2023-10-03 16:37:10 +0000";
layers = (
{
layerId = m01;
shapes = (
{
closed = 1;
nodes = (
(522,344.698,o),
(436.384,427,o),
(315,427,cs),
(252.333,427,o),
(178.667,392,o),
(124,328,c),
(124,354,l),
(151,382,l),
(159,562,o),
(220.667,670,o),
(314,670,cs),
(376.667,670,o),
(416.667,635,o),
(418,579,c),
(397,579,l),
(395.667,569.667,o),
(395,563.333,o),
(395,560,cs),
(395,525.333,o),
(418,502,o),
(450,502,cs),
(479.333,502,o),
(501,526.333,o),
(501,557,cs),
(501,636.028,o),
(422.319,711,o),
(317,711,cs),
(213,711,o),
(127.5,641,o),
(81.5,525,cs),
(58.5,467,o),
(47,401.333,o),
(47,328,cs),
(51.202,124.222,o),
(162.037,-10,o),
(301,-10,cs),
(423.08,-10,o),
(522,94.436,o),
(522,227,cs)
);
},
{
closed = 1;
nodes = (
(179,357.667,o),
(236,384,o),
(292,384,cs),
(373.333,384,o),
(424,314.333,o),
(424,205,cs),
(424,99.667,o),
(378,32,o),
(306,32,cs),
(216.667,32,o),
(156.333,140.333,o),
(151,315,c)
);
}
);
width = 566;
}
);
note = six;
unicode = 54;
},
{
glyphname = seven;
kernLeft = seven;
kernRight = seven;
lastChange = "2023-10-03 16:37:10 +0000";
layers = (
{
layerId = m01;
shapes = (
{
closed = 1;
nodes = (
(226,-6,l),
(221.333,16,o),
(219,35.667,o),
(219,53,cs),
(219,106.333,o),
(235.333,170.667,o),
(274,260,cs),
(346,428,o),
(413.333,574.667,o),
(476,700,c),
(47,700,l),
(16,521,l),
(49,521,l),
(64,567,ls),
(78.667,611,o),
(128.667,629,o),
(218,629,cs),
(379,629,l),
(393,654,l),
(414,654,l),
(343.333,524,o),
(263.667,369.333,o),
(175,190,cs),
(128.333,98,o),
(109,44.333,o),
(109,-1,cs),
(109,-8.333,o),
(110.333,-19.333,o),
(113,-34,c)
);
}
);
width = 486;
}
);
note = seven;
unicode = 55;
},
{
glyphname = eight;
kernLeft = three;
kernRight = three;
lastChange = "2023-10-03 16:37:10 +0000";
layers = (
{
layerId = m01;
shapes = (
{
closed = 1;
nodes = (
(405.049,-11,o),
(504,78.622,o),
(504,186,cs),
(504,262,o),
(464,326,o),
(356,378,c),
(324,366,l),
(305,376,l),
(337,389,ls),
(426.333,425,o),
(470,478.333,o),
(470,553,cs),
(470,641.939,o),
(391.104,710,o),
(274,710,cs),
(155.054,710,o),
(72,631.92,o),
(72,535,cs),
(72,467.667,o),
(108,414.333,o),
(180,375,c),
(211,388,l),
(229,378,l),
(198,364,ls),
(90,316,o),
(39,259,o),
(39,175,cs),
(39,68.53,o),
(137.078,-11,o),
(270,-11,cs)
);
},
{
closed = 1;
nodes = (
(129,261.667,o),
(165,318.667,o),
(229,344,c),
(294,310,ls),
(379.333,266,o),
(407,222.333,o),
(407,161,cs),
(407,86.333,o),
(354,31,o),
(270,31,cs),
(187.333,31,o),
(129,96.333,o),
(129,187,cs)
);
},
{
closed = 1;
nodes = (
(156,630.333,o),
(201.667,676,o),
(267,676,cs),
(335,676,o),
(387,622,o),
(387,546,cs),
(387,486,o),
(358.333,436.667,o),
(309,410,c),
(251,438,ls),
(187.667,468.667,o),
(156,511,o),
(156,565,cs)
);
}
);
width = 543;
}
);
note = eight;
unicode = 56;
},
{
glyphname = nine;
kernLeft = three;
kernRight = zero;
lastChange = "2023-10-03 16:37:10 +0000";
layers = (
{
layerId = m01;
shapes = (
{
closed = 1;
nodes = (
(515.667,501,o),
(469,609.5,o),
(393,667.5,cs),
(355,696.5,o),
(312.333,711,o),
(265,711,cs),
(143.789,711,o),
(46,606.58,o),
(46,474,cs),
(46,360.721,o),
(127.087,274,o),
(251,274,cs),
(315,274,o),
(386.333,309,o),
(441,373,c),
(441,346,l),
(413,319,l),
(406.333,139,o),
(345.333,31,o),
(252,31,cs),
(189.333,31,o),
(149.333,66,o),
(148,122,c),
(169,122,l),
(170.333,131.333,o),
(171,137.667,o),
(171,141,cs),
(171,175.667,o),
(148,199,o),
(116,199,cs),
(88,199,o),
(65,175.667,o),
(65,145,cs),
(65,65.391,o),
(143.765,-10,o),
(250,-10,cs),
(401.268,-10,o),
(517,144.345,o),
(517,373,cs)
);
},
{
closed = 1;
nodes = (
(144,602.667,o),
(189,669,o),
(261,669,cs),
(347.667,669,o),
(407.667,561,o),
(413,385,c),
(385,342.333,o),
(329.667,317,o),
(275,317,cs),
(195,317,o),
(144,386.667,o),
(144,496,cs)
);
}
);
width = 566;
}
);
note = nine;
unicode = 57;
},
{
glyphname = colon;
kernLeft = colon;
kernRight = colon;
lastChange = "2023-10-03 16:39:44 +0000";
layers = (
{
layerId = m01;
shapes = (
{
closed = 1;
nodes = (
(64,480,l),
(64,367,l),
(176,367,l),
(176,480,l)
);
},
{
closed = 1;
nodes = (
(176,0,l),
(176,113,l),
(64,113,l),
(64,0,l)
);
}
);
width = 240;
}
);
note = colon;
unicode = 58;
},
{
glyphname = semicolon;
kernLeft = colon;
kernRight = colon;
lastChange = "2023-10-03 16:39:51 +0000";
layers = (
{
layerId = m01;
shapes = (
{
closed = 1;
nodes = (
(64,480,l),
(64,367,l),
(176,367,l),
(176,480,l)
);
},
{
closed = 1;
nodes = (
(41,-141,l),
(126.333,-111.667,o),
(182,-43.667,o),
(182,31,cs),
(182,81.667,o),
(155.333,115,o),
(114,115,cs),
(79.333,115,o),
(53,89.667,o),
(53,55,cs),
(53,24.333,o),
(76.667,-1,o),
(106,-1,cs),
(114,-1,o),
(121,0.333,o),
(125,3,c),
(125,27,l),
(141,27,l),
(141,8,ls),
(141,-48,o),
(101,-105.667,o),
(37,-135,c)
);
}
);
width = 240;
}
);
note = semicolon;
unicode = 59;
},
{
glyphname = equal;
kernLeft = plus;
kernRight = plus;
lastChange = "2023-10-03 16:39:58 +0000";
layers = (
{
layerId = m01;
shapes = (
{
closed = 1;
nodes = (
(35,410,l),
(35,370,l),
(483,370,l),
(483,410,l)
);
},
{
closed = 1;
nodes = (
(483,220,l),
(483,260,l),
(35,260,l),
(35,220,l)
);
}
);
width = 518;
}
);
note = equal;
unicode = 61;
},
{
glyphname = question;
kernLeft = question;
lastChange = "2023-10-03 16:40:02 +0000";
layers = (
{
layerId = m01;
shapes = (
{
closed = 1;
nodes = (
(217.333,215.667,o),
(210,230,o),
(210,250,cs),
(210,275.333,o),
(223,302,o),
(247,318,cs),
(317,369,ls),
(394.333,425,o),
(426,476.333,o),
(426,543,cs),
(426,635.09,o),
(337.89,710,o),
(208,710,cs),
(107.389,710,o),
(19,647.644,o),
(19,573,cs),
(19,543.667,o),
(41.333,519,o),
(68,519,cs),
(97.333,519,o),
(115,541,o),
(115,573,cs),
(115,577,o),
(114.333,583,o),
(113,591,c),
(93,591,l),
(95.667,641.667,o),
(136.667,672,o),
(202,672,cs),
(278,672,o),
(333,619,o),
(333,547,cs),
(333,493.667,o),
(311,448,o),
(267,410,cs),
(214,364,ls),
(180.667,334.667,o),
(166,307.333,o),
(166,274,cs),
(166,234,o),
(193.333,208.333,o),
(232,207,c)
);
},
{
closed = 1;
nodes = (
(261,0,l),
(261,113,l),
(149,113,l),
(149,0,l)
);
}
);
width = 430;
}
);
note = question;
unicode = 63;
},
{
glyphname = at;
kernLeft = at;
kernRight = at;
lastChange = "2023-10-03 16:37:10 +0000";
layers = (
{
layerId = m01;
shapes = (
{
closed = 1;
nodes = (
(591,419,l),
(507,393,l),
(487,409,o),
(462.333,417,o),
(433,417,cs),
(337.106,417,o),
(239.983,344.693,o),
(206,230,cs),
(198,202,o),
(194,176.667,o),
(194,154,cs),
(194,91.333,o),
(225.333,52.333,o),
(276,51,cs),
(330.667,51,o),
(381.333,93,o),
(444,193,c),
(430,145,l),
(411,117,l),
(411,71.667,o),
(449,51,o),
(505,51,cs),
(629.7,51,o),
(734,157.035,o),
(734,312,cs),
(734,418.667,o),
(679.833,506.167,o),
(588.5,553.5,cs),
(542.833,577.167,o),
(491.667,589,o),
(435,589,cs),
(297.667,589,o),
(171,515.167,o),
(99,394.5,cs),
(63,334.167,o),
(45,267.667,o),
(45,195,cs),
(45,73.667,o),
(102.833,-28.167,o),
(199.5,-83.5,cs),
(247.833,-111.167,o),
(302,-125,o),
(362,-125,cs),
(448.667,-125,o),
(524.333,-99,o),
(589,-47,c),
(588,-45,l),
(519.333,-79,o),
(450.667,-96,o),
(382,-96,cs),
(206.068,-96,o),
(83,23.655,o),
(83,194,cs),
(83,330,o),
(154,447.333,o),
(262,510,cs),
(316,541.333,o),
(373.333,557,o),
(434,557,cs),
(584.731,557,o),
(698,454.381,o),
(698,314,cs),
(698,189.405,o),
(625.378,88,o),
(528,88,cs),
(497.333,88,o),
(482,100,o),
(482,124,cs),
(482,135.333,o),
(485,149,o),
(491,165,cs)
);
},
{
closed = 1;
nodes = (
(278,176,o),
(283.333,204.667,o),
(294,238,cs),
(324.667,331.333,o),
(376.667,387,o),
(434,387,cs),
(456.667,387,o),
(475,377,o),
(489,357,c),
(431,218,l),
(379,139.333,o),
(339.667,100,o),
(313,100,cs),
(290.333,100,o),
(278,118.667,o),
(278,152,cs)
);
}
);
width = 764;
}
);
note = at;
unicode = 64;
},
{
glyphname = A;
kernLeft = A;
kernRight = A;
lastChange = "2023-10-03 16:40:10 +0000";
layers = (
{
layerId = m01;
shapes = (
{
closed = 1;
nodes = (
(472,216,l),
(520,102,ls),
(524.667,92,o),
(527,82.333,o),
(527,73,cs),
(527,49,o),
(510.333,33.667,o),
(481,31,cs),
(464,29,l),
(464,0,l),
(715,0,l),
(715,27,l),
(672.333,36.333,o),
(651,57.667,o),
(631,103,cs),
(362,733,l),
(360,733,l),
(93,111,ls),
(73.667,65.667,o),
(44.667,37.667,o),
(6,27,c),
(6,0,l),
(210,0,l),
(210,29,l),
(193,31,ls),
(157.667,35,o),
(140,51.667,o),
(140,81,cs),
(140,95,o),
(144.333,112,o),
(153,132,cs),
(197,236,l),
(500,236,l),
(508,216,l)
);
},
{
closed = 1;
nodes = (
(331,556,l),
(450,271,l),
(212,271,l)
);
}
);
width = 721;
}
);
note = A;
unicode = 65;
},
{
glyphname = B;
kernRight = B;
lastChange = "2023-10-03 16:40:17 +0000";
layers = (
{
layerId = m01;
shapes = (
{
closed = 1;
nodes = (
(621,282.333,o),
(560.667,348.333,o),
(458,375,c),
(534,404.333,o),
(581,462.667,o),
(581,528,cs),
(581,634.045,o),
(479.846,700,o),
(333,700,cs),
(20,700,l),
(20,671,l),
(43,669,ls),
(90.333,665,o),
(114,640.333,o),
(114,595,cs),
(114,105,ls),
(114,59.667,o),
(90.333,35,o),
(43,31,cs),
(20,29,l),
(20,0,l),
(358,0,ls),
(520.997,0,o),
(621,79.533,o),
(621,193,cs)
);
},
{
closed = 1;
nodes = (
(184,61,l),
(220,61,l),
(220,351,l),
(344,351,ls),
(446.667,351,o),
(510,291.667,o),
(510,197,cs),
(510,98.333,o),
(447,41,o),
(339,41,cs),
(184,41,l)
);
},
{
closed = 1;
nodes = (
(184,659,l),
(319,659,ls),
(416.333,659,o),
(472,607.667,o),
(472,521,cs),
(472,438.333,o),
(415.333,386,o),
(326,386,cs),
(220,386,l),
(220,639,l),
(184,639,l)
);
}
);
width = 660;
}
);
note = B;
unicode = 66;
},
{
glyphname = C;
kernLeft = C;
kernRight = C;
lastChange = "2023-10-03 16:37:10 +0000";
layers = (
{
layerId = m01;
shapes = (
{
closed = 1;
nodes = (
(486,-10,o),
(587.333,70.333,o),
(626,201,c),
(622,203,l),
(556.667,92.333,o),
(483.667,44,o),
(381,44,cs),
(247.426,44,o),
(149,163.968,o),
(149,354,cs),
(149,543.503,o),
(239.041,663,o),
(366,663,cs),
(454,663,o),
(522.333,610.667,o),
(565,508,cs),
(585,462,l),
(619,462,l),
(619,707,l),
(542,664,l),
(551.333,656,o),
(566,639.667,o),
(574,629,c),
(574,594,l),
(524,671.333,o),
(454,710,o),
(364,710,cs),
(240,710,o),
(133.5,641.333,o),
(75.5,528,cs),
(46.5,471.333,o),
(32,408.667,o),
(32,340,cs),
(32,208,o),
(92.833,96.167,o),
(193.5,35.5,cs),
(243.833,5.167,o),
(300,-10,o),
(362,-10,cs)
);
}
);
width = 665;
}
);
note = C;
unicode = 67;
},
{
glyphname = D;
kernRight = D;
lastChange = "2023-10-03 16:40:35 +0000";
layers = (
{
layerId = m01;
shapes = (
{
closed = 1;
nodes = (
(20,29,l),
(20,0,l),
(317,0,ls),
(458.333,0,o),
(580.167,67,o),
(647.5,175,cs),
(681.167,229,o),
(698,289,o),
(698,355,cs),
(698,485.667,o),
(628.833,596.167,o),
(513.5,655.5,cs),
(455.833,685.167,o),
(391,700,o),
(319,700,cs),
(20,700,l),
(20,671,l),
(43,669,ls),
(90.333,665,o),
(114,640.333,o),
(114,595,cs),
(114,105,ls),
(114,59.667,o),
(90.333,35,o),
(43,31,cs)
);
},
{
closed = 1;
nodes = (
(184,61,l),
(220,61,l),
(220,639,l),
(184,639,l),
(184,659,l),
(314,659,ls),
(473.368,659,o),
(581,533.671,o),
(581,351,cs),
(581,161.184,o),
(475.38,41,o),
(305,41,cs),
(184,41,l)
);
}
);
width = 729;
}
);
note = D;
unicode = 68;
},
{
glyphname = E;
kernRight = E;
lastChange = "2023-10-03 16:40:39 +0000";
layers = (
{
layerId = m01;
shapes = (
{
closed = 1;
nodes = (
(220,61,l),
(220,340,l),
(325,340,ls),
(375.667,340,o),
(398.667,318.667,o),
(412,260,cs),
(420,226,l),
(453,226,l),
(453,490,l),
(420,490,l),
(412,456,ls),
(398.667,396,o),
(375.667,375,o),
(325,375,cs),
(220,375,l),
(220,639,l),
(184,639,l),
(184,659,l),
(402,659,ls),
(479.333,659,o),
(523,621.667,o),
(547,535,cs),
(569,456,l),
(601,456,l),
(589,700,l),
(20,700,l),
(20,671,l),
(43,669,ls),
(90.333,665,o),
(114,640.333,o),
(114,595,cs),
(114,105,ls),
(114,59.667,o),
(90.333,35,o),
(43,31,cs),
(20,29,l),
(20,0,l),
(587,0,l),
(619,249,l),
(586,249,l),
(568,184,ls),
(541.333,85.333,o),
(490.333,41,o),
(409,41,cs),
(184,41,l),
(184,61,l)
);
}
);
width = 660;
}
);
note = E;
unicode = 69;
},
{
glyphname = F;
kernRight = F;
lastChange = "2023-10-03 16:37:10 +0000";
layers = (
{
layerId = m01;
shapes = (
{
closed = 1;
nodes = (
(220,314,l),
(184,314,l),
(184,334,l),
(330,334,ls),
(380.667,334,o),
(403.667,312.667,o),
(417,254,cs),
(425,220,l),
(458,220,l),
(458,484,l),
(425,484,l),
(417,450,ls),
(403.667,390,o),
(380.667,369,o),
(330,369,cs),
(220,369,l),
(220,639,l),
(184,639,l),
(184,659,l),
(402,659,ls),
(479.333,659,o),
(523,621.667,o),
(547,535,cs),
(569,456,l),
(601,456,l),
(589,700,l),
(20,700,l),
(20,671,l),
(43,669,ls),
(90.333,665,o),
(114,640.333,o),
(114,595,cs),
(114,105,ls),
(114,59.667,o),
(90.333,35,o),
(43,31,cs),
(20,29,l),
(20,0,l),
(314,0,l),
(314,29,l),
(291,31,ls),
(243.667,35,o),
(220,59.667,o),
(220,105,cs)
);
}
);
width = 645;
}
);
note = F;
unicode = 70;
},
{
glyphname = G;
kernLeft = C;
kernRight = G;
lastChange = "2023-10-03 16:37:10 +0000";
layers = (
{
layerId = m01;
shapes = (
{
closed = 1;
nodes = (
(447.667,-9,o),
(519.667,12.667,o),
(579,56,c),
(650,-11,l),
(650,232,ls),
(650,277.333,o),
(672,302,o),
(716,306,cs),
(739,308,l),
(739,337,l),
(452,337,l),
(452,308,l),
(475,306,ls),
(525.667,302,o),
(551,277.333,o),
(551,232,cs),
(551,118,l),
(589,144,l),
(589,119,l),
(521,67,o),
(461.667,44,o),
(395,44,cs),
(248.039,44,o),
(149,170.526,o),
(149,355,cs),
(149,543.671,o),
(240.506,663,o),
(371,663,cs),
(467,663,o),
(538.333,610.667,o),
(581,508,cs),
(600,463,l),
(634,463,l),
(634,708,l),
(558,665,l),
(567.333,655.667,o),
(587.667,635.333,o),
(589,630,c),
(589,595,l),
(541,671,o),
(466.333,710,o),
(373,710,cs),
(245,710,o),
(135.833,641,o),
(76.5,529,cs),
(46.833,473,o),
(32,410.333,o),
(32,341,cs),
(32,209,o),
(92.833,97.167,o),
(193.5,36.5,cs),
(243.833,6.167,o),
(300.333,-9,o),
(363,-9,cs)
);
}
);
width = 755;
}
);
note = G;
unicode = 71;
},
{
glyphname = H;
kernRight = H;
lastChange = "2023-10-03 16:40:51 +0000";
layers = (
{
layerId = m01;
shapes = (
{
closed = 1;
nodes = (
(184,340,l),
(585,340,l),
(585,320,l),
(549,320,l),
(549,105,ls),
(549,59.667,o),
(525.333,35,o),
(478,31,cs),
(455,29,l),
(455,0,l),
(749,0,l),
(749,29,l),
(726,31,ls),
(678.667,35,o),
(655,59.667,o),
(655,105,cs),
(655,595,ls),
(655,640.333,o),
(678.667,665,o),
(726,669,cs),
(749,671,l),
(749,700,l),
(455,700,l),
(455,671,l),
(478,669,ls),
(525.333,665,o),
(549,640.333,o),
(549,595,cs),
(549,375,l),
(220,375,l),
(220,595,ls),
(220,640.333,o),
(243.667,665,o),
(291,669,cs),
(314,671,l),
(314,700,l),
(20,700,l),
(20,671,l),
(43,669,ls),
(90.333,665,o),
(114,640.333,o),
(114,595,cs),
(114,105,ls),
(114,59.667,o),
(90.333,35,o),
(43,31,cs),
(20,29,l),
(20,0,l),
(314,0,l),
(314,29,l),
(291,31,ls),
(243.667,35,o),
(220,59.667,o),
(220,105,cs),
(220,320,l),
(184,320,l)
);
}
);
width = 769;
}
);
note = H;
unicode = 72;
},
{
glyphname = I;
kernRight = H;
lastChange = "2023-10-03 16:37:10 +0000";
layers = (
{
layerId = m01;
shapes = (
{
closed = 1;
nodes = (
(220,595,ls),
(220,640.333,o),
(243.667,665,o),
(291,669,cs),
(314,671,l),
(314,700,l),
(20,700,l),
(20,671,l),
(43,669,ls),
(90.333,665,o),
(114,640.333,o),
(114,595,cs),
(114,105,ls),
(114,59.667,o),
(90.333,35,o),
(43,31,cs),
(20,29,l),
(20,0,l),
(314,0,l),
(314,29,l),
(291,31,ls),
(243.667,35,o),
(220,59.667,o),
(220,105,cs)
);
}
);
width = 334;
}
);
note = I;
unicode = 73;
},
{
glyphname = J;
kernLeft = J;
kernRight = J;
lastChange = "2023-10-03 16:37:10 +0000";
layers = (
{
layerId = m01;
shapes = (
{
closed = 1;
nodes = (
(454,595,ls),
(454,640.333,o),
(477.667,665,o),
(525,669,cs),
(548,671,l),
(548,700,l),
(254,700,l),
(254,671,l),
(277,669,ls),
(324.333,665,o),
(348,640.333,o),
(348,595,cs),
(348,183,ls),
(348,88.333,o),
(296.333,32,o),
(211,32,cs),
(149.667,32,o),
(108.333,64.667,o),
(107,114,c),
(128,114,l),
(129.333,122,o),
(130,128,o),
(130,132,cs),
(130,169.333,o),
(108.667,192,o),
(74,192,cs),
(44.667,192,o),
(21,167.667,o),
(21,137,cs),
(21,60.182,o),
(103.536,-11,o),
(218,-11,cs),
(351.069,-11,o),
(454,77.767,o),
(454,214,cs)
);
}
);
width = 568;
}
);
note = J;
unicode = 74;
},
{
glyphname = K;
kernRight = K;
lastChange = "2023-10-03 16:37:10 +0000";
layers = (
{
layerId = m01;
shapes = (
{
closed = 1;
nodes = (
(17,29,l),
(17,0,l),
(311,0,l),
(311,29,l),
(288,31,ls),
(240.667,35,o),
(217,59.667,o),
(217,105,cs),
(217,259,l),
(311,356,l),
(556,0,l),
(719,0,l),
(719,27,l),
(679,37.667,o),
(649.667,60.333,o),
(619,103,cs),
(383,431,l),
(535,587,ls),
(573.667,625.667,o),
(635.667,659.667,o),
(689,673,c),
(689,700,l),
(454,700,l),
(454,671,l),
(476,669,ls),
(497.333,667.667,o),
(510,656.333,o),
(510,639,cs),
(510,624.333,o),
(501,607.333,o),
(483,588,cs),
(189,283,l),
(189,308,l),
(217,338,l),
(217,595,ls),
(217,640.333,o),
(240.667,665,o),
(288,669,cs),
(311,671,l),
(311,700,l),
(17,700,l),
(17,671,l),
(40,669,ls),
(87.333,665,o),
(111,640.333,o),
(111,595,cs),
(111,105,ls),
(111,59.667,o),
(87.333,35,o),
(40,31,cs)
);
}
);
width = 728;
}
);
note = K;
unicode = 75;
},
{
glyphname = L;
kernRight = L;
lastChange = "2023-10-03 16:41:05 +0000";
layers = (
{
layerId = m01;
shapes = (
{
closed = 1;
nodes = (
(587,0,l),
(619,249,l),
(586,249,l),
(569,188,ls),
(541,86.667,o),
(490.333,41,o),
(409,41,cs),
(184,41,l),
(184,61,l),
(220,61,l),
(220,595,ls),
(220,640.333,o),
(243.667,665,o),
(291,669,cs),
(314,671,l),
(314,700,l),
(20,700,l),
(20,671,l),
(43,669,ls),
(90.333,665,o),
(114,640.333,o),
(114,595,cs),
(114,105,ls),
(114,59.667,o),
(90.333,35,o),
(43,31,cs),
(20,29,l),
(20,0,l)
);
}
);
width = 645;
}
);
note = L;
unicode = 76;
},
{
glyphname = M;
kernRight = H;
lastChange = "2023-10-03 16:41:24 +0000";
layers = (
{
layerId = m01;
shapes = (
{
closed = 1;
nodes = (
(20,671,l),
(43,668,ls),
(91,661.333,o),
(114,634.667,o),
(114,584,cs),
(114,116,ls),
(114,65.333,o),
(91,38.667,o),
(43,32,cs),
(20,29,l),
(20,0,l),
(262,0,l),
(262,29,l),
(239,32,ls),
(191,38,o),
(167,66,o),
(167,116,cs),
(167,613,l),
(431,-31,l),
(433,-31,l),
(692,601,l),
(713,601,l),
(697,562,l),
(697,105,ls),
(697,59.667,o),
(673.333,35,o),
(626,31,cs),
(603,29,l),
(603,0,l),
(896,0,l),
(896,29,l),
(873,31,ls),
(825.667,35,o),
(802,59.667,o),
(802,105,cs),
(802,595,ls),
(802,640.333,o),
(825.667,665,o),
(873,669,cs),
(896,671,l),
(896,700,l),
(679,700,l),
(449,126,l),
(437,150,l),
(452,188,l),
(243,700,l),
(20,700,l)
);
}
);
width = 916;
}
);
note = M;
unicode = 77;
},
{
glyphname = N;
kernRight = N;
lastChange = "2023-10-03 16:41:33 +0000";
layers = (
{
layerId = m01;
shapes = (
{
closed = 1;
nodes = (
(650,584,ls),
(650,634.667,o),
(673,661.333,o),
(721,668,cs),
(744,671,l),
(744,700,l),
(502,700,l),
(502,671,l),
(525,668,ls),
(573,662,o),
(597,634,o),
(597,584,cs),
(597,189,l),
(578,211,l),
(578,248,l),
(196,700,l),
(34,700,l),
(114,618,l),
(114,116,ls),
(114,65.333,o),
(91,38.667,o),
(43,32,cs),
(20,29,l),
(20,0,l),
(262,0,l),
(262,29,l),
(239,32,ls),
(191,38,o),
(167,66,o),
(167,116,cs),
(167,570,l),
(650,-10,l)
);
}
);
width = 759;
}
);
note = N;
unicode = 78;
},
{
glyphname = O;
kernLeft = C;
kernRight = D;
lastChange = "2023-10-03 16:37:10 +0000";
layers = (
{
layerId = m01;
shapes = (
{
closed = 1;
nodes = (
(486.667,-11,o),
(595,57,o),
(655,169,cs),
(685,225,o),
(700,287,o),
(700,355,cs),
(700,491,o),
(636.333,604.667,o),
(535,666,cs),
(484.333,696.667,o),
(428.667,712,o),
(368,712,cs),
(245.333,712,o),
(137,643.833,o),
(77,532.5,cs),
(47,476.833,o),
(32,415,o),
(32,347,cs),
(32,211,o),
(95.667,96.333,o),
(197,35,cs),
(247.667,4.333,o),
(303.333,-11,o),
(364,-11,cs)
);
},
{
closed = 1;
nodes = (
(146,556.427,o),
(236.837,670,o),
(354,670,cs),
(442,670,o),
(513.167,613.667,o),
(552.5,511,cs),
(572.167,459.667,o),
(582,399.667,o),
(582,331,cs),
(582,145.573,o),
(491.163,32,o),
(374,32,cs),
(286,32,o),
(214.833,88.333,o),
(175.5,191,cs),
(155.833,242.333,o),
(146,302.333,o),
(146,371,cs)
);
}
);
width = 731;
}
);
note = O;
unicode = 79;
},
{
glyphname = P;
kernRight = P;
lastChange = "2023-10-03 16:41:41 +0000";
layers = (
{
layerId = m01;
shapes = (
{
closed = 1;
nodes = (
(220,303,l),
(184,303,l),
(184,323,l),
(345,323,ls),
(491.645,323,o),
(587,407.104,o),
(587,517,cs),
(587,622.563,o),
(492.938,700,o),
(344,700,cs),
(20,700,l),
(20,671,l),
(43,669,ls),
(90.333,665,o),
(114,640.333,o),
(114,595,cs),
(114,105,ls),
(114,59.667,o),
(90.333,35,o),
(43,31,cs),
(20,29,l),
(20,0,l),
(314,0,l),
(314,29,l),
(291,31,ls),
(243.667,35,o),
(220,59.667,o),
(220,105,cs)
);
},
{
closed = 1;
nodes = (
(184,659,l),
(333,659,ls),
(422.333,659,o),
(476,603.667,o),
(476,513,cs),
(476,419.667,o),
(419.667,358,o),
(333,358,cs),
(220,358,l),
(220,639,l),
(184,639,l)
);
}
);
width = 617;
}
);
note = P;
unicode = 80;
},
{
glyphname = Q;
kernLeft = C;
kernRight = D;
lastChange = "2023-10-03 16:37:10 +0000";
layers = (
{
layerId = m01;
shapes = (
{
closed = 1;
nodes = (
(680,-82,l),
(658.667,-102,o),
(646.333,-105,o),
(625,-105,cs),
(605,-105,o),
(587.333,-92,o),
(572,-66,cs),
(517,28,l),
(627.667,86.667,o),
(700,211,o),
(700,355,cs),
(700,491,o),
(636.333,604.667,o),
(535,666,cs),
(484.333,696.667,o),
(428.667,712,o),
(368,712,cs),
(245.333,712,o),
(137,643.833,o),
(77,532.5,cs),
(47,476.833,o),
(32,415,o),
(32,347,cs),
(32,211,o),
(95.667,96.333,o),
(197,35,cs),
(247.667,4.333,o),
(303.333,-11,o),
(364,-11,cs),
(372,-11,o),
(384.667,-10.333,o),
(402,-9,c),
(382,32,l),
(332.667,30.667,o),
(285.333,48.333,o),
(248,83,c),
(249.333,124.333,o),
(269,155,o),
(301,155,cs),
(326.333,155,o),
(345,140.667,o),
(361,110,cs),
(463,-87,ls),
(489.667,-137.667,o),
(519.333,-158,o),
(570,-158,cs),
(619.333,-158,o),
(655,-134.667,o),
(683,-84,c)
);
},
{
closed = 1;
nodes = (
(147,497.667,o),
(188.167,589.5,o),
(251.5,635.5,cs),
(283.167,658.5,o),
(317.667,670,o),
(355,670,cs),
(487.708,670,o),
(583,540.71,o),
(583,329,cs),
(583,211.667,o),
(547.333,122.333,o),
(490,73,c),
(458,127,ls),
(430,175,o),
(397,201.667,o),
(337,203,cs),
(277,203,o),
(230.333,165.667,o),
(221,111,c),
(174.333,171,o),
(147,261.667,o),
(147,371,cs)
);
}
);
width = 731;
}
);
note = Q;
unicode = 81;
},
{
glyphname = R;
kernRight = R;
lastChange = "2023-10-03 16:41:52 +0000";
layers = (
{
layerId = m01;
shapes = (
{
closed = 1;
nodes = (
(220,318,l),
(184,318,l),
(184,338,l),
(316,338,ls),
(365.333,338,o),
(392,317.333,o),
(412,264,cs),
(511,0,l),
(687,0,l),
(687,28,l),
(674,30,ls),
(634,36.667,o),
(610.333,50.667,o),
(597,84,cs),
(524,258,ls),
(504,306,o),
(476,334.667,o),
(428,352,c),
(518.719,369.701,o),
(587,447.62,o),
(587,527,cs),
(587,627.219,o),
(494.605,700,o),
(349,700,cs),
(20,700,l),
(20,671,l),
(43,669,ls),
(90.333,665,o),
(114,640.333,o),
(114,595,cs),
(114,105,ls),
(114,59.667,o),
(90.333,35,o),
(43,31,cs),
(20,29,l),
(20,0,l),
(314,0,l),
(314,29,l),
(291,31,ls),
(243.667,35,o),
(220,59.667,o),
(220,105,cs)
);
},
{
closed = 1;
nodes = (
(184,659,l),
(333,659,ls),
(422.333,659,o),
(476,605,o),
(476,517,cs),
(476,431.667,o),
(418.333,373,o),
(333,373,cs),
(220,373,l),
(220,639,l),
(184,639,l)
);
}
);
width = 693;
}
);
note = R;
unicode = 82;
},
{
glyphname = S;
kernLeft = S;
kernRight = S;
lastChange = "2023-10-03 16:37:10 +0000";
layers = (
{
layerId = m01;
shapes = (
{
closed = 1;
nodes = (
(428.082,-11,o),
(520,76.258,o),
(520,198,cs),
(520,279.333,o),
(475.333,341,o),
(394,373,cs),
(210,445,ls),
(152.667,467.667,o),
(121,507.667,o),
(121,557,cs),
(121,622.333,o),
(166.333,665,o),
(237,665,cs),
(321,665,o),
(378,618.667,o),
(422,516,cs),
(440,474,l),
(475,474,l),
(472,708,l),
(400,667,l),
(408,659,o),
(423,642,o),
(431,630,c),
(432,593,l),
(389.333,667.667,o),
(321.333,710,o),
(240,710,cs),
(118.351,710,o),
(35,629.729,o),
(35,514,cs),
(35,439.333,o),
(76.333,383,o),
(155,351,cs),
(326,283,ls),
(391.333,257.667,o),
(428,213.667,o),
(428,159,cs),
(428,83,o),
(372.333,34,o),
(283,34,cs),
(198.333,34,o),
(134.333,82,o),
(91,178,cs),
(65,235,l),
(30,235,l),
(33,-9,l),
(107,35,l),
(89.667,49.667,o),
(79.333,59.333,o),
(76,64,c),
(75,98,l),
(131,25.333,o),
(199.667,-11,o),
(281,-11,cs)
);
}
);
width = 545;
}
);
note = S;
unicode = 83;
},
{
glyphname = T;
kernLeft = T;
kernRight = T;
lastChange = "2023-10-03 16:42:02 +0000";
layers = (
{
layerId = m01;
shapes = (
{
closed = 1;
nodes = (
(30,700,l),
(18,480,l),
(51,480,l),
(67,536,ls),
(92.333,622.667,o),
(136.333,659,o),
(215,659,cs),
(277,659,l),
(277,105,ls),
(277,59.667,o),
(253.333,35,o),
(206,31,cs),
(183,29,l),
(183,0,l),
(477,0,l),
(477,29,l),
(454,31,ls),
(406.667,35,o),
(383,59.667,o),
(383,105,cs),
(383,639,l),
(347,639,l),
(347,659,l),
(444,659,ls),
(522.667,659,o),
(566.667,622.667,o),
(592,536,cs),
(608,480,l),
(641,480,l),
(629,700,l)
);
}
);
width = 659;
}
);
note = T;
unicode = 84;
},
{
glyphname = U;
kernLeft = U;
kernRight = J;
lastChange = "2023-10-03 16:37:10 +0000";
layers = (
{
layerId = m01;
shapes = (
{
closed = 1;
nodes = (
(541.505,-11,o),
(649,102.733,o),
(649,283,cs),
(649,584,ls),
(649,634.667,o),
(672,661.333,o),
(720,668,cs),
(743,671,l),
(743,700,l),
(501,700,l),
(501,671,l),
(524,668,ls),
(572,662,o),
(596,634,o),
(596,584,cs),
(596,296,ls),
(596,145.333,o),
(520.333,51,o),
(399,51,cs),
(289.667,51,o),
(219,128.667,o),
(219,250,cs),
(219,595,ls),
(219,640.333,o),
(242.667,665,o),
(290,669,cs),
(313,671,l),
(313,700,l),
(20,700,l),
(20,671,l),
(43,669,ls),
(90.333,665,o),
(114,640.333,o),
(114,595,cs),
(114,230,ls),
(114,82.367,o),
(213.623,-11,o),
(372,-11,cs)
);
}
);
width = 763;
}
);
note = U;
unicode = 85;
},
{
glyphname = V;
kernLeft = V;
kernRight = V;
lastChange = "2023-10-03 16:42:25 +0000";
layers = (
{
layerId = m01;
shapes = (
{
closed = 1;
nodes = (
(201,598,ls),
(197,609.333,o),
(195,619,o),
(195,627,cs),
(195,651,o),
(210.667,666.333,o),
(240,669,cs),
(257,671,l),
(257,700,l),
(6,700,l),
(6,673,l),
(47.333,663.667,o),
(70,643.667,o),
(90,597,cs),
(359,-33,l),
(361,-33,l),
(628,589,ls),
(648,635,o),
(677,663,o),
(715,673,c),
(715,700,l),
(511,700,l),
(511,671,l),
(528,669,ls),
(563.333,665,o),
(581,648.333,o),
(581,619,cs),
(581,604.333,o),
(576.667,587.333,o),
(568,568,cs),
(375,119,l),
(364,144,l),
(378,177,l)
);
}
);
width = 721;
}
);
note = V;
unicode = 86;
},
{
glyphname = W;
kernLeft = V;
kernRight = V;
lastChange = "2023-10-03 16:42:31 +0000";
layers = (
{
layerId = m01;
shapes = (
{
closed = 1;
nodes = (
(701,195,l),
(550,598,ls),
(546,609.333,o),
(544,619,o),
(544,627,cs),
(544,651,o),
(559,665,o),
(589,669,cs),
(606,671,l),
(606,700,l),
(357,700,l),
(357,673,l),
(401,663.667,o),
(423.333,642.333,o),
(442,597,cs),
(498,462,l),
(363,124,l),
(352,149,l),
(364,185,l),
(203,598,ls),
(199,609.333,o),
(197,619,o),
(197,627,cs),
(197,651,o),
(212,665,o),
(242,669,cs),
(259,671,l),
(259,700,l),
(10,700,l),
(10,673,l),
(54,662.333,o),
(77.667,642.333,o),
(95,597,cs),
(347,-36,l),
(349,-36,l),
(522,402,l),
(684,-36,l),
(686,-36,l),
(926,589,ls),
(942,633,o),
(972.333,662.333,o),
(1011,673,c),
(1011,700,l),
(806,700,l),
(806,671,l),
(823,669,ls),
(859,665,o),
(875,649.667,o),
(875,619,cs),
(875,605.667,o),
(871.333,588.667,o),
(864,568,cs),
(701,133,l),
(688,160,l)
);
}
);
width = 1021;
}
);
note = W;
unicode = 87;
},
{
glyphname = X;
kernLeft = X;
kernRight = K;
lastChange = "2023-10-03 16:42:36 +0000";
layers = (
{
layerId = m01;
shapes = (
{
closed = 1;
nodes = (
(221,29,l),
(200,31,ls),
(176,32.333,o),
(163,44.667,o),
(163,62,cs),
(163,74.667,o),
(169,89,o),
(181,105,cs),
(358,337,l),
(371,317,l),
(349,288,l),
(467,105,ls),
(477,90.333,o),
(482,76.667,o),
(482,64,cs),
(482,45.333,o),
(469,32.333,o),
(445,31,cs),
(424,29,l),
(424,0,l),
(701,0,l),
(701,29,l),
(651.667,35.667,o),
(623,57,o),
(591,105,cs),
(399,399,l),
(548,595,ls),
(582.667,639,o),
(614.667,661.667,o),
(664,671,c),
(664,700,l),
(452,700,l),
(452,671,l),
(473,669,ls),
(498.333,667.667,o),
(511,655,o),
(511,639,cs),
(511,626.333,o),
(504.667,611.667,o),
(492,595,cs),
(349,411,l),
(336,429,l),
(358,458,l),
(270,595,ls),
(260,611,o),
(255,625,o),
(255,637,cs),
(255,656.333,o),
(267.333,667,o),
(292,669,cs),
(313,671,l),
(313,700,l),
(41,700,l),
(41,671,l),
(89,661.667,o),
(116.667,640.333,o),
(146,595,cs),
(306,346,l),
(126,105,ls),
(92.667,62.333,o),
(61,39.667,o),
(9,29,c),
(9,0,l),
(221,0,l)
);
}
);
width = 720;
}
);
note = X;
unicode = 88;
},
{
glyphname = Y;
kernLeft = Y;
kernRight = Y;
lastChange = "2023-10-03 16:37:10 +0000";
layers = (
{
layerId = m01;
shapes = (
{
closed = 1;
nodes = (
(369,312,l),
(356,327,l),
(376,357,l),
(223,588,ls),
(213,604,o),
(208,618,o),
(208,630,cs),
(208,651.333,o),
(221.667,665.333,o),
(247,668,cs),
(272,671,l),
(272,700,l),
(21,700,l),
(21,673,l),
(49,667.667,o),
(71,649,o),
(95,613,cs),
(314,285,l),
(314,105,ls),
(314,59.667,o),
(290.333,35,o),
(243,31,cs),
(220,29,l),
(220,0,l),
(511,0,l),
(511,29,l),
(488,31,ls),
(440.667,35,o),
(417,59.667,o),
(417,105,cs),
(417,313,l),
(610,599,ls),
(639.333,643,o),
(664.333,665,o),
(695,673,c),
(695,700,l),
(486,700,l),
(486,671,l),
(503,669,ls),
(539.667,665,o),
(558,649.667,o),
(558,623,cs),
(558,606.333,o),
(550.667,587.333,o),
(536,566,cs)
);
}
);
width = 716;
}
);
note = Y;
unicode = 89;
},
{
glyphname = Z;
kernLeft = Z;
kernRight = Z;
lastChange = "2023-10-03 16:42:46 +0000";
layers = (
{
layerId = m01;
shapes = (
{
closed = 1;
nodes = (
(420,640,l),
(13,0,l),
(561,0,l),
(593,249,l),
(560,249,l),
(542,184,ls),
(515.333,85.333,o),
(464.333,41,o),
(383,41,cs),
(120,41,l),
(132,60,l),
(165,60,l),
(573,700,l),
(56,700,l),
(44,456,l),
(76,456,l),
(98,535,ls),
(122,621.667,o),
(165.667,659,o),
(243,659,cs),
(466,659,l),
(454,640,l)
);
}
);
width = 610;
}
);
note = Z;
unicode = 90;
},
{
glyphname = bracketleft;
lastChange = "2023-10-03 16:42:53 +0000";
layers = (
{
layerId = m01;
shapes = (
{
closed = 1;
nodes = (
(175,-157,l),
(175,682,l),
(143,682,l),
(143,700,l),
(333,700,l),
(333,735,l),
(75,735,l),
(75,-210,l),
(333,-210,l),
(333,-175,l),
(143,-175,l),
(143,-157,l)
);
}
);
width = 363;
}
);
note = bracketleft;
unicode = 91;
},
{
glyphname = backslash;
kernLeft = asterisk;
kernRight = backslash;
lastChange = "2023-10-03 16:42:58 +0000";
layers = (
{
layerId = m01;
shapes = (
{
closed = 1;
nodes = (
(17,700,l),
(416,-231,l),
(452,-231,l),
(53,700,l)
);
}
);
width = 370;
}
);
note = backslash;
unicode = 92;
},
{
glyphname = bracketright;
lastChange = "2023-10-03 16:43:02 +0000";
layers = (
{
layerId = m01;
shapes = (
{
closed = 1;
nodes = (
(188,682,l),
(188,-157,l),
(220,-157,l),
(220,-175,l),
(30,-175,l),
(30,-210,l),
(288,-210,l),
(288,735,l),
(30,735,l),
(30,700,l),
(220,700,l),
(220,682,l)
);
}
);
width = 363;
}
);
note = bracketright;
unicode = 93;
},
{
glyphname = asciicircum;
lastChange = "2023-10-03 16:43:08 +0000";
layers = (
{
layerId = m01;
shapes = (
{
closed = 1;
nodes = (
(267,700,l),
(39,354,l),
(90,354,l),
(285,646,l),
(480,354,l),
(531,354,l),
(303,700,l)
);
}
);
width = 570;
}
);
note = asciicircum;
unicode = 94;
},
{
glyphname = underscore;
lastChange = "2023-10-03 16:43:17 +0000";
layers = (
{
layerId = m01;
shapes = (
{
closed = 1;
nodes = (
(-1,-115,l),
(-1,-155,l),
(447,-155,l),
(447,-115,l)
);
}
);
width = 446;
}
);
note = underscore;
unicode = 95;
},
{
glyphname = quoteleft;
kernLeft = quotedbl;
kernRight = quotedbl;
lastChange = "2023-10-03 16:37:10 +0000";
layers = (
{
layerId = m01;
shapes = (
{
closed = 1;
nodes = (
(197,707,l),
(111.667,677.667,o),
(56,609.667,o),
(56,535,cs),
(56,484.333,o),
(82.667,451,o),
(124,451,cs),
(158.667,451,o),
(185,476.333,o),
(185,511,cs),
(185,541.667,o),
(161.333,567,o),
(132,567,cs),
(124,567,o),
(117,565.667,o),
(113,563,c),
(113,539,l),
(97,539,l),
(97,558,ls),
(97,614,o),
(137,671.667,o),
(201,701,c)
);
}
);
width = 238;
}
);
note = quoteleft;
unicode = 8216;
},
{
glyphname = a;
kernLeft = a;
kernRight = a;
lastChange = "2023-10-03 16:43:25 +0000";
layers = (
{
layerId = m01;
shapes = (
{
closed = 1;
nodes = (
(317,59,l),
(318.333,17.667,o),
(344.667,-6,o),
(390,-6,cs),
(428.667,-6,o),
(472.667,25.667,o),
(490,67,c),
(488,68,l),
(472,53.333,o),
(458,48,o),
(438,48,cs),
(419.333,48,o),
(406,60.667,o),
(406,82,cs),
(406,336,ls),
(406,429.333,o),
(344.333,480,o),
(231,480,cs),
(133.309,480,o),
(53,422.391,o),
(53,362,cs),
(53,332.667,o),
(74.667,310,o),
(100,310,cs),
(132,310,o),
(152,330,o),
(152,370,cs),
(152,378,o),
(151.667,384,o),
(151,388,c),
(120,388,l),
(125.333,418.667,o),
(170,441,o),
(222,441,cs),
(278,441,o),
(315,400.667,o),
(315,338,cs),
(315,292,l),
(161,240,ls),
(66.333,208,o),
(34,174.333,o),
(34,109,cs),
(34,34.333,o),
(84.333,-10,o),
(167,-10,cs),
(228.333,-10,o),
(271.333,17.667,o),
(330,107,cs),
(340,122,l),
(340,95,l)
);
},
{
closed = 1;
nodes = (
(125,174,o),
(148,201.333,o),
(212,224,cs),
(315,260,l),
(315,126,l),
(287,76.667,o),
(242.333,43,o),
(201,43,cs),
(155.667,43,o),
(125,75.333,o),
(125,122,cs)
);
}
);
width = 501;
}
);
note = a;
unicode = 97;
},
{
glyphname = b;
kernLeft = b;
kernRight = b;
lastChange = "2023-10-03 16:37:10 +0000";
layers = (
{
layerId = m01;
shapes = (
{
closed = 1;
nodes = (
(420.706,-10,o),
(517,107.757,o),
(517,254,cs),
(517,384.993,o),
(436.176,480,o),
(323,480,cs),
(260.333,480,o),
(209.333,446.667,o),
(160,372,cs),
(140,342,l),
(140,373,l),
(171,419,l),
(171,725,l),
(-3,683,l),
(33,668,ls),
(69,653.333,o),
(79,640.667,o),
(79,614,cs),
(79,-11,l),
(154,25,l),
(189.333,1.667,o),
(229.333,-10,o),
(274,-10,cs)
);
},
{
closed = 1;
nodes = (
(171,348,l),
(196.333,386.667,o),
(241.333,417,o),
(280,417,cs),
(361.333,417,o),
(417,340.333,o),
(417,231,cs),
(417,111,o),
(358.667,30,o),
(272,30,cs),
(238.667,30,o),
(200.333,45.333,o),
(171,68,c)
);
}
);
width = 550;
}
);
note = b;
unicode = 98;
},
{
glyphname = c;
kernLeft = c;
kernRight = c;
lastChange = "2023-10-03 16:37:10 +0000";
layers = (
{
layerId = m01;
shapes = (
{
closed = 1;
nodes = (
(417,135,l),
(378.333,75,o),
(339.667,53,o),
(273,53,cs),
(192.308,53,o),
(128,133.344,o),
(128,255,cs),
(128,371,o),
(176.333,440,o),
(255,440,cs),
(304.333,440,o),
(339,418.333,o),
(343,385,c),
(322,385,l),
(320.667,375.667,o),
(320,369,o),
(320,365,cs),
(320,330.333,o),
(339.667,311,o),
(373,311,cs),
(401,311,o),
(423,333.667,o),
(423,363,cs),
(423,424.147,o),
(354.274,481,o),
(259,481,cs),
(129.746,481,o),
(30,370.523,o),
(30,228,cs),
(30,83.309,o),
(124.84,-10,o),
(250,-10,cs),
(330,-10,o),
(397.667,47.333,o),
(419,134,c)
);
}
);
width = 442;
}
);
note = c;
unicode = 99;
},
{
glyphname = d;
kernLeft = c;
kernRight = d;
lastChange = "2023-10-03 16:37:10 +0000";
layers = (
{
layerId = m01;
shapes = (
{
closed = 1;
nodes = (
(289,-10,o),
(344.333,28,o),
(393,104,cs),
(410,130,l),
(410,100,l),
(379,52,l),
(379,-6,l),
(554,18,l),
(516,35,ls),
(482.667,49.667,o),
(471,64.667,o),
(471,98,cs),
(471,725,l),
(297,683,l),
(333,668,ls),
(369,653.333,o),
(379,640.667,o),
(379,614,cs),
(379,459,l),
(351,473,o),
(316.667,480,o),
(276,480,cs),
(129.294,480,o),
(33,362.243,o),
(33,216,cs),
(33,85.007,o),
(113.824,-10,o),
(227,-10,cs)
);
},
{
closed = 1;
nodes = (
(133,359,o),
(191.333,440,o),
(278,440,cs),
(312.667,440,o),
(352.333,422,o),
(379,398,c),
(379,122,l),
(355,83.333,o),
(308.667,53,o),
(270,53,cs),
(188.667,53,o),
(133,129.667,o),
(133,239,cs)
);
}
);
width = 570;
}
);
note = d;
unicode = 100;
},
{
glyphname = e;
kernLeft = c;
kernRight = e;
lastChange = "2023-10-03 16:43:46 +0000";
layers = (
{
layerId = m01;
shapes = (
{
closed = 1;
nodes = (
(438,266,l),
(442.1,393.091,o),
(363.995,480,o),
(248,480,cs),
(135.412,480,o),
(30,375.392,o),
(30,229,cs),
(30,81.809,o),
(126.167,-10,o),
(260,-10,cs),
(344,-10,o),
(411.667,47.333,o),
(429,134,c),
(427,135,l),
(396.333,79.667,o),
(346.667,52,o),
(278,52,cs),
(191.261,52,o),
(128.996,133.226,o),
(127,247,c),
(95,247,l),
(95,266,l)
);
},
{
closed = 1;
nodes = (
(138.333,390.333,o),
(178.333,440,o),
(241,440,cs),
(298.333,440,o),
(340,382.333,o),
(340,301,c),
(129,301,l)
);
}
);
width = 473;
}
);
note = e;
unicode = 101;
},
{
glyphname = f;
kernLeft = f;
kernRight = f;
lastChange = "2023-10-03 16:43:55 +0000";
layers = (
{
layerId = m01;
shapes = (
{
closed = 1;
nodes = (
(94,95,ls),
(94,54.333,o),
(74.667,32,o),
(36,28,cs),
(15,26,l),
(15,0,l),
(262,0,l),
(262,26,l),
(239,28,ls),
(203.667,31.333,o),
(186,53.667,o),
(186,95,cs),
(186,411,l),
(152,411,l),
(152,430,l),
(314,430,l),
(314,470,l),
(186,470,l),
(186,571,ls),
(186,644.333,o),
(220.667,685,o),
(282,685,cs),
(318,685,o),
(338,673.333,o),
(338,652,c),
(318,652,l),
(317.333,648.667,o),
(317,643.667,o),
(317,637,cs),
(317,605,o),
(337.333,582,o),
(368,582,cs),
(396,582,o),
(416,603.667,o),
(416,633,cs),
(416,681,o),
(359.667,718,o),
(289,718,cs),
(172.505,718,o),
(94,629.773,o),
(94,500,cs),
(94,470,l),
(16,470,l),
(16,430,l),
(94,430,l)
);
}
);
width = 330;
}
);
note = f;
unicode = 102;
},
{
glyphname = g;
kernLeft = g;
kernRight = g;
lastChange = "2023-10-03 16:37:10 +0000";
layers = (
{
layerId = m01;
shapes = (
{
closed = 1;
nodes = (
(374,-242,o),
(477,-179.667,o),
(477,-81,cs),
(477,-11.667,o),
(429.667,21.667,o),
(323,27,cs),
(178,36,ls),
(132.667,38.667,o),
(110,52,o),
(110,76,cs),
(110,97.333,o),
(135.333,122.667,o),
(170,136,c),
(188,132,o),
(207.667,130,o),
(229,130,cs),
(342.782,130,o),
(421,212.517,o),
(421,308,cs),
(421,360,o),
(399,406.333,o),
(359,437,c),
(388.333,469,o),
(408.667,481,o),
(438,481,c),
(438,465,l),
(425,465,l),
(423.667,459.667,o),
(423,455.667,o),
(423,453,cs),
(423,430.333,o),
(442.667,411,o),
(468,411,cs),
(493.333,411,o),
(514,432.333,o),
(514,459,cs),
(514,492.333,o),
(486.667,518,o),
(448,518,cs),
(406.667,518,o),
(369.333,496,o),
(336,452,c),
(304,470,o),
(268.333,479,o),
(229,479,cs),
(119.459,479,o),
(36,402.348,o),
(36,302,cs),
(36,242,o),
(64.667,190.667,o),
(114,160,c),
(143,171,l),
(162,161,l),
(87.333,134.333,o),
(38,86.333,o),
(38,37,cs),
(38,8.333,o),
(51,-13.333,o),
(77,-28,c),
(112,-13,l),
(136,-20,l),
(116,-29,ls),
(69.333,-49.667,o),
(37.667,-67.333,o),
(21,-82,cs),
(4.333,-96.667,o),
(-4,-113.667,o),
(-4,-133,cs),
(-4,-203.667,o),
(71.333,-242,o),
(210,-242,cs)
);
},
{
closed = 1;
nodes = (
(72,-94.333,o),
(91.333,-70.333,o),
(130,-49,c),
(140.667,-51.667,o),
(153.667,-53.667,o),
(169,-55,cs),
(348,-68,ls),
(383.333,-70,o),
(401,-85.333,o),
(401,-114,cs),
(401,-168.667,o),
(337.667,-202,o),
(231,-202,cs),
(131,-202,o),
(72,-171.667,o),
(72,-121,cs)
);
},
{
closed = 1;
nodes = (
(132,389.333,o),
(167.667,441,o),
(225,441,cs),
(286.333,441,o),
(325,386.667,o),
(325,300,cs),
(325,220,o),
(287.333,167,o),
(230,167,cs),
(170,167,o),
(132,221.333,o),
(132,308,cs)
);
}
);
width = 485;
}
);
note = g;
unicode = 103;
},
{
glyphname = h;
kernLeft = h;
kernRight = a;
lastChange = "2023-10-03 16:37:10 +0000";
layers = (
{
layerId = m01;
shapes = (
{
closed = 1;
nodes = (
(160,348,l),
(160,379,l),
(191,421,l),
(191,725,l),
(17,683,l),
(53,668,ls),
(89,654.667,o),
(99,642.333,o),
(99,613,cs),
(99,95,ls),
(99,54.333,o),
(79.667,32,o),
(41,28,cs),
(20,26,l),
(20,0,l),
(262,0,l),
(262,26,l),
(244,28,ls),
(208.667,32,o),
(191,54.333,o),
(191,95,cs),
(191,354,l),
(221.667,394,o),
(262.667,418,o),
(304,418,cs),
(361.333,418,o),
(394,383.667,o),
(394,325,cs),
(394,95,ls),
(394,54.333,o),
(376.333,32,o),
(341,28,cs),
(323,26,l),
(323,0,l),
(565,0,l),
(565,26,l),
(544,28,ls),
(505.333,32,o),
(486,54.333,o),
(486,95,cs),
(486,332,ls),
(486,425.333,o),
(434.667,481,o),
(348,481,cs),
(288,481,o),
(228,443,o),
(180,375,cs)
);
}
);
width = 581;
}
);
note = h;
unicode = 104;
},
{
glyphname = i;
kernLeft = i;
kernRight = d;
lastChange = "2023-10-03 16:44:12 +0000";
layers = (
{
layerId = m01;
shapes = (
{
closed = 1;
nodes = (
(99,575,l),
(197,575,l),
(197,674,l),
(99,674,l)
);
},
{
closed = 1;
nodes = (
(57,418,ls),
(95.667,399.333,o),
(103,390.667,o),
(103,364,cs),
(103,95,ls),
(103,54.333,o),
(83.667,32,o),
(45,28,cs),
(24,26,l),
(24,0,l),
(274,0,l),
(274,26,l),
(253,28,ls),
(214.333,32,o),
(195,54.333,o),
(195,95,cs),
(195,480,l),
(21,435,l)
);
}
);
width = 294;
}
);
note = i;
unicode = 105;
},
{
glyphname = j;
kernLeft = i;
kernRight = j;
lastChange = "2023-10-03 16:44:17 +0000";
layers = (
{
layerId = m01;
shapes = (
{
closed = 1;
nodes = (
(91,585,l),
(189,585,l),
(189,684,l),
(91,684,l)
);
},
{
closed = 1;
nodes = (
(-76,-200.667,o),
(-22.333,-236,o),
(43,-236,cs),
(128.333,-236,o),
(187,-183.667,o),
(187,-105,cs),
(187,480,l),
(13,435,l),
(49,418,ls),
(87.667,399.333,o),
(95,390.667,o),
(95,364,cs),
(95,-141,ls),
(95,-184.333,o),
(77.333,-206,o),
(42,-206,cs),
(11.333,-206,o),
(-4,-196,o),
(-4,-176,c),
(15,-176,l),
(19,-133.333,o),
(1.333,-110,o),
(-32,-110,cs),
(-56,-110,o),
(-76,-131.333,o),
(-76,-158,cs)
);
}
);
width = 266;
}
);
note = j;
unicode = 106;
},
{
glyphname = k;
kernLeft = h;
kernRight = k;
lastChange = "2023-10-03 16:44:22 +0000";
layers = (
{
layerId = m01;
shapes = (
{
closed = 1;
nodes = (
(410,0,l),
(555,0,l),
(555,24,l),
(515,33.333,o),
(489,50.667,o),
(461,92,cs),
(315,302,l),
(386,371,ls),
(419.333,404.333,o),
(474.333,434,o),
(525,446,c),
(525,470,l),
(318,470,l),
(318,444,l),
(338,442,ls),
(358.667,440,o),
(369,431.667,o),
(369,417,cs),
(369,404.333,o),
(360.667,390,o),
(344,374,cs),
(164,199,l),
(164,223,l),
(191,251,l),
(191,725,l),
(17,683,l),
(53,668,ls),
(89,653.333,o),
(99,640.667,o),
(99,614,cs),
(99,95,ls),
(99,54.333,o),
(79.667,32,o),
(41,28,cs),
(20,26,l),
(20,0,l),
(270,0,l),
(270,26,l),
(249,28,ls),
(210.333,32,o),
(191,54.333,o),
(191,95,cs),
(191,181,l),
(250,239,l)
);
}
);
width = 560;
}
);
note = k;
unicode = 107;
},
{
glyphname = l;
kernLeft = h;
kernRight = d;
lastChange = "2023-10-03 16:37:10 +0000";
layers = (
{
layerId = m01;
shapes = (
{
closed = 1;
nodes = (
(99,95,ls),
(99,54.333,o),
(79.667,32,o),
(41,28,cs),
(20,26,l),
(20,0,l),
(270,0,l),
(270,26,l),
(249,28,ls),
(210.333,32,o),
(191,54.333,o),
(191,95,cs),
(191,725,l),
(17,683,l),
(53,668,ls),
(89,653.333,o),
(99,640.667,o),
(99,614,cs)
);
}
);
width = 290;
}
);
note = l;
unicode = 108;
},
{
glyphname = m;
kernLeft = m;
kernRight = a;
lastChange = "2023-10-03 16:37:10 +0000";
layers = (
{
layerId = m01;
shapes = (
{
closed = 1;
nodes = (
(24,26,l),
(24,0,l),
(266,0,l),
(266,26,l),
(248,28,ls),
(212.667,32,o),
(195,54.333,o),
(195,95,cs),
(195,353,l),
(223,394.333,o),
(264.667,418,o),
(306,418,cs),
(362,418,o),
(394,383.667,o),
(394,325,cs),
(394,95,ls),
(394,54.333,o),
(376.333,32,o),
(341,28,cs),
(323,26,l),
(323,0,l),
(565,0,l),
(565,26,l),
(544,28,ls),
(505.333,32,o),
(486,54.333,o),
(486,95,cs),
(486,327,ls),
(486,337.667,o),
(485.667,344.333,o),
(485,347,c),
(515.667,392.333,o),
(557,418,o),
(597,418,cs),
(653,418,o),
(685,383.667,o),
(685,325,cs),
(685,95,ls),
(685,54.333,o),
(667.333,32,o),
(632,28,cs),
(614,26,l),
(614,0,l),
(856,0,l),
(856,26,l),
(835,28,ls),
(796.333,32,o),
(777,54.333,o),
(777,95,cs),
(777,332,ls),
(777,426.667,o),
(726.333,481,o),
(641,481,cs),
(578.333,481,o),
(514.333,440.333,o),
(469,371,cs),
(451,344,l),
(451,375,l),
(470,404,l),
(452.667,453.333,o),
(408.667,481,o),
(350,481,cs),
(288.667,481,o),
(231.667,442.667,o),
(181,372,cs),
(164,348,l),
(164,379,l),
(195,422,l),
(195,480,l),
(21,435,l),
(57,418,ls),
(95.667,399.333,o),
(103,390.667,o),
(103,364,cs),
(103,95,ls),
(103,54.333,o),
(83.667,32,o),
(45,28,cs)
);
}
);
width = 872;
}
);
note = m;
unicode = 109;
},
{
glyphname = n;
kernLeft = m;
kernRight = a;
lastChange = "2023-10-03 16:37:10 +0000";
layers = (
{
layerId = m01;
shapes = (
{
closed = 1;
nodes = (
(103,95,ls),
(103,54.333,o),
(83.667,32,o),
(45,28,cs),
(24,26,l),
(24,0,l),
(266,0,l),
(266,26,l),
(248,28,ls),
(212.667,32,o),
(195,54.333,o),
(195,95,cs),
(195,354,l),
(225.667,394,o),
(266.667,418,o),
(308,418,cs),
(365.333,418,o),
(398,383.667,o),
(398,325,cs),
(398,95,ls),
(398,54.333,o),
(380.333,32,o),
(345,28,cs),
(327,26,l),
(327,0,l),
(569,0,l),
(569,26,l),
(548,28,ls),
(509.333,32,o),
(490,54.333,o),
(490,95,cs),
(490,332,ls),
(490,425.333,o),
(438.667,481,o),
(352,481,cs),
(292,481,o),
(232,443,o),
(184,375,cs),
(164,348,l),
(164,379,l),
(195,421,l),
(195,480,l),
(21,435,l),
(57,418,ls),
(95.667,399.333,o),
(103,390.667,o),
(103,364,cs)
);
}
);
width = 585;
}
);
note = n;
unicode = 110;
},
{
glyphname = o;
kernLeft = c;
kernRight = b;
lastChange = "2023-10-03 16:37:10 +0000";
layers = (
{
layerId = m01;
shapes = (
{
closed = 1;
nodes = (
(127.629,481,o),
(30,372.655,o),
(30,232,cs),
(30,91.886,o),
(125.862,-11,o),
(258,-11,cs),
(380.857,-11,o),
(486,90.253,o),
(486,238,cs),
(486,378.114,o),
(390.138,481,o),
(258,481,cs)
);
},
{
closed = 1;
nodes = (
(130,367.333,o),
(176,439,o),
(252,439,cs),
(333.333,439,o),
(386,353.333,o),
(386,220,cs),
(386,102.667,o),
(339.333,31,o),
(262,31,cs),
(182,31,o),
(130,116.667,o),
(130,250,cs)
);
}
);
width = 516;
}
);
note = o;
unicode = 111;
},
{
glyphname = p;
kernLeft = p;
kernRight = b;
lastChange = "2023-10-03 16:44:46 +0000";
layers = (
{
layerId = m01;
shapes = (
{
closed = 1;
nodes = (
(270,-204,l),
(249,-202,ls),
(210.333,-198,o),
(191,-175.667,o),
(191,-135,cs),
(191,12,l),
(219,-2,o),
(253.333,-9,o),
(294,-9,cs),
(440.706,-9,o),
(537,108.757,o),
(537,255,cs),
(537,385.993,o),
(456.176,481,o),
(343,481,cs),
(281.667,481,o),
(228.667,445,o),
(178,369,cs),
(160,342,l),
(160,375,l),
(191,418,l),
(191,480,l),
(17,435,l),
(53,418,ls),
(91.667,399.333,o),
(99,390.667,o),
(99,364,cs),
(99,-135,ls),
(99,-175.667,o),
(79.667,-198,o),
(41,-202,cs),
(20,-204,l),
(20,-230,l),
(270,-230,l)
);
},
{
closed = 1;
nodes = (
(191,348,l),
(217.667,390.667,o),
(258.667,418,o),
(300,418,cs),
(381.333,418,o),
(437,341.333,o),
(437,232,cs),
(437,112,o),
(378.667,31,o),
(292,31,cs),
(257.333,31,o),
(217.667,49,o),
(191,73,c)
);
}
);
width = 567;
}
);
note = p;
unicode = 112;
},
{
glyphname = q;
kernLeft = c;
kernRight = q;
lastChange = "2023-10-03 16:37:10 +0000";
layers = (
{
layerId = m01;
shapes = (
{
closed = 1;
nodes = (
(410,127,l),
(410,96,l),
(379,48,l),
(379,-135,ls),
(379,-175.667,o),
(359.667,-198,o),
(321,-202,cs),
(300,-204,l),
(300,-230,l),
(550,-230,l),
(550,-204,l),
(529,-202,ls),
(490.333,-198,o),
(471,-175.667,o),
(471,-135,cs),
(471,485,l),
(393,447,l),
(359.667,469,o),
(320.667,480,o),
(276,480,cs),
(129.294,480,o),
(33,362.243,o),
(33,216,cs),
(33,85.007,o),
(113.824,-10,o),
(227,-10,cs),
(288.333,-10,o),
(342.667,25.667,o),
(390,97,cs)
);
},
{
closed = 1;
nodes = (
(133,359,o),
(191.333,440,o),
(278,440,cs),
(311.333,440,o),
(349.667,424.667,o),
(379,402,c),
(379,123,l),
(355,83,o),
(308.667,53,o),
(270,53,cs),
(188.667,53,o),
(133,129.667,o),
(133,239,cs)
);
}
);
width = 550;
}
);
note = q;
unicode = 113;
},
{
glyphname = r;
kernLeft = m;
kernRight = r;
lastChange = "2023-10-03 16:37:10 +0000";
layers = (
{
layerId = m01;
shapes = (
{
closed = 1;
nodes = (
(103,95,ls),
(103,54.333,o),
(83.667,32,o),
(45,28,cs),
(24,26,l),
(24,0,l),
(274,0,l),
(274,26,l),
(250,28,ls),
(213.333,30.667,o),
(195,53,o),
(195,95,cs),
(195,315,l),
(216.333,380.333,o),
(275.667,444.667,o),
(333,442,c),
(333,425,l),
(319,425,l),
(315,422.333,o),
(310,412,o),
(310,404,cs),
(310,373.333,o),
(337,350,o),
(365,350,cs),
(395.667,350,o),
(421,373.667,o),
(421,411,cs),
(421,449.667,o),
(390.333,483,o),
(341,483,cs),
(274.333,483,o),
(206,414.333,o),
(170,313,c),
(170,355,l),
(176.667,369.667,o),
(187,392.667,o),
(195,406,c),
(195,480,l),
(21,435,l),
(57,418,ls),
(95.667,399.333,o),
(103,390.667,o),
(103,364,cs)
);
}
);
width = 433;
}
);
note = r;
unicode = 114;
},
{
glyphname = s;
kernLeft = s;
kernRight = s;
lastChange = "2023-10-03 16:37:10 +0000";
layers = (
{
layerId = m01;
shapes = (
{
closed = 1;
nodes = (
(237.333,437,o),
(282,401.667,o),
(310,339,cs),
(325,306,l),
(359,306,l),
(357,483,l),
(292,458,l),
(302.667,450,o),
(312.667,440.667,o),
(322,430,c),
(322,401,l),
(283.333,451.667,o),
(239.667,478,o),
(181,478,cs),
(98.333,478,o),
(38,423,o),
(38,339,cs),
(38,281.667,o),
(73,239,o),
(137,215,cs),
(237,177,ls),
(282.333,159.667,o),
(306,138,o),
(306,106,cs),
(306,62,o),
(271.667,35,o),
(217,35,cs),
(158.333,35,o),
(112.667,69.333,o),
(82,132,cs),
(64,169,l),
(30,169,l),
(33,-14,l),
(99,18,l),
(91,25.333,o),
(82,34.333,o),
(72,45,c),
(72,73,l),
(114.667,19.667,o),
(161.333,-8,o),
(224,-8,cs),
(315.418,-8,o),
(383,53.915,o),
(383,137,cs),
(383,191.667,o),
(351.333,231.333,o),
(288,256,cs),
(172,302,ls),
(133.333,318,o),
(114,341.667,o),
(114,373,cs),
(114,411.667,o),
(142.667,437,o),
(184,437,cs)
);
}
);
width = 409;
}
);
note = s;
unicode = 115;
},
{
glyphname = t;
kernLeft = t;
kernRight = t;
lastChange = "2023-10-03 16:37:10 +0000";
layers = (
{
layerId = m01;
shapes = (
{
closed = 1;
nodes = (
(174,411,l),
(140,411,l),
(140,430,l),
(306,430,l),
(306,470,l),
(174,470,l),
(174,637,l),
(136.667,558.333,o),
(61.667,471.333,o),
(-1,430,c),
(82,430,l),
(82,91,ls),
(82,32.333,o),
(123.667,-8,o),
(181,-8,cs),
(249.667,-8,o),
(293,35,o),
(311,121,c),
(308,122,l),
(289.333,78,o),
(263.333,57,o),
(226,57,cs),
(195.333,57,o),
(174,76.333,o),
(174,107,cs)
);
}
);
width = 328;
}
);
note = t;
unicode = 116;
},
{
glyphname = u;
kernLeft = u;
kernRight = a;
lastChange = "2023-10-03 16:37:10 +0000";
layers = (
{
layerId = m01;
shapes = (
{
closed = 1;
nodes = (
(187,480,l),
(13,435,l),
(49,418,ls),
(87.667,399.333,o),
(95,390.667,o),
(95,364,cs),
(95,139,ls),
(95,47,o),
(145,-10,o),
(233,-10,cs),
(296.333,-10,o),
(352.667,25.667,o),
(402,97,cs),
(421,124,l),
(421,93,l),
(390,50,l),
(390,-6,l),
(565,18,l),
(527,35,ls),
(493.667,49.667,o),
(482,64.667,o),
(482,98,cs),
(482,480,l),
(308,435,l),
(344,418,ls),
(382.667,399.333,o),
(390,390.667,o),
(390,364,cs),
(390,118,l),
(364.667,80.667,o),
(323.667,53,o),
(277,53,cs),
(217,53,o),
(187,90,o),
(187,146,cs)
);
}
);
width = 581;
}
);
note = u;
unicode = 117;
},
{
glyphname = v;
kernLeft = v;
kernRight = v;
lastChange = "2023-10-03 16:37:10 +0000";
layers = (
{
layerId = m01;
shapes = (
{
closed = 1;
nodes = (
(284,89,l),
(274,110,l),
(289,142,l),
(184,377,ls),
(180,387,o),
(178,395.667,o),
(178,403,cs),
(178,425,o),
(192,438,o),
(220,442,cs),
(235,444,l),
(235,470,l),
(7,470,l),
(7,445,l),
(43,437,o),
(64,418.667,o),
(84,376,cs),
(273,-29,l),
(275,-29,l),
(463,368,ls),
(483,410.667,o),
(509.667,436.333,o),
(543,445,c),
(543,470,l),
(354,470,l),
(354,444,l),
(369,442,ls),
(401.667,437.333,o),
(418,421.667,o),
(418,395,cs),
(418,382.333,o),
(414,367,o),
(406,349,cs)
);
}
);
width = 548;
}
);
note = v;
unicode = 118;
},
{
glyphname = w;
kernLeft = v;
kernRight = v;
lastChange = "2023-10-03 16:46:00 +0000";
layers = (
{
layerId = m01;
shapes = (
{
closed = 1;
nodes = (
(277,154,l),
(186,376,ls),
(182,386,o),
(180,395,o),
(180,403,cs),
(180,424.333,o),
(192,437,o),
(216,441,cs),
(232,443,l),
(232,470,l),
(10,470,l),
(10,445,l),
(48.667,435.667,o),
(69.667,417.667,o),
(87,375,cs),
(260,-28,l),
(262,-28,l),
(391,274,l),
(521,-28,l),
(523,-28,l),
(691,368,ls),
(708.333,408,o),
(736.333,435.667,o),
(771,445,c),
(771,470,l),
(585,470,l),
(585,443,l),
(601,441,ls),
(633,437,o),
(649,422,o),
(649,396,cs),
(649,384,o),
(645,368.333,o),
(637,349,cs),
(532,100,l),
(521,122,l),
(536,157,l),
(447,376,ls),
(443,386,o),
(441,395,o),
(441,403,cs),
(441,423,o),
(454,437,o),
(478,441,cs),
(493,443,l),
(493,470,l),
(282,470,l),
(282,445,l),
(312.667,438.333,o),
(330.333,420.333,o),
(349,375,cs),
(370,328,l),
(273,96,l),
(262,119,l)
);
}
);
width = 782;
}
);
note = w;
unicode = 119;
},
{
glyphname = x;
kernLeft = x;
kernRight = k;
lastChange = "2023-10-03 16:46:05 +0000";
layers = (
{
layerId = m01;
shapes = (
{
closed = 1;
nodes = (
(209,385,ls),
(201,395,o),
(197,404.667,o),
(197,414,cs),
(197,428.667,o),
(207.333,439.667,o),
(226,441,cs),
(241,443,l),
(241,470,l),
(24,470,l),
(24,443,l),
(58.667,431,o),
(75.667,417,o),
(109,373,cs),
(224,223,l),
(112,95,ls),
(68,45.667,o),
(49.333,31,o),
(12,27,c),
(12,0,l),
(196,0,l),
(196,27,l),
(178,28,ls),
(155.333,29.333,o),
(144,39.333,o),
(144,54,cs),
(144,65.333,o),
(149.333,76.667,o),
(160,88,cs),
(272,216,l),
(285,201,l),
(262,174,l),
(328,84,ls),
(334.667,74.667,o),
(338,65.667,o),
(338,57,cs),
(338,41,o),
(325,29.333,o),
(301,28,cs),
(284,27,l),
(284,0,l),
(520,0,l),
(520,27,l),
(482.667,32.333,o),
(468.333,45.333,o),
(431,96,cs),
(307,264,l),
(410,373,ls),
(456.667,422.333,o),
(473,435,o),
(509,443,c),
(509,470,l),
(334,470,l),
(334,443,l),
(352,441,ls),
(372,439.667,o),
(383,428.333,o),
(383,415,cs),
(383,403.667,o),
(377.333,392.333,o),
(366,381,cs),
(259,270,l),
(246,284,l),
(270,310,l)
);
}
);
width = 531;
}
);
note = x;
unicode = 120;
},
{
glyphname = y;
kernLeft = v;
kernRight = v;
lastChange = "2023-10-03 16:37:10 +0000";
layers = (
{
layerId = m01;
shapes = (
{
closed = 1;
nodes = (
(236,6,l),
(201,-67,ls),
(158.333,-157.667,o),
(124,-194,o),
(80,-194,cs),
(67,-194,l),
(67,-179,l),
(79,-179,l),
(83,-177.667,o),
(87,-167,o),
(87,-159,cs),
(87,-132.333,o),
(63.667,-110,o),
(37,-110,cs),
(7.667,-110,o),
(-13,-132.333,o),
(-13,-163,cs),
(-13,-204.333,o),
(21.333,-233,o),
(68,-233,cs),
(133.333,-233,o),
(183.333,-195,o),
(222,-115,cs),
(456,368,ls),
(476.667,410.667,o),
(503.333,436.333,o),
(536,445,c),
(536,470,l),
(347,470,l),
(347,444,l),
(362,442,ls),
(395.333,436.667,o),
(412,421,o),
(412,395,cs),
(412,381.667,o),
(407.667,366.333,o),
(399,349,cs),
(272,82,l),
(261,103,l),
(276,136,l),
(182,377,ls),
(178.667,384.333,o),
(177,393,o),
(177,403,cs),
(177,425,o),
(190.667,438,o),
(218,442,cs),
(233,444,l),
(233,470,l),
(5,470,l),
(5,445,l),
(43.667,435.667,o),
(64.667,417.333,o),
(82,376,cs)
);
}
);
width = 541;
}
);
note = y;
unicode = 121;
},
{
glyphname = z;
kernLeft = z;
kernRight = z;
lastChange = "2023-10-03 16:46:15 +0000";
layers = (
{
layerId = m01;
shapes = (
{
closed = 1;
nodes = (
(296,414,l),
(15,0,l),
(419,0,l),
(439,189,l),
(408,189,l),
(397,149,ls),
(375.667,74.333,o),
(330.667,38,o),
(256,38,cs),
(118,38,l),
(130,56,l),
(160,56,l),
(441,470,l),
(42,470,l),
(36,286,l),
(66,286,l),
(81,338,ls),
(99.667,403.333,o),
(140.667,432,o),
(214,432,cs),
(338,432,l),
(326,414,l)
);
}
);
width = 459;
}
);
note = z;
unicode = 122;
},
{
glyphname = braceleft;
lastChange = "2023-10-03 16:46:25 +0000";
layers = (
{
layerId = m01;
shapes = (
{
closed = 1;
nodes = (
(30,261,l),
(187.333,266.333,o),
(272,334,o),
(272,430,cs),
(272,454,o),
(267.333,477.333,o),
(258,500,cs),
(248,525,ls),
(232,566.333,o),
(224,601,o),
(224,629,cs),
(224,693,o),
(267.333,724.333,o),
(358,727,c),
(355,750,l),
(205.667,750,o),
(123,693,o),
(123,589,cs),
(123,555.667,o),
(130.667,520.333,o),
(146,483,cs),
(154,463,ls),
(166,431.667,o),
(172,406,o),
(172,386,cs),
(172,328.667,o),
(130,293,o),
(30,273,c)
);
},
{
closed = 1;
nodes = (
(147,222.667,o),
(172,191.667,o),
(172,149,cs),
(172,128.333,o),
(166,102.333,o),
(154,71,cs),
(146,51,ls),
(130.667,13.667,o),
(123,-21.667,o),
(123,-55,cs),
(123,-159,o),
(205.667,-216,o),
(355,-216,c),
(358,-193,l),
(267.333,-190.333,o),
(224,-159,o),
(224,-95,cs),
(224,-67,o),
(232,-32.333,o),
(248,9,cs),
(255,27,ls),
(265.667,54.333,o),
(271,80.667,o),
(271,106,cs),
(271,175.333,o),
(229.333,229.333,o),
(140,256,c),
(87,248,l)
);
}
);
width = 383;
}
);
note = braceleft;
unicode = 123;
},
{
glyphname = bar;
lastChange = "2023-10-03 16:46:30 +0000";
layers = (
{
layerId = m01;
shapes = (
{
closed = 1;
nodes = (
(208,700,l),
(162,700,l),
(162,-231,l),
(208,-231,l)
);
}
);
width = 370;
}
);
note = bar;
unicode = 124;
},
{
glyphname = braceright;
lastChange = "2023-10-03 16:46:35 +0000";
layers = (
{
layerId = m01;
shapes = (
{
closed = 1;
nodes = (
(353,273,l),
(195.667,267.667,o),
(111,200,o),
(111,104,cs),
(111,80,o),
(115.667,56.667,o),
(125,34,cs),
(135,9,ls),
(151,-32.333,o),
(159,-67,o),
(159,-95,cs),
(159,-159,o),
(115.667,-190.333,o),
(25,-193,c),
(28,-216,l),
(177.333,-216,o),
(260,-159,o),
(260,-55,cs),
(260,-21.667,o),
(252.333,13.667,o),
(237,51,cs),
(229,71,ls),
(217,102.333,o),
(211,128,o),
(211,148,cs),
(211,205.333,o),
(253,241,o),
(353,261,c)
);
},
{
closed = 1;
nodes = (
(115.667,724.333,o),
(159,693,o),
(159,629,cs),
(159,601,o),
(151,566.333,o),
(135,525,cs),
(128,507,ls),
(117.333,479.667,o),
(112,453.333,o),
(112,428,cs),
(112,358.667,o),
(153.667,304.667,o),
(243,278,c),
(296,286,l),
(236,311.333,o),
(211,342.333,o),
(211,385,cs),
(211,405.667,o),
(217,431.667,o),
(229,463,cs),
(237,483,ls),
(252.333,520.333,o),
(260,555.667,o),
(260,589,cs),
(260,693,o),
(177.333,750,o),
(28,750,c),
(25,727,l)
);
}
);
width = 383;
}
);
note = braceright;
unicode = 125;
},
{
glyphname = asciitilde;
lastChange = "2023-10-03 16:37:10 +0000";
layers = (
{
layerId = m01;
shapes = (
{
closed = 1;
nodes = (
(516,389,l),
(482.667,339.667,o),
(458.667,325,o),
(424,325,cs),
(396,325,o),
(364.333,334,o),
(307,354,cs),
(236.333,378,o),
(196.667,390,o),
(154,390,cs),
(96.667,390,o),
(60.667,346.333,o),
(30,245,c),
(34,245,l),
(67.333,294.333,o),
(91.333,310,o),
(126,310,cs),
(158,310,o),
(194,299,o),
(254,279,cs),
(318,256.333,o),
(357.333,245,o),
(396,245,cs),
(453.333,245,o),
(489.333,289,o),
(520,389,c)
);
}
);
width = 550;
}
);
note = asciitilde;
unicode = 126;
},
{
glyphname = exclamdown;
lastChange = "2023-10-03 16:46:44 +0000";
layers = (
{
layerId = m01;
shapes = (
{
closed = 1;
nodes = (
(176,587,l),
(176,700,l),
(64,700,l),
(64,587,l)
);
},
{
closed = 1;
nodes = (
(61.667,17.667,o),
(88,-12,o),
(120,-12,cs),
(152,-12,o),
(178.333,17.667,o),
(173,59,cs),
(121,513,l),
(119,513,l),
(67,59,l)
);
}
);
width = 240;
}
);
note = exclamdown;
unicode = 161;
},
{
glyphname = cent;
lastChange = "2023-10-03 16:46:49 +0000";
layers = (
{
layerId = m01;
shapes = (
{
closed = 1;
nodes = (
(101,-100,l),
(139,-100,l),
(306,430,l),
(327.333,420.667,o),
(341.667,405,o),
(343,385,c),
(322,385,l),
(320.667,375.667,o),
(320,369,o),
(320,365,cs),
(320,330.333,o),
(339.667,311,o),
(373,311,cs),
(401,311,o),
(423,333.667,o),
(423,363,cs),
(423,412.333,o),
(381.667,454.333,o),
(319,473,c),
(347,560,l),
(311,560,l),
(285,479,l),
(274.333,480.333,o),
(265.667,481,o),
(259,481,cs),
(129.746,481,o),
(30,370.523,o),
(30,228,cs),
(30,134.667,o),
(71,59,o),
(139,19,c)
);
},
{
closed = 1;
nodes = (
(128,371,o),
(176.333,440,o),
(255,440,cs),
(263,440,o),
(269,439.667,o),
(273,439,c),
(169,111,l),
(141.667,149,o),
(128,197,o),
(128,255,cs)
);
},
{
closed = 1;
nodes = (
(207,-7.333,o),
(226.667,-10,o),
(250,-10,cs),
(330,-10,o),
(397.667,47.333,o),
(419,134,c),
(417,135,l),
(379.667,76.333,o),
(337,53,o),
(277,53,cs),
(254.333,53,o),
(233.333,58,o),
(214,68,c),
(191,-2,l)
);
}
);
width = 442;
}
);
note = cent;
unicode = 162;
},
{
glyphname = sterling;
lastChange = "2023-10-03 16:46:56 +0000";
layers = (
{
layerId = m01;
shapes = (
{
closed = 1;
nodes = (
(173,318,l),
(198,239,ls),
(207.333,205.667,o),
(212,176,o),
(212,150,cs),
(212,140.667,o),
(211.667,133.667,o),
(211,129,c),
(177.667,139.667,o),
(148,145,o),
(122,145,cs),
(64.667,145,o),
(25,111.667,o),
(25,65,cs),
(25,19.667,o),
(59.667,-11,o),
(109,-11,cs),
(154.333,-11,o),
(198,13.333,o),
(230,52,c),
(290,10.667,o),
(327,-11,o),
(371,-11,cs),
(447,-11,o),
(498.333,52,o),
(517,164,c),
(511,165,l),
(489.667,111.667,o),
(448.333,81,o),
(395,81,cs),
(368.333,81,o),
(333,88.333,o),
(289,103,c),
(285.667,94.333,o),
(281.333,85.667,o),
(276,77,c),
(254,89,l),
(276.667,131,o),
(288,177.333,o),
(288,228,cs),
(288,258,o),
(284.333,285.667,o),
(277,311,cs),
(268,344,l),
(414,344,l),
(414,386,l),
(257,386,l),
(233,474,ls),
(225.667,498.667,o),
(222,523.667,o),
(222,549,cs),
(222,623.667,o),
(261.667,668,o),
(331,668,cs),
(380.333,668,o),
(418,639.333,o),
(418,602,c),
(390,602,l),
(389.333,598.667,o),
(389,593.667,o),
(389,587,cs),
(389,548.333,o),
(412.333,523,o),
(447,523,cs),
(476.333,523,o),
(499,549.333,o),
(499,584,cs),
(499,649.583,o),
(430.641,705,o),
(331,705,cs),
(205.667,705,o),
(123,632.667,o),
(123,518,cs),
(123,488,o),
(128.333,457,o),
(139,425,cs),
(152,386,l),
(48,386,l),
(48,344,l),
(203,344,l),
(212,318,l)
);
},
{
closed = 1;
nodes = (
(58,92.333,o),
(79.667,112,o),
(109,112,cs),
(134.333,112,o),
(161.333,98.667,o),
(196,76,c),
(178.667,42.667,o),
(148.333,23,o),
(111,23,cs),
(79,23,o),
(58,40.333,o),
(58,67,cs)
);
}
);
width = 540;
}
);
note = sterling;
unicode = 163;
},
{
glyphname = fraction;
lastChange = "2023-10-03 16:47:00 +0000";
layers = (
{
layerId = m01;
shapes = (
{
closed = 1;
nodes = (
(535,700,l),
(489,700,l),
(39,0,l),
(85,0,l)
);
}
);
width = 574;
}
);
note = fraction;
unicode = 8260;
},
{
glyphname = yen;
lastChange = "2023-10-03 16:47:05 +0000";
layers = (
{
layerId = m01;
shapes = (
{
closed = 1;
nodes = (
(511,29,l),
(488,31,ls),
(440.667,35,o),
(417,59.667,o),
(417,105,cs),
(417,178,l),
(584,178,l),
(584,220,l),
(417,220,l),
(417,246,l),
(584,246,l),
(584,288,l),
(417,288,l),
(417,311,l),
(610,599,ls),
(639.333,643,o),
(664.333,665,o),
(695,673,c),
(695,700,l),
(486,700,l),
(486,671,l),
(503,669,ls),
(539.667,665,o),
(558,649.667,o),
(558,623,cs),
(558,606.333,o),
(550.667,587.333,o),
(536,566,cs),
(387,340,l),
(223,588,ls),
(213,604,o),
(208,618,o),
(208,630,cs),
(208,651.333,o),
(221.667,665.333,o),
(247,668,cs),
(272,671,l),
(272,700,l),
(21,700,l),
(21,673,l),
(49,667.667,o),
(71,649,o),
(95,613,cs),
(313,288,l),
(147,288,l),
(147,246,l),
(314,246,l),
(314,220,l),
(147,220,l),
(147,178,l),
(354,178,l),
(354,152,l),
(314,152,l),
(314,105,ls),
(314,59.667,o),
(290.333,35,o),
(243,31,cs),
(220,29,l),
(220,0,l),
(511,0,l)
);
}
);
width = 716;
}
);
note = yen;
unicode = 165;
},
{
glyphname = quotesingle;
kernLeft = quotedbl;
kernRight = quotedbl;
lastChange = "2023-10-03 16:37:10 +0000";
layers = (
{
layerId = m01;
shapes = (
{
closed = 1;
nodes = (
(120,452,l),
(171,621,ls),
(173.667,629,o),
(175,638,o),
(175,648,cs),
(175,684,o),
(153,711,o),
(121,711,cs),
(87.667,711,o),
(65,684,o),
(65,648,cs),
(65,638,o),
(66.333,629,o),
(69,621,cs)
);
}
);
width = 240;
}
);
note = quotesingle;
unicode = 39;
},
{
glyphname = quotedblleft;
kernLeft = quotedbl;
kernRight = quotedbl;
lastChange = "2023-10-03 16:37:10 +0000";
layers = (
{
layerId = m01;
shapes = (
{
closed = 1;
nodes = (
(197,707,l),
(111.667,677.667,o),
(56,609.667,o),
(56,535,cs),
(56,484.333,o),
(82.667,451,o),
(124,451,cs),
(158.667,451,o),
(185,476.333,o),
(185,511,cs),
(185,541.667,o),
(161.333,567,o),
(132,567,cs),
(124,567,o),
(117,565.667,o),
(113,563,c),
(113,539,l),
(97,539,l),
(97,558,ls),
(97,614,o),
(137,671.667,o),
(201,701,c)
);
},
{
closed = 1;
nodes = (
(214,484.333,o),
(240.667,451,o),
(282,451,cs),
(316.667,451,o),
(343,476.333,o),
(343,511,cs),
(343,541.667,o),
(319.333,567,o),
(290,567,cs),
(282,567,o),
(275,565.667,o),
(271,563,c),
(271,539,l),
(255,539,l),
(255,558,ls),
(255,614,o),
(295,671.667,o),
(359,701,c),
(355,707,l),
(269.667,677.667,o),
(214,609.667,o),
(214,535,cs)
);
}
);
width = 396;
}
);
note = quotedblleft;
unicode = 8220;
},
{
glyphname = guillemotleft;
lastChange = "2023-10-03 16:47:24 +0000";
layers = (
{
layerId = m01;
shapes = (
{
closed = 1;
nodes = (
(306,-4,l),
(174,235,l),
(306,474,l),
(306,480,l),
(60,235,l),
(306,-10,l)
);
},
{
closed = 1;
nodes = (
(506,-10,l),
(506,-4,l),
(374,235,l),
(506,474,l),
(506,480,l),
(260,235,l)
);
}
);
width = 580;
}
);
note = guillemotleft;
unicode = 171;
},
{
glyphname = guilsinglleft;
lastChange = "2023-10-03 16:47:29 +0000";
layers = (
{
layerId = m01;
shapes = (
{
closed = 1;
nodes = (
(306,-4,l),
(174,235,l),
(306,474,l),
(306,480,l),
(60,235,l),
(306,-10,l)
);
}
);
width = 380;
}
);
note = guilsinglleft;
unicode = 8249;
},
{
glyphname = guilsinglright;
lastChange = "2023-10-03 16:47:37 +0000";
layers = (
{
layerId = m01;
shapes = (
{
closed = 1;
nodes = (
(74,474,l),
(206,235,l),
(74,-4,l),
(74,-10,l),
(320,235,l),
(74,480,l)
);
}
);
width = 380;
}
);
note = guilsinglright;
unicode = 8250;
},
{
glyphname = fi;
kernLeft = f;
kernRight = d;
lastChange = "2023-10-03 16:47:45 +0000";
layers = (
{
layerId = m01;
shapes = (
{
closed = 1;
nodes = (
(94,95,ls),
(94,54.333,o),
(74.667,32,o),
(36,28,cs),
(15,26,l),
(15,0,l),
(262,0,l),
(262,26,l),
(239,28,ls),
(203.667,31.333,o),
(186,53.667,o),
(186,95,cs),
(186,411,l),
(152,411,l),
(152,430,l),
(314,430,l),
(314,470,l),
(186,470,l),
(186,571,ls),
(186,644.333,o),
(220.667,685,o),
(282,685,cs),
(318,685,o),
(338,673.333,o),
(338,652,c),
(318,652,l),
(317.333,648.667,o),
(317,643.667,o),
(317,637,cs),
(317,605,o),
(337.333,582,o),
(368,582,cs),
(396,582,o),
(416,603.667,o),
(416,633,cs),
(416,681,o),
(359.667,718,o),
(289,718,cs),
(172.505,718,o),
(94,629.773,o),
(94,500,cs),
(94,470,l),
(16,470,l),
(16,430,l),
(94,430,l)
);
},
{
closed = 1;
nodes = (
(387,418,ls),
(425.667,399.333,o),
(433,390.667,o),
(433,364,cs),
(433,95,ls),
(433,54.333,o),
(413.667,32,o),
(375,28,cs),
(354,26,l),
(354,0,l),
(604,0,l),
(604,26,l),
(583,28,ls),
(544.333,32,o),
(525,54.333,o),
(525,95,cs),
(525,480,l),
(351,435,l)
);
},
{
closed = 1;
nodes = (
(527,575,l),
(527,674,l),
(429,674,l),
(429,575,l)
);
}
);
width = 624;
}
);
note = fi;
unicode = 64257;
},
{
glyphname = fl;
kernLeft = f;
kernRight = d;
lastChange = "2023-10-03 16:47:50 +0000";
layers = (
{
layerId = m01;
shapes = (
{
closed = 1;
nodes = (
(94,95,ls),
(94,54.333,o),
(74.667,32,o),
(36,28,cs),
(15,26,l),
(15,0,l),
(262,0,l),
(262,26,l),
(239,28,ls),
(203.667,31.333,o),
(186,53.667,o),
(186,95,cs),
(186,411,l),
(152,411,l),
(152,430,l),
(314,430,l),
(314,470,l),
(186,470,l),
(186,571,ls),
(186,644.333,o),
(220.667,685,o),
(282,685,cs),
(318,685,o),
(338,673.333,o),
(338,652,c),
(318,652,l),
(317.333,648.667,o),
(317,643.667,o),
(317,637,cs),
(317,605,o),
(337.333,582,o),
(368,582,cs),
(396,582,o),
(416,603.667,o),
(416,633,cs),
(416,639.667,o),
(415,646,o),
(413,652,c),
(425,642.667,o),
(429,631.333,o),
(429,614,cs),
(429,95,ls),
(429,54.333,o),
(409.667,32,o),
(371,28,cs),
(350,26,l),
(350,0,l),
(600,0,l),
(600,26,l),
(579,28,ls),
(540.333,32,o),
(521,54.333,o),
(521,95,cs),
(521,725,l),
(382,691,l),
(357.333,709,o),
(326.333,718,o),
(289,718,cs),
(172.505,718,o),
(94,629.773,o),
(94,500,cs),
(94,470,l),
(16,470,l),
(16,430,l),
(94,430,l)
);
}
);
width = 620;
}
);
note = fl;
unicode = 64258;
},
{
glyphname = endash;
kernLeft = plus;
kernRight = plus;
lastChange = "2023-10-03 16:47:54 +0000";
layers = (
{
layerId = m01;
shapes = (
{
closed = 1;
nodes = (
(35,335,l),
(35,295,l),
(483,295,l),
(483,335,l)
);
}
);
width = 518;
}
);
note = endash;
unicode = 8211;
},
{
glyphname = dagger;
lastChange = "2023-10-03 16:37:10 +0000";
layers = (
{
layerId = m01;
shapes = (
{
closed = 1;
nodes = (
(314.333,368,o),
(298,431.333,o),
(298,474,cs),
(298,500,ls),
(298,540,o),
(303.333,569.667,o),
(314,611,cs),
(319.333,636.333,o),
(322,652,o),
(322,658,cs),
(322,684.667,o),
(307.667,700,o),
(285,700,cs),
(262.333,700,o),
(248,684.667,o),
(248,658,cs),
(248,652,o),
(250.667,636.333,o),
(256,611,cs),
(266.667,569.667,o),
(272,540,o),
(272,500,cs),
(272,474,ls),
(272,431.333,o),
(255.667,368,o),
(233,320,c),
(257,185.333,o),
(273.333,1.667,o),
(282,-231,c),
(288,-231,l),
(296.667,1.667,o),
(313,185.333,o),
(337,320,c)
);
},
{
closed = 1;
nodes = (
(72,464.333,o),
(87.333,450,o),
(114,450,cs),
(122,450,o),
(137.333,453,o),
(160,459,cs),
(195.333,469,o),
(226,475,o),
(252,477,c),
(253.333,483.667,o),
(253.333,490.333,o),
(252,497,c),
(226,499,o),
(195.333,505,o),
(160,515,cs),
(137.333,521,o),
(122,524,o),
(114,524,cs),
(87.333,524,o),
(72,509.667,o),
(72,487,cs)
);
},
{
closed = 1;
nodes = (
(344,475,o),
(374.667,469,o),
(410,459,cs),
(432.667,453,o),
(448,450,o),
(456,450,cs),
(482.667,450,o),
(498,464.333,o),
(498,487,cs),
(498,509.667,o),
(482.667,524,o),
(456,524,cs),
(448,524,o),
(432.667,521,o),
(410,515,cs),
(374.667,505,o),
(344,499,o),
(318,497,c),
(316.667,490.333,o),
(316.667,483.667,o),
(318,477,c)
);
}
);
width = 570;
}
);
note = dagger;
unicode = 8224;
},
{
glyphname = daggerdbl;
lastChange = "2023-10-03 16:37:10 +0000";
layers = (
{
layerId = m01;
shapes = (
{
closed = 1;
nodes = (
(298,236,ls),
(298,289.333,o),
(316.333,333,o),
(347,365,c),
(319,391.667,o),
(298,434,o),
(298,474,cs),
(298,500,ls),
(298,540,o),
(303.333,569.667,o),
(314,611,cs),
(319.333,636.333,o),
(322,652,o),
(322,658,cs),
(322,684.667,o),
(307.667,700,o),
(285,700,cs),
(262.333,700,o),
(248,684.667,o),
(248,658,cs),
(248,652,o),
(250.667,636.333,o),
(256,611,cs),
(266.667,569.667,o),
(272,540,o),
(272,500,cs),
(272,474,ls),
(272,434,o),
(251,391.667,o),
(223,365,c),
(253.667,333,o),
(272,289.333,o),
(272,236,cs),
(272,233,ls),
(272,179.667,o),
(253.667,136,o),
(223,104,c),
(251,77.333,o),
(272,35,o),
(272,-5,cs),
(272,-31,ls),
(272,-71,o),
(266.667,-100.667,o),
(256,-142,cs),
(250.667,-167.333,o),
(248,-183,o),
(248,-189,cs),
(248,-215.667,o),
(262.333,-231,o),
(285,-231,cs),
(307.667,-231,o),
(322,-215.667,o),
(322,-189,cs),
(322,-183,o),
(319.333,-167.333,o),
(314,-142,cs),
(303.333,-100.667,o),
(298,-71,o),
(298,-31,cs),
(298,-5,ls),
(298,35,o),
(319,77.333,o),
(347,104,c),
(316.333,136,o),
(298,179.667,o),
(298,233,cs)
);
},
{
closed = 1;
nodes = (
(72,-40.667,o),
(87.333,-55,o),
(114,-55,cs),
(122,-55,o),
(137.333,-52,o),
(160,-46,cs),
(195.333,-36,o),
(226,-30,o),
(252,-28,c),
(253.333,-21.333,o),
(253.333,-14.667,o),
(252,-8,c),
(226,-6,o),
(195.333,0,o),
(160,10,cs),
(137.333,16,o),
(122,19,o),
(114,19,cs),
(87.333,19,o),
(72,4.667,o),
(72,-18,cs)
);
},
{
closed = 1;
nodes = (
(72,464.333,o),
(87.333,450,o),
(114,450,cs),
(122,450,o),
(137.333,453,o),
(160,459,cs),
(195.333,469,o),
(226,475,o),
(252,477,c),
(253.333,483.667,o),
(253.333,490.333,o),
(252,497,c),
(226,499,o),
(195.333,505,o),
(160,515,cs),
(137.333,521,o),
(122,524,o),
(114,524,cs),
(87.333,524,o),
(72,509.667,o),
(72,487,cs)
);
},
{
closed = 1;
nodes = (
(344,-30,o),
(374.667,-36,o),
(410,-46,cs),
(432.667,-52,o),
(448,-55,o),
(456,-55,cs),
(482.667,-55,o),
(498,-40.667,o),
(498,-18,cs),
(498,4.667,o),
(482.667,19,o),
(456,19,cs),
(448,19,o),
(432.667,16,o),
(410,10,cs),
(374.667,0,o),
(344,-6,o),
(318,-8,c),
(316.667,-14.667,o),
(316.667,-21.333,o),
(318,-28,c)
);
},
{
closed = 1;
nodes = (
(344,475,o),
(374.667,469,o),
(410,459,cs),
(432.667,453,o),
(448,450,o),
(456,450,cs),
(482.667,450,o),
(498,464.333,o),
(498,487,cs),
(498,509.667,o),
(482.667,524,o),
(456,524,cs),
(448,524,o),
(432.667,521,o),
(410,515,cs),
(374.667,505,o),
(344,499,o),
(318,497,c),
(316.667,490.333,o),
(316.667,483.667,o),
(318,477,c)
);
}
);
width = 570;
}
);
note = daggerdbl;
unicode = 8225;
},
{
glyphname = periodcentered;
lastChange = "2023-10-03 16:48:09 +0000";
layers = (
{
layerId = m01;
shapes = (
{
closed = 1;
nodes = (
(64,407,l),
(64,294,l),
(176,294,l),
(176,407,l)
);
}
);
width = 240;
}
);
note = periodcentered;
unicode = 183;
},
{
glyphname = paragraph;
lastChange = "2023-10-03 16:48:24 +0000";
layers = (
{
layerId = m01;
shapes = (
{
closed = 1;
nodes = (
(432,659,l),
(432,-250,l),
(493,-250,l),
(493,595,ls),
(493,640.333,o),
(516.667,665,o),
(564,669,cs),
(587,671,l),
(587,700,l),
(293,700,ls),
(123.327,700,o),
(20,608.576,o),
(20,467,cs),
(20,321.478,o),
(126.209,223,o),
(292,223,c),
(292,-250,l),
(353,-250,l),
(353,624,l),
(310,624,l),
(310,659,l)
);
}
);
width = 617;
}
);
note = paragraph;
unicode = 182;
},
{
glyphname = bullet;
lastChange = "2023-10-03 16:48:28 +0000";
layers = (
{
layerId = m01;
shapes = (
{
closed = 1;
nodes = (
(64,426,l),
(64,274,l),
(215,274,l),
(215,426,l)
);
}
);
width = 279;
}
);
note = bullet;
unicode = 8226;
},
{
glyphname = quotesinglbase;
kernLeft = comma;
kernRight = comma;
lastChange = "2023-10-03 16:37:10 +0000";
layers = (
{
layerId = m01;
shapes = (
{
closed = 1;
nodes = (
(41,-141,l),
(126.333,-111.667,o),
(182,-43.667,o),
(182,31,cs),
(182,81.667,o),
(155.333,115,o),
(114,115,cs),
(79.333,115,o),
(53,89.667,o),
(53,55,cs),
(53,24.333,o),
(76.667,-1,o),
(106,-1,cs),
(114,-1,o),
(121,0.333,o),
(125,3,c),
(125,27,l),
(141,27,l),
(141,8,ls),
(141,-48,o),
(101,-105.667,o),
(37,-135,c)
);
}
);
width = 238;
}
);
note = quotesinglbase;
unicode = 8218;
},
{
glyphname = quotedblbase;
kernLeft = comma;
kernRight = comma;
lastChange = "2023-10-03 16:37:10 +0000";
layers = (
{
layerId = m01;
shapes = (
{
closed = 1;
nodes = (
(199,-141,l),
(284.333,-111.667,o),
(340,-43.667,o),
(340,31,cs),
(340,81.667,o),
(313.333,115,o),
(272,115,cs),
(237.333,115,o),
(211,89.667,o),
(211,55,cs),
(211,24.333,o),
(234.667,-1,o),
(264,-1,cs),
(272,-1,o),
(279,0.333,o),
(283,3,c),
(283,27,l),
(299,27,l),
(299,8,ls),
(299,-48,o),
(259,-105.667,o),
(195,-135,c)
);
},
{
closed = 1;
nodes = (
(41,-141,l),
(126.333,-111.667,o),
(182,-43.667,o),
(182,31,cs),
(182,81.667,o),
(155.333,115,o),
(114,115,cs),
(79.333,115,o),
(53,89.667,o),
(53,55,cs),
(53,24.333,o),
(76.667,-1,o),
(106,-1,cs),
(114,-1,o),
(121,0.333,o),
(125,3,c),
(125,27,l),
(141,27,l),
(141,8,ls),
(141,-48,o),
(101,-105.667,o),
(37,-135,c)
);
}
);
width = 396;
}
);
note = quotedblbase;
unicode = 8222;
},
{
glyphname = quotedblright;
kernLeft = quotedbl;
kernRight = quotedbl;
lastChange = "2023-10-03 16:37:10 +0000";
layers = (
{
layerId = m01;
shapes = (
{
closed = 1;
nodes = (
(199,455,l),
(284.333,484.333,o),
(340,552.333,o),
(340,627,cs),
(340,677.667,o),
(313.333,711,o),
(272,711,cs),
(237.333,711,o),
(211,685.667,o),
(211,651,cs),
(211,620.333,o),
(234.667,595,o),
(264,595,cs),
(272,595,o),
(279,596.333,o),
(283,599,c),
(283,623,l),
(299,623,l),
(299,604,ls),
(299,548,o),
(259,490.333,o),
(195,461,c)
);
},
{
closed = 1;
nodes = (
(41,455,l),
(126.333,484.333,o),
(182,552.333,o),
(182,627,cs),
(182,677.667,o),
(155.333,711,o),
(114,711,cs),
(79.333,711,o),
(53,685.667,o),
(53,651,cs),
(53,620.333,o),
(76.667,595,o),
(106,595,cs),
(114,595,o),
(121,596.333,o),
(125,599,c),
(125,623,l),
(141,623,l),
(141,604,ls),
(141,548,o),
(101,490.333,o),
(37,461,c)
);
}
);
width = 396;
}
);
note = quotedblright;
unicode = 8221;
},
{
glyphname = guillemotright;
lastChange = "2023-10-03 16:48:45 +0000";
layers = (
{
layerId = m01;
shapes = (
{
closed = 1;
nodes = (
(274,474,l),
(406,235,l),
(274,-4,l),
(274,-10,l),
(520,235,l),
(274,480,l)
);
},
{
closed = 1;
nodes = (
(320,235,l),
(74,480,l),
(74,474,l),
(206,235,l),
(74,-4,l),
(74,-10,l)
);
}
);
width = 580;
}
);
note = guillemotright;
unicode = 187;
},
{
glyphname = ellipsis;
kernLeft = comma;
kernRight = comma;
lastChange = "2023-10-03 16:48:56 +0000";
layers = (
{
layerId = m01;
shapes = (
{
closed = 1;
nodes = (
(64,113,l),
(64,0,l),
(176,0,l),
(176,113,l)
);
},
{
closed = 1;
nodes = (
(416,0,l),
(416,113,l),
(304,113,l),
(304,0,l)
);
},
{
closed = 1;
nodes = (
(656,0,l),
(656,113,l),
(544,113,l),
(544,0,l)
);
}
);
width = 720;
}
);
note = ellipsis;
unicode = 8230;
},
{
glyphname = questiondown;
lastChange = "2023-10-03 16:49:00 +0000";
layers = (
{
layerId = m01;
shapes = (
{
closed = 1;
nodes = (
(296,587,l),
(296,700,l),
(184,700,l),
(184,587,l)
);
},
{
closed = 1;
nodes = (
(19,64.91,o),
(107.11,-10,o),
(237,-10,cs),
(337.611,-10,o),
(426,52.356,o),
(426,127,cs),
(426,156.333,o),
(403.667,181,o),
(377,181,cs),
(347.667,181,o),
(330,159,o),
(330,127,cs),
(330,123,o),
(330.667,117,o),
(332,109,c),
(352,109,l),
(349.333,58.333,o),
(308.333,28,o),
(243,28,cs),
(167,28,o),
(112,81,o),
(112,153,cs),
(112,206.333,o),
(134,252,o),
(178,290,cs),
(231,336,ls),
(264.333,365.333,o),
(279,392.667,o),
(279,426,cs),
(279,466,o),
(251.667,491.667,o),
(213,493,c),
(227.667,484.333,o),
(235,470,o),
(235,450,cs),
(235,424.667,o),
(222,398,o),
(198,382,cs),
(128,331,ls),
(50.667,275,o),
(19,223.667,o),
(19,157,cs)
);
}
);
width = 430;
}
);
note = questiondown;
unicode = 191;
},
{
glyphname = grave;
lastChange = "2023-10-03 16:37:10 +0000";
layers = (
{
layerId = m01;
shapes = (
{
closed = 1;
nodes = (
(321,535,l),
(325,535,l),
(232,671,ls),
(206.667,707,o),
(190.667,720,o),
(164,720,cs),
(134.667,720,o),
(116,700,o),
(116,676,cs),
(116,657.333,o),
(128,638.667,o),
(148,628,cs)
);
}
);
width = 500;
}
);
note = grave;
unicode = 96;
},
{
glyphname = acute;
lastChange = "2023-10-03 16:37:10 +0000";
layers = (
{
layerId = m01;
shapes = (
{
closed = 1;
nodes = (
(179,535,l),
(175,535,l),
(268,671,ls),
(293.333,707,o),
(309.333,720,o),
(336,720,cs),
(365.333,720,o),
(384,700,o),
(384,676,cs),
(384,657.333,o),
(372,638.667,o),
(352,628,cs)
);
}
);
width = 500;
}
);
note = acute;
unicode = 180;
},
{
glyphname = circumflex;
lastChange = "2023-10-03 16:49:13 +0000";
layers = (
{
layerId = m01;
shapes = (
{
closed = 1;
nodes = (
(95,535,l),
(261,643,l),
(297,643,l),
(247,608,l),
(405,535,l),
(409,535,l),
(305,685,l),
(195,685,l),
(91,535,l)
);
}
);
width = 500;
}
);
note = circumflex;
unicode = 710;
},
{
glyphname = tilde;
lastChange = "2023-10-03 16:37:10 +0000";
layers = (
{
layerId = m01;
shapes = (
{
closed = 1;
nodes = (
(427,694,l),
(399,647.333,o),
(374.333,630,o),
(349,630,cs),
(329,630,o),
(305.667,641,o),
(271,661,cs),
(232.333,683.667,o),
(207,695,o),
(183,695,cs),
(133.667,695,o),
(99.667,651.333,o),
(69,550,c),
(73,550,l),
(101,598,o),
(125.667,615,o),
(151,615,cs),
(172.333,615,o),
(194.333,604.333,o),
(233,583,cs),
(271.667,561.667,o),
(294.333,550,o),
(317,550,cs),
(366.333,550,o),
(400.333,592.667,o),
(431,694,c)
);
}
);
width = 500;
}
);
note = tilde;
unicode = 732;
},
{
glyphname = macron;
lastChange = "2023-10-03 16:49:23 +0000";
layers = (
{
layerId = m01;
shapes = (
{
closed = 1;
nodes = (
(97,650,l),
(97,590,l),
(403,590,l),
(403,650,l)
);
}
);
width = 500;
}
);
note = macron;
unicode = 175;
},
{
glyphname = breve;
lastChange = "2023-10-03 16:37:10 +0000";
layers = (
{
layerId = m01;
shapes = (
{
closed = 1;
nodes = (
(115,700,l),
(111.06,607.405,o),
(171.58,545,o),
(250,545,cs),
(328.42,545,o),
(388.94,607.405,o),
(385,700,c),
(381,700,l),
(365,657.333,o),
(318,627,o),
(250,627,cs),
(182,627,o),
(135,657.333,o),
(119,700,c)
);
}
);
width = 500;
}
);
note = breve;
unicode = 728;
},
{
glyphname = dotaccent;
lastChange = "2023-10-03 16:49:32 +0000";
layers = (
{
layerId = m01;
shapes = (
{
closed = 1;
nodes = (
(201,575,l),
(299,575,l),
(299,674,l),
(201,674,l)
);
}
);
width = 500;
}
);
note = dotaccent;
unicode = 729;
},
{
glyphname = dieresis;
lastChange = "2023-10-03 16:49:39 +0000";
layers = (
{
layerId = m01;
shapes = (
{
closed = 1;
nodes = (
(104,575,l),
(202,575,l),
(202,674,l),
(104,674,l)
);
},
{
closed = 1;
nodes = (
(396,575,l),
(396,674,l),
(298,674,l),
(298,575,l)
);
}
);
width = 500;
}
);
note = dieresis;
unicode = 168;
},
{
glyphname = ring;
lastChange = "2023-10-03 16:37:10 +0000";
layers = (
{
layerId = m01;
shapes = (
{
closed = 1;
nodes = (
(194,710,o),
(151,669.667,o),
(151,615,cs),
(151,564.333,o),
(194,523,o),
(250,523,cs),
(306,523,o),
(349,564.333,o),
(349,615,cs),
(349,669.667,o),
(306,710,o),
(250,710,cs)
);
},
{
closed = 1;
nodes = (
(191,649.667,o),
(212.667,674,o),
(250,674,cs),
(287.333,674,o),
(309,649.667,o),
(309,615,cs),
(309,583,o),
(286,558,o),
(250,558,cs),
(214,558,o),
(191,583,o),
(191,615,cs)
);
}
);
width = 500;
}
);
note = ring;
unicode = 730;
},
{
glyphname = cedilla;
lastChange = "2023-10-03 16:50:15 +0000";
layers = (
{
layerId = m01;
shapes = (
{
closed = 1;
nodes = (
(204,-189,l),
(222,-199.667,o),
(243.333,-205,o),
(268,-205,cs),
(328,-205,o),
(372,-173.667,o),
(372,-131,cs),
(372,-104.333,o),
(358.667,-80.333,o),
(308,-51,cs),
(301,-47,l),
(284,-76,l),
(265,-65,l),
(313,18,l),
(280,18,l),
(220,-80,l),
(268,-109,ls),
(287.333,-121,o),
(297,-134,o),
(297,-148,cs),
(297,-170.667,o),
(270,-186,o),
(222,-186,cs),
(204,-185,l)
);
}
);
width = 500;
}
);
note = cedilla;
unicode = 184;
},
{
glyphname = hungarumlaut;
lastChange = "2023-10-03 16:50:20 +0000";
layers = (
{
layerId = m01;
shapes = (
{
closed = 1;
nodes = (
(110,535,l),
(114,535,l),
(268,637,ls),
(286.667,649,o),
(298,667,o),
(298,683,cs),
(298,704.333,o),
(281.667,720,o),
(255,720,cs),
(228.333,720,o),
(210.333,706,o),
(189,670,cs)
);
},
{
closed = 1;
nodes = (
(274,535,l),
(428,637,ls),
(446.667,649,o),
(458,667,o),
(458,683,cs),
(458,704.333,o),
(441.667,720,o),
(415,720,cs),
(388.333,720,o),
(370.333,706,o),
(349,670,cs),
(270,535,l)
);
}
);
width = 500;
}
);
note = hungarumlaut;
unicode = 733;
},
{
glyphname = ogonek;
lastChange = "2023-10-03 16:37:10 +0000";
layers = (
{
layerId = m01;
shapes = (
{
closed = 1;
nodes = (
(320,-151,l),
(301.333,-163,o),
(288,-169,o),
(268,-169,cs),
(234.667,-169,o),
(214,-150.333,o),
(214,-121,cs),
(214,-83.667,o),
(245.333,-38,o),
(308,-6,cs),
(320,0,l),
(300,6,l),
(289,2,ls),
(203.667,-28.667,o),
(152,-87,o),
(152,-139,cs),
(152,-181.667,o),
(182.667,-211,o),
(232,-211,cs),
(272,-211,o),
(307,-191.333,o),
(323,-154,c)
);
}
);
width = 500;
}
);
note = ogonek;
unicode = 731;
},
{
glyphname = caron;
lastChange = "2023-10-03 16:50:31 +0000";
layers = (
{
layerId = m01;
shapes = (
{
closed = 1;
nodes = (
(405,695,l),
(239,587,l),
(203,587,l),
(253,622,l),
(95,695,l),
(91,695,l),
(195,545,l),
(305,545,l),
(409,695,l)
);
}
);
width = 500;
}
);
note = caron;
unicode = 711;
},
{
glyphname = emdash;
kernLeft = plus;
kernRight = plus;
lastChange = "2023-10-03 16:50:35 +0000";
layers = (
{
layerId = m01;
shapes = (
{
closed = 1;
nodes = (
(35,335,l),
(35,295,l),
(633,295,l),
(633,335,l)
);
}
);
width = 668;
}
);
note = emdash;
unicode = 8212;
},
{
glyphname = AE;
kernRight = E;
lastChange = "2023-10-03 16:50:41 +0000";
layers = (
{
layerId = m01;
shapes = (
{
closed = 1;
nodes = (
(170,159,ls),
(126,93.667,o),
(90.5,60.667,o),
(60.5,46,cs),
(45.5,38.667,o),
(27.333,32.333,o),
(6,27,c),
(6,0,l),
(234,0,l),
(234,29,l),
(217,31,ls),
(189.667,34.333,o),
(176,46.333,o),
(176,67,cs),
(176,83,o),
(184.667,104.667,o),
(202,132,cs),
(268,236,l),
(518,236,l),
(518,105,ls),
(518,59.667,o),
(494.333,35,o),
(447,31,cs),
(424,29,l),
(424,0,l),
(991,0,l),
(1023,249,l),
(990,249,l),
(972,184,ls),
(945.333,85.333,o),
(894.333,41,o),
(813,41,cs),
(588,41,l),
(588,61,l),
(624,61,l),
(624,340,l),
(729,340,ls),
(779.667,340,o),
(802.667,318.667,o),
(816,260,cs),
(824,226,l),
(857,226,l),
(857,490,l),
(824,490,l),
(816,456,ls),
(802.667,396,o),
(779.667,375,o),
(729,375,cs),
(624,375,l),
(624,659,l),
(806,659,ls),
(883.333,659,o),
(927,621.667,o),
(951,535,cs),
(973,456,l),
(1005,456,l),
(993,700,l),
(424,700,l),
(424,671,l),
(444,669,ls),
(466,667,o),
(477,658,o),
(477,642,cs),
(477,632,o),
(472.667,620.333,o),
(464,607,cs)
);
},
{
closed = 1;
nodes = (
(526,642,l),
(552,642,l),
(518,589,l),
(518,271,l),
(290,271,l)
);
}
);
width = 1095;
}
);
note = AE;
unicode = 198;
},
{
glyphname = Lslash;
lastChange = "2023-10-03 16:50:57 +0000";
layers = (
{
layerId = m01;
shapes = (
{
closed = 1;
nodes = (
(159,350,l),
(159,324,l),
(114,294,l),
(114,105,ls),
(114,59.667,o),
(90.333,35,o),
(43,31,cs),
(20,29,l),
(20,0,l),
(587,0,l),
(619,249,l),
(586,249,l),
(569,188,ls),
(541,86.667,o),
(490.333,41,o),
(409,41,cs),
(184,41,l),
(184,61,l),
(220,61,l),
(220,390,l),
(350,478,l),
(350,523,l),
(220,435,l),
(220,595,ls),
(220,640.333,o),
(243.667,665,o),
(291,669,cs),
(314,671,l),
(314,700,l),
(20,700,l),
(20,671,l),
(43,669,ls),
(90.333,665,o),
(114,640.333,o),
(114,595,cs),
(114,365,l),
(6,292,l),
(6,247,l)
);
}
);
width = 645;
}
);
note = Lslash;
unicode = 321;
},
{
glyphname = Oslash;
kernLeft = C;
kernRight = D;
lastChange = "2023-10-03 16:51:04 +0000";
layers = (
{
layerId = m01;
shapes = (
{
closed = 1;
nodes = (
(-9,0,l),
(50,0,l),
(133,85,l),
(193,23.667,o),
(276,-11,o),
(364,-11,cs),
(486.667,-11,o),
(595,57.167,o),
(655,168.5,cs),
(685,224.167,o),
(700,286,o),
(700,354,cs),
(700,432,o),
(680.333,501.667,o),
(641,563,c),
(607,529,l),
(595,553,l),
(740,700,l),
(681,700,l),
(599,616,l),
(539,677.333,o),
(456,712,o),
(368,712,cs),
(245.333,712,o),
(137,643.833,o),
(77,532.5,cs),
(47,476.833,o),
(32,415,o),
(32,347,cs),
(32,269,o),
(51.667,199.333,o),
(91,138,c),
(125,172,l),
(137,148,l)
);
},
{
closed = 1;
nodes = (
(146,556.427,o),
(236.837,670,o),
(354,670,cs),
(428.667,670,o),
(492.667,628,o),
(534,552,c),
(177,188,l),
(156.333,240,o),
(146,301,o),
(146,371,cs)
);
},
{
closed = 1;
nodes = (
(553,511,l),
(572.333,457,o),
(582,397,o),
(582,331,cs),
(582,145.573,o),
(491.163,32,o),
(374,32,cs),
(299.333,32,o),
(236.333,73.333,o),
(195,148,c)
);
}
);
width = 731;
}
);
note = Oslash;
unicode = 216;
},
{
glyphname = OE;
kernLeft = C;
kernRight = E;
lastChange = "2023-10-03 16:37:10 +0000";
layers = (
{
layerId = m01;
shapes = (
{
closed = 1;
nodes = (
(983,0,l),
(1015,249,l),
(982,249,l),
(964,184,ls),
(937.333,85.333,o),
(886.333,41,o),
(805,41,cs),
(580,41,l),
(580,61,l),
(616,61,l),
(616,340,l),
(721,340,ls),
(771.667,340,o),
(794.667,318.667,o),
(808,260,cs),
(816,226,l),
(849,226,l),
(849,490,l),
(816,490,l),
(808,456,ls),
(794.667,396,o),
(771.667,375,o),
(721,375,cs),
(616,375,l),
(616,659,l),
(798,659,ls),
(875.333,659,o),
(919,621.667,o),
(943,535,cs),
(965,456,l),
(997,456,l),
(985,700,l),
(411,700,ls),
(267,700,o),
(146.333,637.333,o),
(81,532,cs),
(48.333,479.333,o),
(32,420.333,o),
(32,355,cs),
(32,223,o),
(104,109.667,o),
(220,47,cs),
(278,15.667,o),
(342.333,0,o),
(413,0,cs)
);
},
{
closed = 1;
nodes = (
(149,533.671,o),
(256.632,659,o),
(416,659,cs),
(546,659,l),
(546,639,l),
(510,639,l),
(510,41,l),
(425,41,ls),
(254.62,41,o),
(149,161.184,o),
(149,351,cs)
);
}
);
width = 1056;
}
);
note = OE;
unicode = 338;
},
{
glyphname = ae;
kernLeft = a;
kernRight = e;
lastChange = "2023-10-03 16:51:15 +0000";
layers = (
{
layerId = m01;
shapes = (
{
closed = 1;
nodes = (
(720,266,l),
(724.1,393.091,o),
(645.995,480,o),
(530,480,cs),
(474,480,o),
(421,453.667,o),
(381,411,c),
(358.333,457,o),
(308.333,480,o),
(231,480,cs),
(133.309,480,o),
(53,422.391,o),
(53,362,cs),
(53,332.667,o),
(74.667,310,o),
(100,310,cs),
(132,310,o),
(152,330,o),
(152,370,cs),
(152,378,o),
(151.667,384,o),
(151,388,c),
(120,388,l),
(125.333,418.667,o),
(170,441,o),
(222,441,cs),
(278,441,o),
(315,400.667,o),
(315,338,cs),
(315,292,l),
(161,240,ls),
(66.333,208,o),
(34,174.333,o),
(34,109,cs),
(34,34.333,o),
(84.333,-10,o),
(167,-10,cs),
(232.333,-10,o),
(283,23.333,o),
(339,110,c),
(375,32.667,o),
(448.667,-10,o),
(542,-10,cs),
(626,-10,o),
(693.667,47.333,o),
(711,134,c),
(709,135,l),
(678.333,79.667,o),
(628.667,52,o),
(560,52,cs),
(473.261,52,o),
(410.996,133.226,o),
(409,247,c),
(377,247,l),
(377,266,l)
);
},
{
closed = 1;
nodes = (
(125,174,o),
(148,201.333,o),
(212,224,cs),
(315,260,l),
(315,229,ls),
(315,199,o),
(318.667,171,o),
(326,145,c),
(292.667,79.667,o),
(246.333,43,o),
(201,43,cs),
(155.667,43,o),
(125,75.333,o),
(125,122,cs)
);
},
{
closed = 1;
nodes = (
(420.333,390.333,o),
(460.333,440,o),
(523,440,cs),
(580.333,440,o),
(622,382.333,o),
(622,301,c),
(411,301,l)
);
}
);
width = 755;
}
);
note = ae;
unicode = 230;
},
{
glyphname = dotlessi;
kernLeft = m;
kernRight = q;
lastChange = "2023-10-03 16:37:10 +0000";
layers = (
{
layerId = m01;
shapes = (
{
closed = 1;
nodes = (
(195,480,l),
(21,435,l),
(57,418,ls),
(95.667,399.333,o),
(103,390.667,o),
(103,364,cs),
(103,95,ls),
(103,54.333,o),
(83.667,32,o),
(45,28,cs),
(24,26,l),
(24,0,l),
(274,0,l),
(274,26,l),
(253,28,ls),
(214.333,32,o),
(195,54.333,o),
(195,95,cs)
);
}
);
width = 294;
}
);
note = dotlessi;
unicode = 305;
},
{
glyphname = lslash;
kernLeft = h;
lastChange = "2023-10-03 16:51:26 +0000";
layers = (
{
layerId = m01;
shapes = (
{
closed = 1;
nodes = (
(270,26,l),
(249,28,ls),
(210.333,32,o),
(191,54.333,o),
(191,95,cs),
(191,382,l),
(321,469,l),
(321,514,l),
(191,427,l),
(191,725,l),
(17,683,l),
(53,668,ls),
(89,653.333,o),
(99,640.667,o),
(99,614,cs),
(99,365,l),
(-9,292,l),
(-9,247,l),
(136,345,l),
(136,320,l),
(99,295,l),
(99,95,ls),
(99,54.333,o),
(79.667,32,o),
(41,28,cs),
(20,26,l),
(20,0,l),
(270,0,l)
);
}
);
width = 290;
}
);
note = lslash;
unicode = 322;
},
{
glyphname = oslash;
kernLeft = c;
kernRight = b;
lastChange = "2023-10-03 16:37:10 +0000";
layers = (
{
layerId = m01;
shapes = (
{
closed = 1;
nodes = (
(127.629,481,o),
(30,372.655,o),
(30,232,cs),
(30,180,o),
(42.333,134.333,o),
(67,95,c),
(95,123,l),
(98.333,117,o),
(101.667,111.667,o),
(105,107,c),
(0,0,l),
(56,0,l),
(104,49,l),
(144,10.333,o),
(198,-11,o),
(258,-11,cs),
(388.371,-11,o),
(486,97.345,o),
(486,238,cs),
(486,290,o),
(473.667,335.667,o),
(449,375,c),
(421,347,l),
(417.667,353,o),
(414.333,358.333,o),
(411,363,c),
(516,470,l),
(460,470,l),
(412,421,l),
(372,459.667,o),
(318,481,o),
(258,481,cs)
);
},
{
closed = 1;
nodes = (
(130,367.333,o),
(176,439,o),
(252,439,cs),
(297.333,439,o),
(332.333,412.667,o),
(355,366,c),
(143,147,l),
(134.333,175.667,o),
(130,210,o),
(130,250,cs)
);
},
{
closed = 1;
nodes = (
(371,323,l),
(379.667,294.333,o),
(384,260,o),
(384,220,cs),
(384,102.667,o),
(338,31,o),
(262,31,cs),
(216.667,31,o),
(181.667,57.333,o),
(159,104,c)
);
}
);
width = 516;
}
);
note = oslash;
unicode = 248;
},
{
glyphname = oe;
kernLeft = c;
kernRight = e;
lastChange = "2023-10-03 16:51:33 +0000";
layers = (
{
layerId = m01;
shapes = (
{
closed = 1;
nodes = (
(127.629,481,o),
(30,372.655,o),
(30,232,cs),
(30,91.886,o),
(125.862,-11,o),
(258,-11,cs),
(334,-11,o),
(392.667,27.667,o),
(430,93,c),
(462,26.333,o),
(521.667,-10,o),
(607,-10,cs),
(691,-10,o),
(758.667,47.333,o),
(776,134,c),
(774,135,l),
(743.333,79.667,o),
(693.667,52,o),
(625,52,cs),
(538.261,52,o),
(475.996,133.226,o),
(474,247,c),
(442,247,l),
(442,266,l),
(785,266,l),
(789.1,393.091,o),
(710.995,480,o),
(595,480,cs),
(524.333,480,o),
(467.333,439.667,o),
(434,373,c),
(399.333,441,o),
(339.333,481,o),
(258,481,cs)
);
},
{
closed = 1;
nodes = (
(130,367.333,o),
(176,439,o),
(252,439,cs),
(333.333,439,o),
(386,353.333,o),
(386,220,cs),
(386,102.667,o),
(339.333,31,o),
(262,31,cs),
(182,31,o),
(130,116.667,o),
(130,250,cs)
);
},
{
closed = 1;
nodes = (
(495.333,390.333,o),
(535.333,440,o),
(598,440,cs),
(655.333,440,o),
(697,382.333,o),
(697,301,c),
(486,301,l)
);
}
);
width = 829;
}
);
note = oe;
unicode = 339;
},
{
glyphname = germandbls;
kernLeft = f;
kernRight = s;
lastChange = "2023-10-03 16:37:10 +0000";
layers = (
{
layerId = m01;
shapes = (
{
closed = 1;
nodes = (
(460,514,o),
(482,544.667,o),
(482,594,cs),
(482,667.333,o),
(410,718,o),
(302,718,cs),
(172.667,718,o),
(94,636,o),
(94,500,cs),
(94,470,l),
(16,470,l),
(16,430,l),
(128,430,l),
(128,411,l),
(94,411,l),
(94,95,ls),
(94,54.333,o),
(74.667,32,o),
(36,28,cs),
(15,26,l),
(15,0,l),
(186,0,l),
(186,571,ls),
(186,648.333,o),
(221.333,685,o),
(296,685,cs),
(357.333,685,o),
(396,645.333,o),
(396,584,cs),
(396,534.667,o),
(377.333,498,o),
(336,454,cs),
(297.333,412.667,o),
(286,394.667,o),
(286,368,cs),
(286,337.333,o),
(301.333,314.333,o),
(332,289,cs),
(433,210,ls),
(474.333,176.667,o),
(496,150.333,o),
(496,117,cs),
(496,67.667,o),
(460.667,35,o),
(406,35,cs),
(350,35,o),
(312.333,59.667,o),
(307,101,c),
(335,101,l),
(336.333,110.333,o),
(337,117,o),
(337,121,cs),
(337,154.333,o),
(318,175,o),
(286,175,cs),
(255.333,175,o),
(234,152,o),
(234,116,cs),
(234,50.214,o),
(302.647,-8,o),
(399,-8,cs),
(499.992,-8,o),
(573,56.726,o),
(573,148,cs),
(573,204,o),
(542,248.667,o),
(482,294,cs),
(403,354,ls),
(387.667,365.333,o),
(377.5,373.833,o),
(372.5,379.5,cs),
(367.5,385.167,o),
(365,392.333,o),
(365,401,cs),
(365,407.667,o),
(367.167,414.5,o),
(371.5,421.5,cs),
(375.833,428.5,o),
(384,438,o),
(396,450,cs)
);
}
);
width = 599;
}
);
note = germandbls;
unicode = 223;
},
{
glyphname = uni00B9;
lastChange = "2023-10-03 16:37:10 +0000";
layers = (
{
layerId = m01;
shapes = (
{
closed = 1;
nodes = (
(143,708,l),
(22,677,l),
(43,667,ls),
(65.667,656.333,o),
(71,649.333,o),
(71,632,cs),
(71,380,ls),
(71,359.333,o),
(59,348,o),
(35,346,cs),
(20,345,l),
(20,325,l),
(194,325,l),
(194,345,l),
(178,346,ls),
(154.667,347.333,o),
(143,358.667,o),
(143,380,cs)
);
}
);
width = 214;
}
);
note = uni00B9;
unicode = 185;
},
{
glyphname = trademark;
lastChange = "2023-10-03 16:51:48 +0000";
layers = (
{
layerId = m01;
shapes = (
{
closed = 1;
nodes = (
(15,700,l),
(9,578,l),
(31,578,l),
(40,608,ls),
(53.333,652,o),
(75.333,670,o),
(118,670,cs),
(146,670,l),
(146,395,ls),
(146,371,o),
(132,355,o),
(108,355,cs),
(97,355,l),
(97,330,l),
(262,330,l),
(262,355,l),
(250,355,ls),
(226,355,o),
(212,371,o),
(212,395,cs),
(212,647,l),
(194,647,l),
(194,670,l),
(241,670,ls),
(282.333,670,o),
(307,652,o),
(319,608,cs),
(327,578,l),
(348,578,l),
(342,700,l)
);
},
{
closed = 1;
nodes = (
(496,330,l),
(496,355,l),
(484,356,ls),
(458.667,357.333,o),
(446,373.333,o),
(446,400,cs),
(446,654,l),
(585,315,l),
(586,315,l),
(723,647,l),
(738,647,l),
(725,609,l),
(725,395,ls),
(725,368.333,o),
(713,355,o),
(689,355,cs),
(677,355,l),
(677,330,l),
(841,330,l),
(841,355,l),
(830,355,ls),
(804.667,355,o),
(791,371,o),
(791,395,cs),
(791,636,ls),
(791,660,o),
(804.667,675,o),
(830,675,cs),
(841,675,l),
(841,700,l),
(716,700,l),
(596,397,l),
(585,422,l),
(597,452,l),
(496,700,l),
(369,700,l),
(369,675,l),
(381,674,ls),
(405.667,672,o),
(418,657.333,o),
(418,630,cs),
(418,400,ls),
(418,372.667,o),
(405.667,358,o),
(381,356,cs),
(369,355,l),
(369,330,l)
);
}
);
width = 852;
}
);
note = trademark;
unicode = 8482;
},
{
glyphname = Eth;
kernRight = D;
lastChange = "2023-10-03 16:51:55 +0000";
layers = (
{
layerId = m01;
shapes = (
{
closed = 1;
nodes = (
(698,485.667,o),
(628.833,596.167,o),
(513.5,655.5,cs),
(455.833,685.167,o),
(391,700,o),
(319,700,cs),
(20,700,l),
(20,671,l),
(43,669,ls),
(90.333,665,o),
(114,640.333,o),
(114,595,cs),
(114,375,l),
(20,375,l),
(20,340,l),
(150,340,l),
(150,320,l),
(114,320,l),
(114,105,ls),
(114,59.667,o),
(90.333,35,o),
(43,31,cs),
(20,29,l),
(20,0,l),
(317,0,ls),
(458.333,0,o),
(580.167,67,o),
(647.5,175,cs),
(681.167,229,o),
(698,289,o),
(698,355,cs)
);
},
{
closed = 1;
nodes = (
(184,61,l),
(220,61,l),
(220,340,l),
(314,340,l),
(314,375,l),
(220,375,l),
(220,639,l),
(184,639,l),
(184,659,l),
(314,659,ls),
(473.368,659,o),
(581,533.671,o),
(581,351,cs),
(581,161.184,o),
(475.38,41,o),
(305,41,cs),
(184,41,l)
);
}
);
width = 729;
}
);
note = Eth;
unicode = 208;
},
{
glyphname = onehalf;
lastChange = "2023-10-03 16:52:10 +0000";
layers = (
{
layerId = m01;
shapes = (
{
closed = 1;
nodes = (
(143,708,l),
(22,677,l),
(43,667,ls),
(65.667,656.333,o),
(71,649.333,o),
(71,632,cs),
(71,380,ls),
(71,359.333,o),
(59,348,o),
(35,346,cs),
(20,345,l),
(20,325,l),
(194,325,l),
(194,345,l),
(178,346,ls),
(154.667,347.333,o),
(143,358.667,o),
(143,380,cs)
);
},
{
closed = 1;
nodes = (
(85,0,l),
(535,700,l),
(489,700,l),
(39,0,l)
);
},
{
closed = 1;
nodes = (
(595,0,l),
(612,112,l),
(593,112,l),
(584,91,ls),
(572,64.333,o),
(554.667,53,o),
(524,53,cs),
(436,53,l),
(419,36,l),
(402,36,l),
(541,175,ls),
(581.667,215.667,o),
(602,252.333,o),
(602,285,cs),
(602,338.333,o),
(553.333,380,o),
(476,380,cs),
(401.433,380,o),
(352,331.338,o),
(352,284,cs),
(352,262.667,o),
(367,247,o),
(387,247,cs),
(409.667,247,o),
(423,261.667,o),
(423,283,cs),
(423,286.333,o),
(422.333,291.333,o),
(421,298,c),
(408,298,l),
(410.667,332.667,o),
(430.333,355,o),
(465,355,cs),
(501,355,o),
(525,325,o),
(525,281,cs),
(525,239.667,o),
(509.667,204.333,o),
(463,147,cs),
(346,0,l)
);
}
);
width = 632;
}
);
note = onehalf;
unicode = 189;
},
{
glyphname = Thorn;
lastChange = "2023-10-03 16:52:15 +0000";
layers = (
{
layerId = m01;
shapes = (
{
closed = 1;
nodes = (
(220,555,l),
(220,595,ls),
(220,640.333,o),
(243.667,665,o),
(291,669,cs),
(314,671,l),
(314,700,l),
(20,700,l),
(20,671,l),
(43,669,ls),
(90.333,665,o),
(114,640.333,o),
(114,595,cs),
(114,105,ls),
(114,59.667,o),
(90.333,35,o),
(43,31,cs),
(20,29,l),
(20,0,l),
(314,0,l),
(314,29,l),
(291,31,ls),
(243.667,35,o),
(220,59.667,o),
(220,105,cs),
(220,158,l),
(184,158,l),
(184,178,l),
(345,178,ls),
(491.645,178,o),
(587,262.104,o),
(587,372,cs),
(587,477.563,o),
(492.938,555,o),
(344,555,cs)
);
},
{
closed = 1;
nodes = (
(184,514,l),
(333,514,ls),
(422.333,514,o),
(476,458.667,o),
(476,368,cs),
(476,274.667,o),
(419.667,213,o),
(333,213,cs),
(220,213,l),
(220,494,l),
(184,494,l)
);
}
);
width = 617;
}
);
note = Thorn;
unicode = 222;
},
{
glyphname = onequarter;
lastChange = "2023-10-03 16:52:19 +0000";
layers = (
{
layerId = m01;
shapes = (
{
closed = 1;
nodes = (
(143,708,l),
(22,677,l),
(43,667,ls),
(65.667,656.333,o),
(71,649.333,o),
(71,632,cs),
(71,380,ls),
(71,359.333,o),
(59,348,o),
(35,346,cs),
(20,345,l),
(20,325,l),
(194,325,l),
(194,345,l),
(178,346,ls),
(154.667,347.333,o),
(143,358.667,o),
(143,380,cs)
);
},
{
closed = 1;
nodes = (
(85,0,l),
(535,700,l),
(489,700,l),
(39,0,l)
);
},
{
closed = 1;
nodes = (
(461,105,l),
(461,55,ls),
(461,34.333,o),
(450,23,o),
(428,21,cs),
(417,20,l),
(417,0,l),
(572,0,l),
(572,20,l),
(561,21,ls),
(539,23,o),
(528,34.333,o),
(528,55,cs),
(528,93,l),
(507,93,l),
(507,105,l),
(581,105,l),
(594,204,l),
(575,204,l),
(569,187,ls),
(562.333,169,o),
(548.667,158,o),
(528,154,c),
(528,255,l),
(461,219,l),
(461,153,l),
(347,153,l),
(385,193,o),
(421,234.667,o),
(455,278,cs),
(496.333,327.333,o),
(509.667,356.667,o),
(511,386,c),
(420,367,l),
(420.667,361.667,o),
(421,354,o),
(421,344,cs),
(421,314.667,o),
(411.667,285.333,o),
(393,256,cs),
(368.333,216,o),
(331.333,165.667,o),
(282,105,c)
);
}
);
width = 614;
}
);
note = onequarter;
unicode = 188;
},
{
glyphname = degree;
kernLeft = asterisk;
kernRight = asterisk;
lastChange = "2023-10-03 16:37:10 +0000";
layers = (
{
layerId = m01;
shapes = (
{
closed = 1;
nodes = (
(283.383,394,o),
(354,462.621,o),
(354,552,cs),
(354,641.379,o),
(283.383,710,o),
(195,710,cs),
(111.122,710,o),
(35,645.657,o),
(35,552,cs),
(35,458.343,o),
(111.122,394,o),
(195,394,cs)
);
},
{
closed = 1;
nodes = (
(87,616,o),
(135,666,o),
(195,666,cs),
(253.667,666,o),
(302,616,o),
(302,552,cs),
(302,488,o),
(253.667,438,o),
(195,438,cs),
(135,438,o),
(87,488,o),
(87,552,cs)
);
}
);
width = 389;
}
);
note = degree;
unicode = 176;
},
{
glyphname = thorn;
kernLeft = h;
kernRight = b;
lastChange = "2023-10-03 16:52:27 +0000";
layers = (
{
layerId = m01;
shapes = (
{
closed = 1;
nodes = (
(250,-204,l),
(229,-202,ls),
(190.333,-198,o),
(171,-175.667,o),
(171,-135,cs),
(171,12,l),
(199,-2,o),
(233.333,-9,o),
(274,-9,cs),
(420.706,-9,o),
(517,108.757,o),
(517,255,cs),
(517,385.993,o),
(436.176,481,o),
(323,481,cs),
(261.667,481,o),
(208.667,445,o),
(158,369,cs),
(140,342,l),
(140,375,l),
(171,418,l),
(171,725,l),
(-3,680,l),
(33,663,ls),
(71.667,644.333,o),
(79,635.667,o),
(79,609,cs),
(79,-135,ls),
(79,-175.667,o),
(59.667,-198,o),
(21,-202,cs),
(0,-204,l),
(0,-230,l),
(250,-230,l)
);
},
{
closed = 1;
nodes = (
(171,348,l),
(197.667,390.667,o),
(238.667,418,o),
(280,418,cs),
(361.333,418,o),
(417,341.333,o),
(417,232,cs),
(417,112,o),
(358.667,31,o),
(272,31,cs),
(237.333,31,o),
(197.667,49,o),
(171,73,c)
);
}
);
width = 547;
}
);
note = thorn;
unicode = 254;
},
{
glyphname = threequarters;
lastChange = "2023-10-03 16:52:32 +0000";
layers = (
{
layerId = m01;
shapes = (
{
closed = 1;
nodes = (
(280,505.333,o),
(231.667,556,o),
(161,556,c),
(280,700,l),
(48,700,l),
(35,600,l),
(53,600,l),
(61,618,ls),
(69.667,637.333,o),
(87.333,647,o),
(114,647,cs),
(186,647,l),
(200,662,l),
(217,662,l),
(85,507,l),
(90.333,507.667,o),
(97.667,508,o),
(107,508,cs),
(175,508,o),
(209,481.667,o),
(209,429,cs),
(209,382.333,o),
(180,343,o),
(136,343,cs),
(98.667,343,o),
(78.667,363.333,o),
(76,394,c),
(89,394,l),
(89.667,396.667,o),
(90,401,o),
(90,407,cs),
(90,427,o),
(78,441,o),
(58,441,cs),
(39.333,441,o),
(26,425.667,o),
(26,407,cs),
(26,355,o),
(78,319,o),
(142,319,cs),
(224.667,319,o),
(280,374.667,o),
(280,444,cs)
);
},
{
closed = 1;
nodes = (
(164,0,l),
(614,700,l),
(568,700,l),
(118,0,l)
);
},
{
closed = 1;
nodes = (
(540,105,l),
(540,55,ls),
(540,34.333,o),
(529,23,o),
(507,21,cs),
(496,20,l),
(496,0,l),
(651,0,l),
(651,20,l),
(640,21,ls),
(618,23,o),
(607,34.333,o),
(607,55,cs),
(607,93,l),
(586,93,l),
(586,105,l),
(660,105,l),
(673,204,l),
(654,204,l),
(648,187,ls),
(641.333,169,o),
(627.667,158,o),
(607,154,c),
(607,255,l),
(540,219,l),
(540,153,l),
(426,153,l),
(464,193,o),
(500,234.667,o),
(534,278,cs),
(575.333,327.333,o),
(588.667,356.667,o),
(590,386,c),
(499,367,l),
(499.667,361.667,o),
(500,354,o),
(500,344,cs),
(500,314.667,o),
(490.667,285.333,o),
(472,256,cs),
(447.333,216,o),
(410.333,165.667,o),
(361,105,c)
);
}
);
width = 693;
}
);
note = threequarters;
unicode = 190;
},
{
glyphname = uni00B2;
lastChange = "2023-10-03 16:52:36 +0000";
layers = (
{
layerId = m01;
shapes = (
{
closed = 1;
nodes = (
(66,361,l),
(205,500,ls),
(245.667,540.667,o),
(266,577.333,o),
(266,610,cs),
(266,663.333,o),
(217.333,705,o),
(140,705,cs),
(65.433,705,o),
(16,656.338,o),
(16,609,cs),
(16,587.667,o),
(31,572,o),
(51,572,cs),
(73.667,572,o),
(87,586.667,o),
(87,608,cs),
(87,611.333,o),
(86.333,616.333,o),
(85,623,c),
(72,623,l),
(74.667,657.667,o),
(94.333,680,o),
(129,680,cs),
(165,680,o),
(189,650,o),
(189,606,cs),
(189,564.667,o),
(173.667,529.333,o),
(127,472,cs),
(10,325,l),
(259,325,l),
(276,437,l),
(257,437,l),
(248,416,ls),
(236,389.333,o),
(218.667,378,o),
(188,378,cs),
(100,378,l),
(83,361,l)
);
}
);
width = 296;
}
);
note = uni00B2;
unicode = 178;
},
{
glyphname = registered;
kernLeft = asterisk;
kernRight = asterisk;
lastChange = "2023-10-03 16:52:43 +0000";
layers = (
{
layerId = m01;
shapes = (
{
closed = 1;
nodes = (
(402.061,281,o),
(501,379.939,o),
(501,505,cs),
(501,629.938,o),
(402.058,730,o),
(277,730,cs),
(152.068,730,o),
(52,629.932,o),
(52,505,cs),
(52,379.942,o),
(152.062,281,o),
(277,281,cs)
);
},
{
closed = 1;
nodes = (
(79,615.271,o),
(166.3,702,o),
(277,702,cs),
(387.306,702,o),
(474,615.306,o),
(474,505,cs),
(474,394.694,o),
(387.306,308,o),
(277,308,cs),
(166.3,308,o),
(79,394.729,o),
(79,505,cs)
);
},
{
closed = 1;
nodes = (
(279,378,l),
(279,397,l),
(270,397,ls),
(252,397,o),
(243,406.333,o),
(243,425,cs),
(243,482,l),
(220,482,l),
(220,499,l),
(269,499,ls),
(288.333,499,o),
(300.667,491.333,o),
(306,476,cs),
(342,378,l),
(417,378,l),
(417,395,l),
(411,397,ls),
(393.667,402.333,o),
(388,405.667,o),
(380,423,cs),
(357,474,ls),
(349,492,o),
(337,504,o),
(321,510,c),
(351.667,512.667,o),
(380,543.333,o),
(380,574,cs),
(380,612.667,o),
(344,640,o),
(292,640,cs),
(159,640,l),
(159,620,l),
(167,620,ls),
(183,620,o),
(194,608,o),
(194,592,cs),
(194,425,ls),
(194,407.667,o),
(184.333,397,o),
(167,397,cs),
(159,397,l),
(159,378,l)
);
},
{
closed = 1;
nodes = (
(220,619,l),
(275,619,ls),
(308.333,619,o),
(328,600.667,o),
(328,570,cs),
(328,539.333,o),
(307,519,o),
(275,519,cs),
(243,519,l),
(243,602,l),
(220,602,l)
);
}
);
width = 553;
}
);
note = registered;
unicode = 174;
},
{
glyphname = minus;
kernLeft = plus;
kernRight = plus;
lastChange = "2023-10-03 16:52:48 +0000";
layers = (
{
layerId = m01;
shapes = (
{
closed = 1;
nodes = (
(35,335,l),
(35,295,l),
(483,295,l),
(483,335,l)
);
}
);
width = 518;
}
);
note = minus;
unicode = 8722;
},
{
glyphname = eth;
kernLeft = c;
kernRight = b;
lastChange = "2023-10-03 16:37:10 +0000";
layers = (
{
layerId = m01;
shapes = (
{
closed = 1;
nodes = (
(129,538,l),
(145,502,l),
(490,635,l),
(474,671,l),
(319,611,l),
(262.333,658.333,o),
(200,691.333,o),
(132,710,c),
(129,698,l),
(177,684.667,o),
(230.667,648.667,o),
(276,594,c)
);
},
{
closed = 1;
nodes = (
(30,91.886,o),
(125.862,-11,o),
(258,-11,cs),
(389.594,-11,o),
(486,101.26,o),
(486,277,cs),
(486,381,o),
(441,484.667,o),
(365,566,c),
(311,545,l),
(332.333,513,o),
(349.667,478.333,o),
(363,441,c),
(331,467.667,o),
(294.667,481,o),
(254,481,cs),
(128.46,481,o),
(30,370.617,o),
(30,232,cs)
);
},
{
closed = 1;
nodes = (
(130,371.333,o),
(177,439,o),
(265,439,cs),
(313,439,o),
(359.333,414,o),
(386,358,c),
(392.667,320,o),
(396,283.333,o),
(396,248,cs),
(396,113.333,o),
(344.667,31,o),
(262,31,cs),
(182,31,o),
(130,116.667,o),
(130,250,cs)
);
}
);
width = 516;
}
);
note = eth;
unicode = 240;
},
{
glyphname = multiply;
lastChange = "2023-10-03 16:52:56 +0000";
layers = (
{
layerId = m01;
shapes = (
{
closed = 1;
nodes = (
(76,161,l),
(105,132,l),
(259,286,l),
(413,132,l),
(442,161,l),
(288,315,l),
(442,469,l),
(413,498,l),
(259,344,l),
(105,498,l),
(76,469,l),
(230,315,l)
);
}
);
width = 518;
}
);
note = multiply;
unicode = 215;
},
{
glyphname = uni00B3;
lastChange = "2023-10-03 16:37:10 +0000";
layers = (
{
layerId = m01;
shapes = (
{
closed = 1;
nodes = (
(280,505.333,o),
(231.667,556,o),
(161,556,c),
(280,700,l),
(48,700,l),
(35,600,l),
(53,600,l),
(61,618,ls),
(69.667,637.333,o),
(87.333,647,o),
(114,647,cs),
(186,647,l),
(200,662,l),
(217,662,l),
(85,507,l),
(90.333,507.667,o),
(97.667,508,o),
(107,508,cs),
(175,508,o),
(209,481.667,o),
(209,429,cs),
(209,382.333,o),
(180,343,o),
(136,343,cs),
(98.667,343,o),
(78.667,363.333,o),
(76,394,c),
(89,394,l),
(89.667,396.667,o),
(90,401,o),
(90,407,cs),
(90,427,o),
(78,441,o),
(58,441,cs),
(39.333,441,o),
(26,425.667,o),
(26,407,cs),
(26,355,o),
(78,319,o),
(142,319,cs),
(224.667,319,o),
(280,374.667,o),
(280,444,cs)
);
}
);
width = 311;
}
);
note = uni00B3;
unicode = 179;
},
{
glyphname = copyright;
kernLeft = C;
kernRight = D;
lastChange = "2023-10-03 16:37:10 +0000";
layers = (
{
layerId = m01;
shapes = (
{
closed = 1;
nodes = (
(526.667,-11,o),
(643.833,58.333,o),
(708.5,169,cs),
(740.833,224.333,o),
(757,284.667,o),
(757,350,cs),
(757,479.333,o),
(686.667,596.667,o),
(576,662,cs),
(520.667,694.667,o),
(460.667,711,o),
(396,711,cs),
(265.333,711,o),
(148.167,640.667,o),
(83.5,530,cs),
(51.167,474.667,o),
(35,414.667,o),
(35,350,cs),
(35,219.333,o),
(104.333,102.167,o),
(215,37.5,cs),
(270.333,5.167,o),
(330.667,-11,o),
(396,-11,cs)
);
},
{
closed = 1;
nodes = (
(68,467.333,o),
(131.833,574.167,o),
(232.5,633.5,cs),
(282.833,663.167,o),
(337.333,678,o),
(396,678,cs),
(513.333,678,o),
(620.167,614.167,o),
(679.5,513.5,cs),
(709.167,463.167,o),
(724,408.667,o),
(724,350,cs),
(724,231.333,o),
(661.167,124.667,o),
(560.5,66,cs),
(510.167,36.667,o),
(455.333,22,o),
(396,22,cs),
(277.333,22,o),
(170.667,84.833,o),
(112,185.5,cs),
(82.667,235.833,o),
(68,290.667,o),
(68,350,cs)
);
},
{
closed = 1;
nodes = (
(215,227.566,o),
(290.64,147,o),
(401,147,cs),
(469,147,o),
(524.333,197.333,o),
(543,272,c),
(541,273,l),
(507.667,223.667,o),
(475.333,205,o),
(422,205,cs),
(355.835,205,o),
(302,270.095,o),
(302,367,cs),
(302,460.333,o),
(341,517,o),
(405,517,cs),
(447.667,517,o),
(477.667,499.333,o),
(479,470,c),
(462,470,l),
(456.667,428.667,o),
(474.333,406,o),
(505,406,cs),
(530.333,406,o),
(549,425.667,o),
(549,451,cs),
(549,504.521,o),
(489.696,554,o),
(408,554,cs),
(304.635,554,o),
(215,468.045,o),
(215,344,cs)
);
}
);
width = 792;
}
);
note = copyright;
unicode = 169;
},
{
glyphname = Aacute;
kernLeft = A;
kernRight = A;
lastChange = "2023-10-03 16:53:10 +0000";
layers = (
{
layerId = m01;
shapes = (
{
closed = 1;
nodes = (
(472,216,l),
(520,102,ls),
(524.667,92,o),
(527,82.333,o),
(527,73,cs),
(527,49,o),
(510.333,33.667,o),
(481,31,cs),
(464,29,l),
(464,0,l),
(715,0,l),
(715,27,l),
(672.333,36.333,o),
(651,57.667,o),
(631,103,cs),
(362,733,l),
(360,733,l),
(93,111,ls),
(73.667,65.667,o),
(44.667,37.667,o),
(6,27,c),
(6,0,l),
(210,0,l),
(210,29,l),
(193,31,ls),
(157.667,35,o),
(140,51.667,o),
(140,81,cs),
(140,95,o),
(144.333,112,o),
(153,132,cs),
(197,236,l),
(500,236,l),
(508,216,l)
);
},
{
closed = 1;
nodes = (
(331,556,l),
(450,271,l),
(212,271,l)
);
},
{
closed = 1;
nodes = (
(378,901,ls),
(403.333,937,o),
(419.333,950,o),
(446,950,cs),
(475.333,950,o),
(494,930,o),
(494,906,cs),
(494,887.333,o),
(482,868.667,o),
(462,858,cs),
(289,765,l),
(285,765,l)
);
}
);
width = 721;
}
);
note = Aacute;
unicode = 193;
},
{
glyphname = Acircumflex;
kernLeft = A;
kernRight = A;
lastChange = "2023-10-03 16:53:18 +0000";
layers = (
{
layerId = m01;
shapes = (
{
closed = 1;
nodes = (
(472,216,l),
(520,102,ls),
(524.667,92,o),
(527,82.333,o),
(527,73,cs),
(527,49,o),
(510.333,33.667,o),
(481,31,cs),
(464,29,l),
(464,0,l),
(715,0,l),
(715,27,l),
(672.333,36.333,o),
(651,57.667,o),
(631,103,cs),
(362,733,l),
(360,733,l),
(93,111,ls),
(73.667,65.667,o),
(44.667,37.667,o),
(6,27,c),
(6,0,l),
(210,0,l),
(210,29,l),
(193,31,ls),
(157.667,35,o),
(140,51.667,o),
(140,81,cs),
(140,95,o),
(144.333,112,o),
(153,132,cs),
(197,236,l),
(500,236,l),
(508,216,l)
);
},
{
closed = 1;
nodes = (
(205,765,l),
(371,873,l),
(407,873,l),
(357,838,l),
(515,765,l),
(519,765,l),
(415,915,l),
(305,915,l),
(201,765,l)
);
},
{
closed = 1;
nodes = (
(331,556,l),
(450,271,l),
(212,271,l)
);
}
);
width = 721;
}
);
note = Acircumflex;
unicode = 194;
},
{
glyphname = Adieresis;
kernLeft = A;
kernRight = A;
lastChange = "2023-10-03 16:53:29 +0000";
layers = (
{
layerId = m01;
shapes = (
{
closed = 1;
nodes = (
(472,216,l),
(520,102,ls),
(524.667,92,o),
(527,82.333,o),
(527,73,cs),
(527,49,o),
(510.333,33.667,o),
(481,31,cs),
(464,29,l),
(464,0,l),
(715,0,l),
(715,27,l),
(672.333,36.333,o),
(651,57.667,o),
(631,103,cs),
(362,733,l),
(360,733,l),
(93,111,ls),
(73.667,65.667,o),
(44.667,37.667,o),
(6,27,c),
(6,0,l),
(210,0,l),
(210,29,l),
(193,31,ls),
(157.667,35,o),
(140,51.667,o),
(140,81,cs),
(140,95,o),
(144.333,112,o),
(153,132,cs),
(197,236,l),
(500,236,l),
(508,216,l)
);
},
{
closed = 1;
nodes = (
(331,556,l),
(450,271,l),
(212,271,l)
);
},
{
closed = 1;
nodes = (
(312,805,l),
(312,904,l),
(214,904,l),
(214,805,l)
);
},
{
closed = 1;
nodes = (
(506,805,l),
(506,904,l),
(408,904,l),
(408,805,l)
);
}
);
width = 721;
}
);
note = Adieresis;
unicode = 196;
},
{
glyphname = Agrave;
kernLeft = A;
kernRight = A;
lastChange = "2023-10-03 16:53:38 +0000";
layers = (
{
layerId = m01;
shapes = (
{
closed = 1;
nodes = (
(472,216,l),
(520,102,ls),
(524.667,92,o),
(527,82.333,o),
(527,73,cs),
(527,49,o),
(510.333,33.667,o),
(481,31,cs),
(464,29,l),
(464,0,l),
(715,0,l),
(715,27,l),
(672.333,36.333,o),
(651,57.667,o),
(631,103,cs),
(362,733,l),
(360,733,l),
(93,111,ls),
(73.667,65.667,o),
(44.667,37.667,o),
(6,27,c),
(6,0,l),
(210,0,l),
(210,29,l),
(193,31,ls),
(157.667,35,o),
(140,51.667,o),
(140,81,cs),
(140,95,o),
(144.333,112,o),
(153,132,cs),
(197,236,l),
(500,236,l),
(508,216,l)
);
},
{
closed = 1;
nodes = (
(331,556,l),
(450,271,l),
(212,271,l)
);
},
{
closed = 1;
nodes = (
(431,765,l),
(435,765,l),
(342,901,ls),
(316.667,937,o),
(300.667,950,o),
(274,950,cs),
(244.667,950,o),
(226,930,o),
(226,906,cs),
(226,887.333,o),
(238,868.667,o),
(258,858,cs)
);
}
);
width = 721;
}
);
note = Agrave;
unicode = 192;
},
{
glyphname = Aring;
kernLeft = A;
kernRight = A;
lastChange = "2023-10-03 16:53:45 +0000";
layers = (
{
layerId = m01;
shapes = (
{
closed = 1;
nodes = (
(472,216,l),
(520,102,ls),
(524.667,92,o),
(527,82.333,o),
(527,73,cs),
(527,49,o),
(510.333,33.667,o),
(481,31,cs),
(464,29,l),
(464,0,l),
(715,0,l),
(715,27,l),
(672.333,36.333,o),
(651,57.667,o),
(631,103,cs),
(362,733,l),
(360,733,l),
(93,111,ls),
(73.667,65.667,o),
(44.667,37.667,o),
(6,27,c),
(6,0,l),
(210,0,l),
(210,29,l),
(193,31,ls),
(157.667,35,o),
(140,51.667,o),
(140,81,cs),
(140,95,o),
(144.333,112,o),
(153,132,cs),
(197,236,l),
(500,236,l),
(508,216,l)
);
},
{
closed = 1;
nodes = (
(331,556,l),
(450,271,l),
(212,271,l)
);
},
{
closed = 1;
nodes = (
(261,794.333,o),
(304,753,o),
(360,753,cs),
(416,753,o),
(459,794.333,o),
(459,845,cs),
(459,899.667,o),
(416,940,o),
(360,940,cs),
(304,940,o),
(261,899.667,o),
(261,845,cs)
);
},
{
closed = 1;
nodes = (
(301,879.667,o),
(322.667,904,o),
(360,904,cs),
(397.333,904,o),
(419,879.667,o),
(419,845,cs),
(419,813,o),
(396,788,o),
(360,788,cs),
(324,788,o),
(301,813,o),
(301,845,cs)
);
}
);
width = 721;
}
);
note = Aring;
unicode = 197;
},
{
glyphname = Atilde;
kernLeft = A;
kernRight = A;
lastChange = "2023-10-03 16:53:53 +0000";
layers = (
{
layerId = m01;
shapes = (
{
closed = 1;
nodes = (
(472,216,l),
(520,102,ls),
(524.667,92,o),
(527,82.333,o),
(527,73,cs),
(527,49,o),
(510.333,33.667,o),
(481,31,cs),
(464,29,l),
(464,0,l),
(715,0,l),
(715,27,l),
(672.333,36.333,o),
(651,57.667,o),
(631,103,cs),
(362,733,l),
(360,733,l),
(93,111,ls),
(73.667,65.667,o),
(44.667,37.667,o),
(6,27,c),
(6,0,l),
(210,0,l),
(210,29,l),
(193,31,ls),
(157.667,35,o),
(140,51.667,o),
(140,81,cs),
(140,95,o),
(144.333,112,o),
(153,132,cs),
(197,236,l),
(500,236,l),
(508,216,l)
);
},
{
closed = 1;
nodes = (
(183,780,l),
(211,828,o),
(235.667,845,o),
(261,845,cs),
(282.333,845,o),
(304.333,834.333,o),
(343,813,cs),
(381.667,791.667,o),
(404.333,780,o),
(427,780,cs),
(476.333,780,o),
(510.333,822.667,o),
(541,924,c),
(537,924,l),
(509,877.333,o),
(484.333,860,o),
(459,860,cs),
(439,860,o),
(415.667,871,o),
(381,891,cs),
(342.333,913.667,o),
(317,925,o),
(293,925,cs),
(243.667,925,o),
(209.667,881.333,o),
(179,780,c)
);
},
{
closed = 1;
nodes = (
(331,556,l),
(450,271,l),
(212,271,l)
);
}
);
width = 721;
}
);
note = Atilde;
unicode = 195;
},
{
glyphname = Ccedilla;
kernLeft = C;
kernRight = C;
lastChange = "2023-10-03 16:54:00 +0000";
layers = (
{
layerId = m01;
shapes = (
{
closed = 1;
nodes = (
(271,-189,l),
(289,-199.667,o),
(310.333,-205,o),
(335,-205,cs),
(395,-205,o),
(439,-173.667,o),
(439,-131,cs),
(439,-104.333,o),
(425.667,-80.333,o),
(375,-51,cs),
(368,-47,l),
(351,-76,l),
(332,-65,l),
(364,-10,l),
(486.667,-10,o),
(587.333,71.667,o),
(626,201,c),
(622,203,l),
(556.667,92.333,o),
(483.667,44,o),
(381,44,cs),
(247.426,44,o),
(149,163.968,o),
(149,354,cs),
(149,543.503,o),
(239.041,663,o),
(366,663,cs),
(454,663,o),
(522.333,610.667,o),
(565,508,cs),
(585,462,l),
(619,462,l),
(619,707,l),
(542,664,l),
(551.333,656,o),
(566,639.667,o),
(574,629,c),
(574,594,l),
(524,671.333,o),
(454,710,o),
(364,710,cs),
(240,710,o),
(133.5,641.333,o),
(75.5,528,cs),
(46.5,471.333,o),
(32,408.667,o),
(32,340,cs),
(32,149.882,o),
(155.484,7.327,o),
(331,-9,c),
(287,-80,l),
(335,-109,ls),
(354.333,-121,o),
(364,-134,o),
(364,-148,cs),
(364,-170.667,o),
(337,-186,o),
(289,-186,cs),
(271,-185,l)
);
}
);
width = 665;
}
);
note = Ccedilla;
unicode = 199;
},
{
glyphname = Eacute;
kernRight = E;
lastChange = "2023-10-03 16:54:10 +0000";
layers = (
{
layerId = m01;
shapes = (
{
closed = 1;
nodes = (
(220,61,l),
(220,340,l),
(325,340,ls),
(375.667,340,o),
(398.667,318.667,o),
(412,260,cs),
(420,226,l),
(453,226,l),
(453,490,l),
(420,490,l),
(412,456,ls),
(398.667,396,o),
(375.667,375,o),
(325,375,cs),
(220,375,l),
(220,639,l),
(184,639,l),
(184,659,l),
(402,659,ls),
(479.333,659,o),
(523,621.667,o),
(547,535,cs),
(569,456,l),
(601,456,l),
(589,700,l),
(20,700,l),
(20,671,l),
(43,669,ls),
(90.333,665,o),
(114,640.333,o),
(114,595,cs),
(114,105,ls),
(114,59.667,o),
(90.333,35,o),
(43,31,cs),
(20,29,l),
(20,0,l),
(587,0,l),
(619,249,l),
(586,249,l),
(568,184,ls),
(541.333,85.333,o),
(490.333,41,o),
(409,41,cs),
(184,41,l),
(184,61,l)
);
},
{
closed = 1;
nodes = (
(371,901,ls),
(396.333,937,o),
(412.333,950,o),
(439,950,cs),
(468.333,950,o),
(487,930,o),
(487,906,cs),
(487,887.333,o),
(475,868.667,o),
(455,858,cs),
(282,765,l),
(278,765,l)
);
}
);
width = 660;
}
);
note = Eacute;
unicode = 201;
},
{
glyphname = Ecircumflex;
kernRight = E;
lastChange = "2023-10-03 16:54:28 +0000";
layers = (
{
layerId = m01;
shapes = (
{
closed = 1;
nodes = (
(220,61,l),
(220,340,l),
(325,340,ls),
(375.667,340,o),
(398.667,318.667,o),
(412,260,cs),
(420,226,l),
(453,226,l),
(453,490,l),
(420,490,l),
(412,456,ls),
(398.667,396,o),
(375.667,375,o),
(325,375,cs),
(220,375,l),
(220,639,l),
(184,639,l),
(184,659,l),
(402,659,ls),
(479.333,659,o),
(523,621.667,o),
(547,535,cs),
(569,456,l),
(601,456,l),
(589,700,l),
(20,700,l),
(20,671,l),
(43,669,ls),
(90.333,665,o),
(114,640.333,o),
(114,595,cs),
(114,105,ls),
(114,59.667,o),
(90.333,35,o),
(43,31,cs),
(20,29,l),
(20,0,l),
(587,0,l),
(619,249,l),
(586,249,l),
(568,184,ls),
(541.333,85.333,o),
(490.333,41,o),
(409,41,cs),
(184,41,l),
(184,61,l)
);
},
{
closed = 1;
nodes = (
(198,765,l),
(364,873,l),
(400,873,l),
(350,838,l),
(508,765,l),
(512,765,l),
(408,915,l),
(298,915,l),
(194,765,l)
);
}
);
width = 660;
}
);
note = Ecircumflex;
unicode = 202;
},
{
glyphname = Edieresis;
kernRight = E;
lastChange = "2023-10-03 16:54:36 +0000";
layers = (
{
layerId = m01;
shapes = (
{
closed = 1;
nodes = (
(220,61,l),
(220,340,l),
(325,340,ls),
(375.667,340,o),
(398.667,318.667,o),
(412,260,cs),
(420,226,l),
(453,226,l),
(453,490,l),
(420,490,l),
(412,456,ls),
(398.667,396,o),
(375.667,375,o),
(325,375,cs),
(220,375,l),
(220,639,l),
(184,639,l),
(184,659,l),
(402,659,ls),
(479.333,659,o),
(523,621.667,o),
(547,535,cs),
(569,456,l),
(601,456,l),
(589,700,l),
(20,700,l),
(20,671,l),
(43,669,ls),
(90.333,665,o),
(114,640.333,o),
(114,595,cs),
(114,105,ls),
(114,59.667,o),
(90.333,35,o),
(43,31,cs),
(20,29,l),
(20,0,l),
(587,0,l),
(619,249,l),
(586,249,l),
(568,184,ls),
(541.333,85.333,o),
(490.333,41,o),
(409,41,cs),
(184,41,l),
(184,61,l)
);
},
{
closed = 1;
nodes = (
(305,805,l),
(305,904,l),
(207,904,l),
(207,805,l)
);
},
{
closed = 1;
nodes = (
(499,805,l),
(499,904,l),
(401,904,l),
(401,805,l)
);
}
);
width = 660;
}
);
note = Edieresis;
unicode = 203;
},
{
glyphname = Egrave;
kernRight = E;
lastChange = "2023-10-03 16:54:43 +0000";
layers = (
{
layerId = m01;
shapes = (
{
closed = 1;
nodes = (
(220,61,l),
(220,340,l),
(325,340,ls),
(375.667,340,o),
(398.667,318.667,o),
(412,260,cs),
(420,226,l),
(453,226,l),
(453,490,l),
(420,490,l),
(412,456,ls),
(398.667,396,o),
(375.667,375,o),
(325,375,cs),
(220,375,l),
(220,639,l),
(184,639,l),
(184,659,l),
(402,659,ls),
(479.333,659,o),
(523,621.667,o),
(547,535,cs),
(569,456,l),
(601,456,l),
(589,700,l),
(20,700,l),
(20,671,l),
(43,669,ls),
(90.333,665,o),
(114,640.333,o),
(114,595,cs),
(114,105,ls),
(114,59.667,o),
(90.333,35,o),
(43,31,cs),
(20,29,l),
(20,0,l),
(587,0,l),
(619,249,l),
(586,249,l),
(568,184,ls),
(541.333,85.333,o),
(490.333,41,o),
(409,41,cs),
(184,41,l),
(184,61,l)
);
},
{
closed = 1;
nodes = (
(424,765,l),
(428,765,l),
(335,901,ls),
(309.667,937,o),
(293.667,950,o),
(267,950,cs),
(237.667,950,o),
(219,930,o),
(219,906,cs),
(219,887.333,o),
(231,868.667,o),
(251,858,cs)
);
}
);
width = 660;
}
);
note = Egrave;
unicode = 200;
},
{
glyphname = Iacute;
kernRight = H;
lastChange = "2023-10-03 16:54:48 +0000";
layers = (
{
layerId = m01;
shapes = (
{
closed = 1;
nodes = (
(220,595,ls),
(220,640.333,o),
(243.667,665,o),
(291,669,cs),
(314,671,l),
(314,700,l),
(20,700,l),
(20,671,l),
(43,669,ls),
(90.333,665,o),
(114,640.333,o),
(114,595,cs),
(114,105,ls),
(114,59.667,o),
(90.333,35,o),
(43,31,cs),
(20,29,l),
(20,0,l),
(314,0,l),
(314,29,l),
(291,31,ls),
(243.667,35,o),
(220,59.667,o),
(220,105,cs)
);
},
{
closed = 1;
nodes = (
(185,901,ls),
(210.333,937,o),
(226.333,950,o),
(253,950,cs),
(282.333,950,o),
(301,930,o),
(301,906,cs),
(301,887.333,o),
(289,868.667,o),
(269,858,cs),
(96,765,l),
(92,765,l)
);
}
);
width = 334;
}
);
note = Iacute;
unicode = 205;
},
{
glyphname = Icircumflex;
kernRight = H;
lastChange = "2023-10-03 16:54:55 +0000";
layers = (
{
layerId = m01;
shapes = (
{
closed = 1;
nodes = (
(220,595,ls),
(220,640.333,o),
(243.667,665,o),
(291,669,cs),
(314,671,l),
(314,700,l),
(20,700,l),
(20,671,l),
(43,669,ls),
(90.333,665,o),
(114,640.333,o),
(114,595,cs),
(114,105,ls),
(114,59.667,o),
(90.333,35,o),
(43,31,cs),
(20,29,l),
(20,0,l),
(314,0,l),
(314,29,l),
(291,31,ls),
(243.667,35,o),
(220,59.667,o),
(220,105,cs)
);
},
{
closed = 1;
nodes = (
(12,765,l),
(178,873,l),
(214,873,l),
(164,838,l),
(322,765,l),
(326,765,l),
(222,915,l),
(112,915,l),
(8,765,l)
);
}
);
width = 334;
}
);
note = Icircumflex;
unicode = 206;
},
{
glyphname = Idieresis;
kernRight = H;
lastChange = "2023-10-03 16:55:05 +0000";
layers = (
{
layerId = m01;
shapes = (
{
closed = 1;
nodes = (
(220,595,ls),
(220,640.333,o),
(243.667,665,o),
(291,669,cs),
(314,671,l),
(314,700,l),
(20,700,l),
(20,671,l),
(43,669,ls),
(90.333,665,o),
(114,640.333,o),
(114,595,cs),
(114,105,ls),
(114,59.667,o),
(90.333,35,o),
(43,31,cs),
(20,29,l),
(20,0,l),
(314,0,l),
(314,29,l),
(291,31,ls),
(243.667,35,o),
(220,59.667,o),
(220,105,cs)
);
},
{
closed = 1;
nodes = (
(119,805,l),
(119,904,l),
(21,904,l),
(21,805,l)
);
},
{
closed = 1;
nodes = (
(313,805,l),
(313,904,l),
(215,904,l),
(215,805,l)
);
}
);
width = 334;
}
);
note = Idieresis;
unicode = 207;
},
{
glyphname = Igrave;
kernRight = H;
lastChange = "2023-10-03 16:37:10 +0000";
layers = (
{
layerId = m01;
shapes = (
{
closed = 1;
nodes = (
(220,595,ls),
(220,640.333,o),
(243.667,665,o),
(291,669,cs),
(314,671,l),
(314,700,l),
(20,700,l),
(20,671,l),
(43,669,ls),
(90.333,665,o),
(114,640.333,o),
(114,595,cs),
(114,105,ls),
(114,59.667,o),
(90.333,35,o),
(43,31,cs),
(20,29,l),
(20,0,l),
(314,0,l),
(314,29,l),
(291,31,ls),
(243.667,35,o),
(220,59.667,o),
(220,105,cs)
);
},
{
closed = 1;
nodes = (
(238,765,l),
(242,765,l),
(149,901,ls),
(123.667,937,o),
(107.667,950,o),
(81,950,cs),
(51.667,950,o),
(33,930,o),
(33,906,cs),
(33,887.333,o),
(45,868.667,o),
(65,858,cs)
);
}
);
width = 334;
}
);
note = Igrave;
unicode = 204;
},
{
glyphname = Ntilde;
kernRight = N;
lastChange = "2023-10-03 16:55:14 +0000";
layers = (
{
layerId = m01;
shapes = (
{
closed = 1;
nodes = (
(650,584,ls),
(650,634.667,o),
(673,661.333,o),
(721,668,cs),
(744,671,l),
(744,700,l),
(502,700,l),
(502,671,l),
(525,668,ls),
(573,662,o),
(597,634,o),
(597,584,cs),
(597,189,l),
(578,211,l),
(578,248,l),
(196,700,l),
(34,700,l),
(114,618,l),
(114,116,ls),
(114,65.333,o),
(91,38.667,o),
(43,32,cs),
(20,29,l),
(20,0,l),
(262,0,l),
(262,29,l),
(239,32,ls),
(191,38,o),
(167,66,o),
(167,116,cs),
(167,570,l),
(650,-10,l)
);
},
{
closed = 1;
nodes = (
(222,780,l),
(250,828,o),
(274.667,845,o),
(300,845,cs),
(321.333,845,o),
(343.333,834.333,o),
(382,813,cs),
(420.667,791.667,o),
(443.333,780,o),
(466,780,cs),
(515.333,780,o),
(549.333,822.667,o),
(580,924,c),
(576,924,l),
(548,877.333,o),
(523.333,860,o),
(498,860,cs),
(478,860,o),
(454.667,871,o),
(420,891,cs),
(381.333,913.667,o),
(356,925,o),
(332,925,cs),
(282.667,925,o),
(248.667,881.333,o),
(218,780,c)
);
}
);
width = 759;
}
);
note = Ntilde;
unicode = 209;
},
{
glyphname = Oacute;
kernLeft = C;
kernRight = D;
lastChange = "2023-10-03 16:55:19 +0000";
layers = (
{
layerId = m01;
shapes = (
{
closed = 1;
nodes = (
(486.667,-11,o),
(595,57,o),
(655,169,cs),
(685,225,o),
(700,287,o),
(700,355,cs),
(700,491,o),
(636.333,604.667,o),
(535,666,cs),
(484.333,696.667,o),
(428.667,712,o),
(368,712,cs),
(245.333,712,o),
(137,643.833,o),
(77,532.5,cs),
(47,476.833,o),
(32,415,o),
(32,347,cs),
(32,211,o),
(95.667,96.333,o),
(197,35,cs),
(247.667,4.333,o),
(303.333,-11,o),
(364,-11,cs)
);
},
{
closed = 1;
nodes = (
(146,556.427,o),
(236.837,670,o),
(354,670,cs),
(442,670,o),
(513.167,613.667,o),
(552.5,511,cs),
(572.167,459.667,o),
(582,399.667,o),
(582,331,cs),
(582,145.573,o),
(491.163,32,o),
(374,32,cs),
(286,32,o),
(214.833,88.333,o),
(175.5,191,cs),
(155.833,242.333,o),
(146,302.333,o),
(146,371,cs)
);
},
{
closed = 1;
nodes = (
(379,901,ls),
(404.333,937,o),
(420.333,950,o),
(447,950,cs),
(476.333,950,o),
(495,930,o),
(495,906,cs),
(495,887.333,o),
(483,868.667,o),
(463,858,cs),
(290,765,l),
(286,765,l)
);
}
);
width = 731;
}
);
note = Oacute;
unicode = 211;
},
{
glyphname = Ocircumflex;
kernLeft = C;
kernRight = D;
lastChange = "2023-10-03 16:55:24 +0000";
layers = (
{
layerId = m01;
shapes = (
{
closed = 1;
nodes = (
(486.667,-11,o),
(595,57,o),
(655,169,cs),
(685,225,o),
(700,287,o),
(700,355,cs),
(700,491,o),
(636.333,604.667,o),
(535,666,cs),
(484.333,696.667,o),
(428.667,712,o),
(368,712,cs),
(245.333,712,o),
(137,643.833,o),
(77,532.5,cs),
(47,476.833,o),
(32,415,o),
(32,347,cs),
(32,211,o),
(95.667,96.333,o),
(197,35,cs),
(247.667,4.333,o),
(303.333,-11,o),
(364,-11,cs)
);
},
{
closed = 1;
nodes = (
(146,556.427,o),
(236.837,670,o),
(354,670,cs),
(442,670,o),
(513.167,613.667,o),
(552.5,511,cs),
(572.167,459.667,o),
(582,399.667,o),
(582,331,cs),
(582,145.573,o),
(491.163,32,o),
(374,32,cs),
(286,32,o),
(214.833,88.333,o),
(175.5,191,cs),
(155.833,242.333,o),
(146,302.333,o),
(146,371,cs)
);
},
{
closed = 1;
nodes = (
(206,765,l),
(372,873,l),
(408,873,l),
(358,838,l),
(516,765,l),
(520,765,l),
(416,915,l),
(306,915,l),
(202,765,l)
);
}
);
width = 731;
}
);
note = Ocircumflex;
unicode = 212;
},
{
glyphname = Odieresis;
kernLeft = C;
kernRight = D;
lastChange = "2023-10-03 16:55:30 +0000";
layers = (
{
layerId = m01;
shapes = (
{
closed = 1;
nodes = (
(486.667,-11,o),
(595,57,o),
(655,169,cs),
(685,225,o),
(700,287,o),
(700,355,cs),
(700,491,o),
(636.333,604.667,o),
(535,666,cs),
(484.333,696.667,o),
(428.667,712,o),
(368,712,cs),
(245.333,712,o),
(137,643.833,o),
(77,532.5,cs),
(47,476.833,o),
(32,415,o),
(32,347,cs),
(32,211,o),
(95.667,96.333,o),
(197,35,cs),
(247.667,4.333,o),
(303.333,-11,o),
(364,-11,cs)
);
},
{
closed = 1;
nodes = (
(146,556.427,o),
(236.837,670,o),
(354,670,cs),
(442,670,o),
(513.167,613.667,o),
(552.5,511,cs),
(572.167,459.667,o),
(582,399.667,o),
(582,331,cs),
(582,145.573,o),
(491.163,32,o),
(374,32,cs),
(286,32,o),
(214.833,88.333,o),
(175.5,191,cs),
(155.833,242.333,o),
(146,302.333,o),
(146,371,cs)
);
},
{
closed = 1;
nodes = (
(313,805,l),
(313,904,l),
(215,904,l),
(215,805,l)
);
},
{
closed = 1;
nodes = (
(507,805,l),
(507,904,l),
(409,904,l),
(409,805,l)
);
}
);
width = 731;
}
);
note = Odieresis;
unicode = 214;
},
{
glyphname = Ograve;
kernLeft = C;
kernRight = D;
lastChange = "2023-10-03 16:37:10 +0000";
layers = (
{
layerId = m01;
shapes = (
{
closed = 1;
nodes = (
(486.667,-11,o),
(595,57,o),
(655,169,cs),
(685,225,o),
(700,287,o),
(700,355,cs),
(700,491,o),
(636.333,604.667,o),
(535,666,cs),
(484.333,696.667,o),
(428.667,712,o),
(368,712,cs),
(245.333,712,o),
(137,643.833,o),
(77,532.5,cs),
(47,476.833,o),
(32,415,o),
(32,347,cs),
(32,211,o),
(95.667,96.333,o),
(197,35,cs),
(247.667,4.333,o),
(303.333,-11,o),
(364,-11,cs)
);
},
{
closed = 1;
nodes = (
(146,556.427,o),
(236.837,670,o),
(354,670,cs),
(442,670,o),
(513.167,613.667,o),
(552.5,511,cs),
(572.167,459.667,o),
(582,399.667,o),
(582,331,cs),
(582,145.573,o),
(491.163,32,o),
(374,32,cs),
(286,32,o),
(214.833,88.333,o),
(175.5,191,cs),
(155.833,242.333,o),
(146,302.333,o),
(146,371,cs)
);
},
{
closed = 1;
nodes = (
(432,765,l),
(436,765,l),
(343,901,ls),
(317.667,937,o),
(301.667,950,o),
(275,950,cs),
(245.667,950,o),
(227,930,o),
(227,906,cs),
(227,887.333,o),
(239,868.667,o),
(259,858,cs)
);
}
);
width = 731;
}
);
note = Ograve;
unicode = 210;
},
{
glyphname = Otilde;
kernLeft = C;
kernRight = D;
lastChange = "2023-10-03 16:37:10 +0000";
layers = (
{
layerId = m01;
shapes = (
{
closed = 1;
nodes = (
(486.667,-11,o),
(595,57,o),
(655,169,cs),
(685,225,o),
(700,287,o),
(700,355,cs),
(700,491,o),
(636.333,604.667,o),
(535,666,cs),
(484.333,696.667,o),
(428.667,712,o),
(368,712,cs),
(245.333,712,o),
(137,643.833,o),
(77,532.5,cs),
(47,476.833,o),
(32,415,o),
(32,347,cs),
(32,211,o),
(95.667,96.333,o),
(197,35,cs),
(247.667,4.333,o),
(303.333,-11,o),
(364,-11,cs)
);
},
{
closed = 1;
nodes = (
(146,556.427,o),
(236.837,670,o),
(354,670,cs),
(442,670,o),
(513.167,613.667,o),
(552.5,511,cs),
(572.167,459.667,o),
(582,399.667,o),
(582,331,cs),
(582,145.573,o),
(491.163,32,o),
(374,32,cs),
(286,32,o),
(214.833,88.333,o),
(175.5,191,cs),
(155.833,242.333,o),
(146,302.333,o),
(146,371,cs)
);
},
{
closed = 1;
nodes = (
(184,780,l),
(212,828,o),
(236.667,845,o),
(262,845,cs),
(283.333,845,o),
(305.333,834.333,o),
(344,813,cs),
(382.667,791.667,o),
(405.333,780,o),
(428,780,cs),
(477.333,780,o),
(511.333,822.667,o),
(542,924,c),
(538,924,l),
(510,877.333,o),
(485.333,860,o),
(460,860,cs),
(440,860,o),
(416.667,871,o),
(382,891,cs),
(343.333,913.667,o),
(318,925,o),
(294,925,cs),
(244.667,925,o),
(210.667,881.333,o),
(180,780,c)
);
}
);
width = 731;
}
);
note = Otilde;
unicode = 213;
},
{
glyphname = Scaron;
kernLeft = S;
kernRight = S;
lastChange = "2023-10-03 16:55:48 +0000";
layers = (
{
layerId = m01;
shapes = (
{
closed = 1;
nodes = (
(428.082,-11,o),
(520,76.258,o),
(520,198,cs),
(520,279.333,o),
(475.333,341,o),
(394,373,cs),
(210,445,ls),
(152.667,467.667,o),
(121,507.667,o),
(121,557,cs),
(121,622.333,o),
(166.333,665,o),
(237,665,cs),
(321,665,o),
(378,618.667,o),
(422,516,cs),
(440,474,l),
(475,474,l),
(472,708,l),
(400,667,l),
(408,659,o),
(423,642,o),
(431,630,c),
(432,593,l),
(389.333,667.667,o),
(321.333,710,o),
(240,710,cs),
(118.351,710,o),
(35,629.729,o),
(35,514,cs),
(35,439.333,o),
(76.333,383,o),
(155,351,cs),
(326,283,ls),
(391.333,257.667,o),
(428,213.667,o),
(428,159,cs),
(428,83,o),
(372.333,34,o),
(283,34,cs),
(198.333,34,o),
(134.333,82,o),
(91,178,cs),
(65,235,l),
(30,235,l),
(33,-9,l),
(107,35,l),
(89.667,49.667,o),
(79.333,59.333,o),
(76,64,c),
(75,98,l),
(131,25.333,o),
(199.667,-11,o),
(281,-11,cs)
);
},
{
closed = 1;
nodes = (
(206,778,l),
(316,778,l),
(420,928,l),
(416,928,l),
(250,820,l),
(214,820,l),
(264,855,l),
(106,928,l),
(102,928,l)
);
}
);
width = 545;
}
);
note = Scaron;
unicode = 352;
},
{
glyphname = Uacute;
kernLeft = U;
kernRight = J;
lastChange = "2023-10-03 16:56:02 +0000";
layers = (
{
layerId = m01;
shapes = (
{
closed = 1;
nodes = (
(541.505,-11,o),
(649,102.733,o),
(649,283,cs),
(649,584,ls),
(649,634.667,o),
(672,661.333,o),
(720,668,cs),
(743,671,l),
(743,700,l),
(501,700,l),
(501,671,l),
(524,668,ls),
(572,662,o),
(596,634,o),
(596,584,cs),
(596,296,ls),
(596,145.333,o),
(520.333,51,o),
(399,51,cs),
(289.667,51,o),
(219,128.667,o),
(219,250,cs),
(219,595,ls),
(219,640.333,o),
(242.667,665,o),
(290,669,cs),
(313,671,l),
(313,700,l),
(20,700,l),
(20,671,l),
(43,669,ls),
(90.333,665,o),
(114,640.333,o),
(114,595,cs),
(114,230,ls),
(114,82.367,o),
(213.623,-11,o),
(372,-11,cs)
);
},
{
closed = 1;
nodes = (
(424,901,ls),
(449.333,937,o),
(465.333,950,o),
(492,950,cs),
(521.333,950,o),
(540,930,o),
(540,906,cs),
(540,887.333,o),
(528,868.667,o),
(508,858,cs),
(335,765,l),
(331,765,l)
);
}
);
width = 763;
}
);
note = Uacute;
unicode = 218;
},
{
glyphname = Ucircumflex;
kernLeft = U;
kernRight = J;
lastChange = "2023-10-03 16:56:07 +0000";
layers = (
{
layerId = m01;
shapes = (
{
closed = 1;
nodes = (
(541.505,-11,o),
(649,102.733,o),
(649,283,cs),
(649,584,ls),
(649,634.667,o),
(672,661.333,o),
(720,668,cs),
(743,671,l),
(743,700,l),
(501,700,l),
(501,671,l),
(524,668,ls),
(572,662,o),
(596,634,o),
(596,584,cs),
(596,296,ls),
(596,145.333,o),
(520.333,51,o),
(399,51,cs),
(289.667,51,o),
(219,128.667,o),
(219,250,cs),
(219,595,ls),
(219,640.333,o),
(242.667,665,o),
(290,669,cs),
(313,671,l),
(313,700,l),
(20,700,l),
(20,671,l),
(43,669,ls),
(90.333,665,o),
(114,640.333,o),
(114,595,cs),
(114,230,ls),
(114,82.367,o),
(213.623,-11,o),
(372,-11,cs)
);
},
{
closed = 1;
nodes = (
(251,765,l),
(417,873,l),
(453,873,l),
(403,838,l),
(561,765,l),
(565,765,l),
(461,915,l),
(351,915,l),
(247,765,l)
);
}
);
width = 763;
}
);
note = Ucircumflex;
unicode = 219;
},
{
glyphname = Udieresis;
kernLeft = U;
kernRight = J;
lastChange = "2023-10-03 16:56:15 +0000";
layers = (
{
layerId = m01;
shapes = (
{
closed = 1;
nodes = (
(541.505,-11,o),
(649,102.733,o),
(649,283,cs),
(649,584,ls),
(649,634.667,o),
(672,661.333,o),
(720,668,cs),
(743,671,l),
(743,700,l),
(501,700,l),
(501,671,l),
(524,668,ls),
(572,662,o),
(596,634,o),
(596,584,cs),
(596,296,ls),
(596,145.333,o),
(520.333,51,o),
(399,51,cs),
(289.667,51,o),
(219,128.667,o),
(219,250,cs),
(219,595,ls),
(219,640.333,o),
(242.667,665,o),
(290,669,cs),
(313,671,l),
(313,700,l),
(20,700,l),
(20,671,l),
(43,669,ls),
(90.333,665,o),
(114,640.333,o),
(114,595,cs),
(114,230,ls),
(114,82.367,o),
(213.623,-11,o),
(372,-11,cs)
);
},
{
closed = 1;
nodes = (
(358,805,l),
(358,904,l),
(260,904,l),
(260,805,l)
);
},
{
closed = 1;
nodes = (
(552,805,l),
(552,904,l),
(454,904,l),
(454,805,l)
);
}
);
width = 763;
}
);
note = Udieresis;
unicode = 220;
},
{
glyphname = Ugrave;
kernLeft = U;
kernRight = J;
lastChange = "2023-10-03 16:37:10 +0000";
layers = (
{
layerId = m01;
shapes = (
{
closed = 1;
nodes = (
(541.505,-11,o),
(649,102.733,o),
(649,283,cs),
(649,584,ls),
(649,634.667,o),
(672,661.333,o),
(720,668,cs),
(743,671,l),
(743,700,l),
(501,700,l),
(501,671,l),
(524,668,ls),
(572,662,o),
(596,634,o),
(596,584,cs),
(596,296,ls),
(596,145.333,o),
(520.333,51,o),
(399,51,cs),
(289.667,51,o),
(219,128.667,o),
(219,250,cs),
(219,595,ls),
(219,640.333,o),
(242.667,665,o),
(290,669,cs),
(313,671,l),
(313,700,l),
(20,700,l),
(20,671,l),
(43,669,ls),
(90.333,665,o),
(114,640.333,o),
(114,595,cs),
(114,230,ls),
(114,82.367,o),
(213.623,-11,o),
(372,-11,cs)
);
},
{
closed = 1;
nodes = (
(477,765,l),
(481,765,l),
(388,901,ls),
(362.667,937,o),
(346.667,950,o),
(320,950,cs),
(290.667,950,o),
(272,930,o),
(272,906,cs),
(272,887.333,o),
(284,868.667,o),
(304,858,cs)
);
}
);
width = 763;
}
);
note = Ugrave;
unicode = 217;
},
{
glyphname = Yacute;
kernLeft = Y;
kernRight = Y;
lastChange = "2023-10-03 16:56:25 +0000";
layers = (
{
layerId = m01;
shapes = (
{
closed = 1;
nodes = (
(369,312,l),
(356,327,l),
(376,357,l),
(223,588,ls),
(213,604,o),
(208,618,o),
(208,630,cs),
(208,651.333,o),
(221.667,665.333,o),
(247,668,cs),
(272,671,l),
(272,700,l),
(21,700,l),
(21,673,l),
(49,667.667,o),
(71,649,o),
(95,613,cs),
(314,285,l),
(314,105,ls),
(314,59.667,o),
(290.333,35,o),
(243,31,cs),
(220,29,l),
(220,0,l),
(511,0,l),
(511,29,l),
(488,31,ls),
(440.667,35,o),
(417,59.667,o),
(417,105,cs),
(417,313,l),
(610,599,ls),
(639.333,643,o),
(664.333,665,o),
(695,673,c),
(695,700,l),
(486,700,l),
(486,671,l),
(503,669,ls),
(539.667,665,o),
(558,649.667,o),
(558,623,cs),
(558,606.333,o),
(550.667,587.333,o),
(536,566,cs)
);
},
{
closed = 1;
nodes = (
(396,901,ls),
(421.333,937,o),
(437.333,950,o),
(464,950,cs),
(493.333,950,o),
(512,930,o),
(512,906,cs),
(512,887.333,o),
(500,868.667,o),
(480,858,cs),
(307,765,l),
(303,765,l)
);
}
);
width = 716;
}
);
note = Yacute;
unicode = 221;
},
{
glyphname = Ydieresis;
kernLeft = Y;
kernRight = Y;
lastChange = "2023-10-03 16:56:35 +0000";
layers = (
{
layerId = m01;
shapes = (
{
closed = 1;
nodes = (
(369,312,l),
(356,327,l),
(376,357,l),
(223,588,ls),
(213,604,o),
(208,618,o),
(208,630,cs),
(208,651.333,o),
(221.667,665.333,o),
(247,668,cs),
(272,671,l),
(272,700,l),
(21,700,l),
(21,673,l),
(49,667.667,o),
(71,649,o),
(95,613,cs),
(314,285,l),
(314,105,ls),
(314,59.667,o),
(290.333,35,o),
(243,31,cs),
(220,29,l),
(220,0,l),
(511,0,l),
(511,29,l),
(488,31,ls),
(440.667,35,o),
(417,59.667,o),
(417,105,cs),
(417,313,l),
(610,599,ls),
(639.333,643,o),
(664.333,665,o),
(695,673,c),
(695,700,l),
(486,700,l),
(486,671,l),
(503,669,ls),
(539.667,665,o),
(558,649.667,o),
(558,623,cs),
(558,606.333,o),
(550.667,587.333,o),
(536,566,cs)
);
},
{
closed = 1;
nodes = (
(330,805,l),
(330,904,l),
(232,904,l),
(232,805,l)
);
},
{
closed = 1;
nodes = (
(524,805,l),
(524,904,l),
(426,904,l),
(426,805,l)
);
}
);
width = 716;
}
);
note = Ydieresis;
unicode = 376;
},
{
glyphname = Zcaron;
kernLeft = Z;
kernRight = Z;
lastChange = "2023-10-03 16:56:42 +0000";
layers = (
{
layerId = m01;
shapes = (
{
closed = 1;
nodes = (
(420,640,l),
(13,0,l),
(561,0,l),
(593,249,l),
(560,249,l),
(542,184,ls),
(515.333,85.333,o),
(464.333,41,o),
(383,41,cs),
(120,41,l),
(132,60,l),
(165,60,l),
(573,700,l),
(56,700,l),
(44,456,l),
(76,456,l),
(98,535,ls),
(122,621.667,o),
(165.667,659,o),
(243,659,cs),
(466,659,l),
(454,640,l)
);
},
{
closed = 1;
nodes = (
(256,778,l),
(366,778,l),
(470,928,l),
(466,928,l),
(300,820,l),
(264,820,l),
(314,855,l),
(156,928,l),
(152,928,l)
);
}
);
width = 610;
}
);
note = Zcaron;
unicode = 381;
},
{
glyphname = aacute;
kernLeft = a;
kernRight = a;
lastChange = "2023-10-03 16:56:48 +0000";
layers = (
{
layerId = m01;
shapes = (
{
closed = 1;
nodes = (
(317,59,l),
(318.333,17.667,o),
(344.667,-6,o),
(390,-6,cs),
(428.667,-6,o),
(472.667,25.667,o),
(490,67,c),
(488,68,l),
(472,53.333,o),
(458,48,o),
(438,48,cs),
(419.333,48,o),
(406,60.667,o),
(406,82,cs),
(406,336,ls),
(406,429.333,o),
(344.333,480,o),
(231,480,cs),
(133.309,480,o),
(53,422.391,o),
(53,362,cs),
(53,332.667,o),
(74.667,310,o),
(100,310,cs),
(132,310,o),
(152,330,o),
(152,370,cs),
(152,378,o),
(151.667,384,o),
(151,388,c),
(120,388,l),
(125.333,418.667,o),
(170,441,o),
(222,441,cs),
(278,441,o),
(315,400.667,o),
(315,338,cs),
(315,292,l),
(161,240,ls),
(66.333,208,o),
(34,174.333,o),
(34,109,cs),
(34,34.333,o),
(84.333,-10,o),
(167,-10,cs),
(228.333,-10,o),
(271.333,17.667,o),
(330,107,cs),
(340,122,l),
(340,95,l)
);
},
{
closed = 1;
nodes = (
(125,174,o),
(148,201.333,o),
(212,224,cs),
(315,260,l),
(315,126,l),
(287,76.667,o),
(242.333,43,o),
(201,43,cs),
(155.667,43,o),
(125,75.333,o),
(125,122,cs)
);
},
{
closed = 1;
nodes = (
(246,671,ls),
(271.333,707,o),
(287.333,720,o),
(314,720,cs),
(343.333,720,o),
(362,700,o),
(362,676,cs),
(362,657.333,o),
(350,638.667,o),
(330,628,cs),
(157,535,l),
(153,535,l)
);
}
);
width = 501;
}
);
note = aacute;
unicode = 225;
},
{
glyphname = acircumflex;
kernLeft = a;
kernRight = a;
lastChange = "2023-10-03 16:56:55 +0000";
layers = (
{
layerId = m01;
shapes = (
{
closed = 1;
nodes = (
(317,59,l),
(318.333,17.667,o),
(344.667,-6,o),
(390,-6,cs),
(428.667,-6,o),
(472.667,25.667,o),
(490,67,c),
(488,68,l),
(472,53.333,o),
(458,48,o),
(438,48,cs),
(419.333,48,o),
(406,60.667,o),
(406,82,cs),
(406,336,ls),
(406,429.333,o),
(344.333,480,o),
(231,480,cs),
(133.309,480,o),
(53,422.391,o),
(53,362,cs),
(53,332.667,o),
(74.667,310,o),
(100,310,cs),
(132,310,o),
(152,330,o),
(152,370,cs),
(152,378,o),
(151.667,384,o),
(151,388,c),
(120,388,l),
(125.333,418.667,o),
(170,441,o),
(222,441,cs),
(278,441,o),
(315,400.667,o),
(315,338,cs),
(315,292,l),
(161,240,ls),
(66.333,208,o),
(34,174.333,o),
(34,109,cs),
(34,34.333,o),
(84.333,-10,o),
(167,-10,cs),
(228.333,-10,o),
(271.333,17.667,o),
(330,107,cs),
(340,122,l),
(340,95,l)
);
},
{
closed = 1;
nodes = (
(73,535,l),
(239,643,l),
(275,643,l),
(225,608,l),
(383,535,l),
(387,535,l),
(283,685,l),
(173,685,l),
(69,535,l)
);
},
{
closed = 1;
nodes = (
(125,174,o),
(148,201.333,o),
(212,224,cs),
(315,260,l),
(315,126,l),
(287,76.667,o),
(242.333,43,o),
(201,43,cs),
(155.667,43,o),
(125,75.333,o),
(125,122,cs)
);
}
);
width = 501;
}
);
note = acircumflex;
unicode = 226;
},
{
glyphname = adieresis;
kernLeft = a;
kernRight = a;
lastChange = "2023-10-03 16:57:01 +0000";
layers = (
{
layerId = m01;
shapes = (
{
closed = 1;
nodes = (
(317,59,l),
(318.333,17.667,o),
(344.667,-6,o),
(390,-6,cs),
(428.667,-6,o),
(472.667,25.667,o),
(490,67,c),
(488,68,l),
(472,53.333,o),
(458,48,o),
(438,48,cs),
(419.333,48,o),
(406,60.667,o),
(406,82,cs),
(406,336,ls),
(406,429.333,o),
(344.333,480,o),
(231,480,cs),
(133.309,480,o),
(53,422.391,o),
(53,362,cs),
(53,332.667,o),
(74.667,310,o),
(100,310,cs),
(132,310,o),
(152,330,o),
(152,370,cs),
(152,378,o),
(151.667,384,o),
(151,388,c),
(120,388,l),
(125.333,418.667,o),
(170,441,o),
(222,441,cs),
(278,441,o),
(315,400.667,o),
(315,338,cs),
(315,292,l),
(161,240,ls),
(66.333,208,o),
(34,174.333,o),
(34,109,cs),
(34,34.333,o),
(84.333,-10,o),
(167,-10,cs),
(228.333,-10,o),
(271.333,17.667,o),
(330,107,cs),
(340,122,l),
(340,95,l),
(340,95,l)
);
},
{
closed = 1;
nodes = (
(180,575,l),
(180,674,l),
(82,674,l),
(82,575,l)
);
},
{
closed = 1;
nodes = (
(125,174,o),
(148,201.333,o),
(212,224,cs),
(315,260,l),
(315,126,l),
(287,76.667,o),
(242.333,43,o),
(201,43,cs),
(155.667,43,o),
(125,75.333,o),
(125,122,cs)
);
},
{
closed = 1;
nodes = (
(374,575,l),
(374,674,l),
(276,674,l),
(276,575,l)
);
}
);
width = 501;
}
);
note = adieresis;
unicode = 228;
},
{
glyphname = agrave;
kernLeft = a;
kernRight = a;
lastChange = "2023-10-03 16:57:07 +0000";
layers = (
{
layerId = m01;
shapes = (
{
closed = 1;
nodes = (
(317,59,l),
(318.333,17.667,o),
(344.667,-6,o),
(390,-6,cs),
(428.667,-6,o),
(472.667,25.667,o),
(490,67,c),
(488,68,l),
(472,53.333,o),
(458,48,o),
(438,48,cs),
(419.333,48,o),
(406,60.667,o),
(406,82,cs),
(406,336,ls),
(406,429.333,o),
(344.333,480,o),
(231,480,cs),
(133.309,480,o),
(53,422.391,o),
(53,362,cs),
(53,332.667,o),
(74.667,310,o),
(100,310,cs),
(132,310,o),
(152,330,o),
(152,370,cs),
(152,378,o),
(151.667,384,o),
(151,388,c),
(120,388,l),
(125.333,418.667,o),
(170,441,o),
(222,441,cs),
(278,441,o),
(315,400.667,o),
(315,338,cs),
(315,292,l),
(161,240,ls),
(66.333,208,o),
(34,174.333,o),
(34,109,cs),
(34,34.333,o),
(84.333,-10,o),
(167,-10,cs),
(228.333,-10,o),
(271.333,17.667,o),
(330,107,cs),
(340,122,l),
(340,95,l)
);
},
{
closed = 1;
nodes = (
(125,174,o),
(148,201.333,o),
(212,224,cs),
(315,260,l),
(315,126,l),
(287,76.667,o),
(242.333,43,o),
(201,43,cs),
(155.667,43,o),
(125,75.333,o),
(125,122,cs)
);
},
{
closed = 1;
nodes = (
(299,535,l),
(303,535,l),
(210,671,ls),
(184.667,707,o),
(168.667,720,o),
(142,720,cs),
(112.667,720,o),
(94,700,o),
(94,676,cs),
(94,657.333,o),
(106,638.667,o),
(126,628,cs)
);
}
);
width = 501;
}
);
note = agrave;
unicode = 224;
},
{
glyphname = aring;
kernLeft = a;
kernRight = a;
lastChange = "2023-10-03 16:57:12 +0000";
layers = (
{
layerId = m01;
shapes = (
{
closed = 1;
nodes = (
(317,59,l),
(318.333,17.667,o),
(344.667,-6,o),
(390,-6,cs),
(428.667,-6,o),
(472.667,25.667,o),
(490,67,c),
(488,68,l),
(472,53.333,o),
(458,48,o),
(438,48,cs),
(419.333,48,o),
(406,60.667,o),
(406,82,cs),
(406,336,ls),
(406,429.333,o),
(344.333,480,o),
(231,480,cs),
(133.309,480,o),
(53,422.391,o),
(53,362,cs),
(53,332.667,o),
(74.667,310,o),
(100,310,cs),
(132,310,o),
(152,330,o),
(152,370,cs),
(152,378,o),
(151.667,384,o),
(151,388,c),
(120,388,l),
(125.333,418.667,o),
(170,441,o),
(222,441,cs),
(278,441,o),
(315,400.667,o),
(315,338,cs),
(315,292,l),
(161,240,ls),
(66.333,208,o),
(34,174.333,o),
(34,109,cs),
(34,34.333,o),
(84.333,-10,o),
(167,-10,cs),
(228.333,-10,o),
(271.333,17.667,o),
(330,107,cs),
(340,122,l),
(340,95,l)
);
},
{
closed = 1;
nodes = (
(125,174,o),
(148,201.333,o),
(212,224,cs),
(315,260,l),
(315,126,l),
(287,76.667,o),
(242.333,43,o),
(201,43,cs),
(155.667,43,o),
(125,75.333,o),
(125,122,cs)
);
},
{
closed = 1;
nodes = (
(129,564.333,o),
(172,523,o),
(228,523,cs),
(284,523,o),
(327,564.333,o),
(327,615,cs),
(327,669.667,o),
(284,710,o),
(228,710,cs),
(172,710,o),
(129,669.667,o),
(129,615,cs)
);
},
{
closed = 1;
nodes = (
(169,649.667,o),
(190.667,674,o),
(228,674,cs),
(265.333,674,o),
(287,649.667,o),
(287,615,cs),
(287,583,o),
(264,558,o),
(228,558,cs),
(192,558,o),
(169,583,o),
(169,615,cs)
);
}
);
width = 501;
}
);
note = aring;
unicode = 229;
},
{
glyphname = atilde;
kernLeft = a;
kernRight = a;
lastChange = "2023-10-03 16:57:16 +0000";
layers = (
{
layerId = m01;
shapes = (
{
closed = 1;
nodes = (
(317,59,l),
(318.333,17.667,o),
(344.667,-6,o),
(390,-6,cs),
(428.667,-6,o),
(472.667,25.667,o),
(490,67,c),
(488,68,l),
(472,53.333,o),
(458,48,o),
(438,48,cs),
(419.333,48,o),
(406,60.667,o),
(406,82,cs),
(406,336,ls),
(406,429.333,o),
(344.333,480,o),
(231,480,cs),
(133.309,480,o),
(53,422.391,o),
(53,362,cs),
(53,332.667,o),
(74.667,310,o),
(100,310,cs),
(132,310,o),
(152,330,o),
(152,370,cs),
(152,378,o),
(151.667,384,o),
(151,388,c),
(120,388,l),
(125.333,418.667,o),
(170,441,o),
(222,441,cs),
(278,441,o),
(315,400.667,o),
(315,338,cs),
(315,292,l),
(161,240,ls),
(66.333,208,o),
(34,174.333,o),
(34,109,cs),
(34,34.333,o),
(84.333,-10,o),
(167,-10,cs),
(228.333,-10,o),
(271.333,17.667,o),
(330,107,cs),
(340,122,l),
(340,95,l)
);
},
{
closed = 1;
nodes = (
(51,550,l),
(79,598,o),
(103.667,615,o),
(129,615,cs),
(150.333,615,o),
(172.333,604.333,o),
(211,583,cs),
(249.667,561.667,o),
(272.333,550,o),
(295,550,cs),
(344.333,550,o),
(378.333,592.667,o),
(409,694,c),
(405,694,l),
(377,647.333,o),
(352.333,630,o),
(327,630,cs),
(307,630,o),
(283.667,641,o),
(249,661,cs),
(210.333,683.667,o),
(185,695,o),
(161,695,cs),
(111.667,695,o),
(77.667,651.333,o),
(47,550,c)
);
},
{
closed = 1;
nodes = (
(125,174,o),
(148,201.333,o),
(212,224,cs),
(315,260,l),
(315,126,l),
(287,76.667,o),
(242.333,43,o),
(201,43,cs),
(155.667,43,o),
(125,75.333,o),
(125,122,cs)
);
}
);
width = 501;
}
);
note = atilde;
unicode = 227;
},
{
glyphname = ccedilla;
kernLeft = c;
kernRight = c;
lastChange = "2023-10-03 16:57:21 +0000";
layers = (
{
layerId = m01;
shapes = (
{
closed = 1;
nodes = (
(169,-189,l),
(187,-199.667,o),
(208.333,-205,o),
(233,-205,cs),
(293,-205,o),
(337,-173.667,o),
(337,-131,cs),
(337,-104.333,o),
(323.667,-80.333,o),
(273,-51,cs),
(266,-47,l),
(249,-76,l),
(230,-65,l),
(262,-10,l),
(336.667,-3.333,o),
(397.667,51.333,o),
(419,134,c),
(417,135,l),
(378.333,75,o),
(339.667,53,o),
(273,53,cs),
(192.308,53,o),
(128,133.344,o),
(128,255,cs),
(128,371,o),
(176.333,440,o),
(255,440,cs),
(304.333,440,o),
(339,418.333,o),
(343,385,c),
(322,385,l),
(320.667,375.667,o),
(320,369,o),
(320,365,cs),
(320,330.333,o),
(339.667,311,o),
(373,311,cs),
(401,311,o),
(423,333.667,o),
(423,363,cs),
(423,424.147,o),
(354.274,481,o),
(259,481,cs),
(129.746,481,o),
(30,370.523,o),
(30,228,cs),
(30,96.371,o),
(109.818,1.188,o),
(228,-9,c),
(185,-80,l),
(233,-109,ls),
(252.333,-121,o),
(262,-134,o),
(262,-148,cs),
(262,-170.667,o),
(235,-186,o),
(187,-186,cs),
(169,-185,l)
);
}
);
width = 442;
}
);
note = ccedilla;
unicode = 231;
},
{
glyphname = eacute;
kernLeft = c;
kernRight = e;
lastChange = "2023-10-03 16:57:31 +0000";
layers = (
{
layerId = m01;
shapes = (
{
closed = 1;
nodes = (
(438,266,l),
(442.1,393.091,o),
(363.995,480,o),
(248,480,cs),
(135.412,480,o),
(30,375.392,o),
(30,229,cs),
(30,81.809,o),
(126.167,-10,o),
(260,-10,cs),
(344,-10,o),
(411.667,47.333,o),
(429,134,c),
(427,135,l),
(396.333,79.667,o),
(346.667,52,o),
(278,52,cs),
(191.261,52,o),
(128.996,133.226,o),
(127,247,c),
(95,247,l),
(95,266,l)
);
},
{
closed = 1;
nodes = (
(138.333,390.333,o),
(178.333,440,o),
(241,440,cs),
(298.333,440,o),
(340,382.333,o),
(340,301,c),
(129,301,l)
);
},
{
closed = 1;
nodes = (
(259,671,ls),
(284.333,707,o),
(300.333,720,o),
(327,720,cs),
(356.333,720,o),
(375,700,o),
(375,676,cs),
(375,657.333,o),
(363,638.667,o),
(343,628,cs),
(170,535,l),
(166,535,l)
);
}
);
width = 473;
}
);
note = eacute;
unicode = 233;
},
{
glyphname = ecircumflex;
kernLeft = c;
kernRight = e;
lastChange = "2023-10-03 16:57:38 +0000";
layers = (
{
layerId = m01;
shapes = (
{
closed = 1;
nodes = (
(438,266,l),
(442.1,393.091,o),
(363.995,480,o),
(248,480,cs),
(135.412,480,o),
(30,375.392,o),
(30,229,cs),
(30,81.809,o),
(126.167,-10,o),
(260,-10,cs),
(344,-10,o),
(411.667,47.333,o),
(429,134,c),
(427,135,l),
(396.333,79.667,o),
(346.667,52,o),
(278,52,cs),
(191.261,52,o),
(128.996,133.226,o),
(127,247,c),
(95,247,l),
(95,266,l)
);
},
{
closed = 1;
nodes = (
(86,535,l),
(252,643,l),
(288,643,l),
(238,608,l),
(396,535,l),
(400,535,l),
(296,685,l),
(186,685,l),
(82,535,l)
);
},
{
closed = 1;
nodes = (
(138.333,390.333,o),
(178.333,440,o),
(241,440,cs),
(298.333,440,o),
(340,382.333,o),
(340,301,c),
(129,301,l)
);
}
);
width = 473;
}
);
note = ecircumflex;
unicode = 234;
},
{
glyphname = edieresis;
kernLeft = c;
kernRight = e;
lastChange = "2023-10-03 16:57:45 +0000";
layers = (
{
layerId = m01;
shapes = (
{
closed = 1;
nodes = (
(438,266,l),
(442.1,393.091,o),
(363.995,480,o),
(248,480,cs),
(135.412,480,o),
(30,375.392,o),
(30,229,cs),
(30,81.809,o),
(126.167,-10,o),
(260,-10,cs),
(344,-10,o),
(411.667,47.333,o),
(429,134,c),
(427,135,l),
(396.333,79.667,o),
(346.667,52,o),
(278,52,cs),
(191.261,52,o),
(128.996,133.226,o),
(127,247,c),
(95,247,l),
(95,266,l)
);
},
{
closed = 1;
nodes = (
(193,575,l),
(193,674,l),
(95,674,l),
(95,575,l)
);
},
{
closed = 1;
nodes = (
(138.333,390.333,o),
(178.333,440,o),
(241,440,cs),
(298.333,440,o),
(340,382.333,o),
(340,301,c),
(129,301,l)
);
},
{
closed = 1;
nodes = (
(387,575,l),
(387,674,l),
(289,674,l),
(289,575,l)
);
}
);
width = 473;
}
);
note = edieresis;
unicode = 235;
},
{
glyphname = egrave;
kernLeft = c;
kernRight = e;
lastChange = "2023-10-03 16:57:50 +0000";
layers = (
{
layerId = m01;
shapes = (
{
closed = 1;
nodes = (
(438,266,l),
(442.1,393.091,o),
(363.995,480,o),
(248,480,cs),
(135.412,480,o),
(30,375.392,o),
(30,229,cs),
(30,81.809,o),
(126.167,-10,o),
(260,-10,cs),
(344,-10,o),
(411.667,47.333,o),
(429,134,c),
(427,135,l),
(396.333,79.667,o),
(346.667,52,o),
(278,52,cs),
(191.261,52,o),
(128.996,133.226,o),
(127,247,c),
(95,247,l),
(95,266,l)
);
},
{
closed = 1;
nodes = (
(138.333,390.333,o),
(178.333,440,o),
(241,440,cs),
(298.333,440,o),
(340,382.333,o),
(340,301,c),
(129,301,l)
);
},
{
closed = 1;
nodes = (
(312,535,l),
(316,535,l),
(223,671,ls),
(197.667,707,o),
(181.667,720,o),
(155,720,cs),
(125.667,720,o),
(107,700,o),
(107,676,cs),
(107,657.333,o),
(119,638.667,o),
(139,628,cs)
);
}
);
width = 473;
}
);
note = egrave;
unicode = 232;
},
{
glyphname = iacute;
kernLeft = i;
kernRight = d;
lastChange = "2023-10-03 16:57:55 +0000";
layers = (
{
layerId = m01;
shapes = (
{
closed = 1;
nodes = (
(195,480,l),
(21,435,l),
(57,418,ls),
(95.667,399.333,o),
(103,390.667,o),
(103,364,cs),
(103,95,ls),
(103,54.333,o),
(83.667,32,o),
(45,28,cs),
(24,26,l),
(24,0,l),
(274,0,l),
(274,26,l),
(253,28,ls),
(214.333,32,o),
(195,54.333,o),
(195,95,cs)
);
},
{
closed = 1;
nodes = (
(166,671,ls),
(191.333,707,o),
(207.333,720,o),
(234,720,cs),
(263.333,720,o),
(282,700,o),
(282,676,cs),
(282,657.333,o),
(270,638.667,o),
(250,628,cs),
(77,535,l),
(73,535,l)
);
}
);
width = 294;
}
);
note = iacute;
unicode = 237;
},
{
glyphname = icircumflex;
kernLeft = i;
kernRight = d;
lastChange = "2023-10-03 16:58:01 +0000";
layers = (
{
layerId = m01;
shapes = (
{
closed = 1;
nodes = (
(195,480,l),
(21,435,l),
(57,418,ls),
(95.667,399.333,o),
(103,390.667,o),
(103,364,cs),
(103,95,ls),
(103,54.333,o),
(83.667,32,o),
(45,28,cs),
(24,26,l),
(24,0,l),
(274,0,l),
(274,26,l),
(253,28,ls),
(214.333,32,o),
(195,54.333,o),
(195,95,cs)
);
},
{
closed = 1;
nodes = (
(-7,535,l),
(159,643,l),
(195,643,l),
(145,608,l),
(303,535,l),
(307,535,l),
(203,685,l),
(93,685,l),
(-11,535,l)
);
}
);
width = 294;
}
);
note = icircumflex;
unicode = 238;
},
{
glyphname = idieresis;
kernLeft = i;
kernRight = d;
lastChange = "2023-10-03 16:58:06 +0000";
layers = (
{
layerId = m01;
shapes = (
{
closed = 1;
nodes = (
(195,480,l),
(21,435,l),
(57,418,ls),
(95.667,399.333,o),
(103,390.667,o),
(103,364,cs),
(103,95,ls),
(103,54.333,o),
(83.667,32,o),
(45,28,cs),
(24,26,l),
(24,0,l),
(274,0,l),
(274,26,l),
(253,28,ls),
(214.333,32,o),
(195,54.333,o),
(195,95,cs)
);
},
{
closed = 1;
nodes = (
(100,575,l),
(100,674,l),
(2,674,l),
(2,575,l)
);
},
{
closed = 1;
nodes = (
(294,575,l),
(294,674,l),
(196,674,l),
(196,575,l)
);
}
);
width = 294;
}
);
note = idieresis;
unicode = 239;
},
{
glyphname = igrave;
kernLeft = i;
kernRight = d;
lastChange = "2023-10-03 16:37:10 +0000";
layers = (
{
layerId = m01;
shapes = (
{
closed = 1;
nodes = (
(195,480,l),
(21,435,l),
(57,418,ls),
(95.667,399.333,o),
(103,390.667,o),
(103,364,cs),
(103,95,ls),
(103,54.333,o),
(83.667,32,o),
(45,28,cs),
(24,26,l),
(24,0,l),
(274,0,l),
(274,26,l),
(253,28,ls),
(214.333,32,o),
(195,54.333,o),
(195,95,cs)
);
},
{
closed = 1;
nodes = (
(219,535,l),
(223,535,l),
(130,671,ls),
(104.667,707,o),
(88.667,720,o),
(62,720,cs),
(32.667,720,o),
(14,700,o),
(14,676,cs),
(14,657.333,o),
(26,638.667,o),
(46,628,cs)
);
}
);
width = 294;
}
);
note = igrave;
unicode = 236;
},
{
glyphname = ntilde;
kernLeft = m;
kernRight = a;
lastChange = "2023-10-03 16:37:10 +0000";
layers = (
{
layerId = m01;
shapes = (
{
closed = 1;
nodes = (
(103,95,ls),
(103,54.333,o),
(83.667,32,o),
(45,28,cs),
(24,26,l),
(24,0,l),
(266,0,l),
(266,26,l),
(248,28,ls),
(212.667,32,o),
(195,54.333,o),
(195,95,cs),
(195,354,l),
(225.667,394,o),
(266.667,418,o),
(308,418,cs),
(365.333,418,o),
(398,383.667,o),
(398,325,cs),
(398,95,ls),
(398,54.333,o),
(380.333,32,o),
(345,28,cs),
(327,26,l),
(327,0,l),
(569,0,l),
(569,26,l),
(548,28,ls),
(509.333,32,o),
(490,54.333,o),
(490,95,cs),
(490,332,ls),
(490,425.333,o),
(438.667,481,o),
(352,481,cs),
(292,481,o),
(232,443,o),
(184,375,cs),
(164,348,l),
(164,379,l),
(195,421,l),
(195,480,l),
(21,435,l),
(57,418,ls),
(95.667,399.333,o),
(103,390.667,o),
(103,364,cs)
);
},
{
closed = 1;
nodes = (
(122,550,l),
(150,598,o),
(174.667,615,o),
(200,615,cs),
(221.333,615,o),
(243.333,604.333,o),
(282,583,cs),
(320.667,561.667,o),
(343.333,550,o),
(366,550,cs),
(415.333,550,o),
(449.333,592.667,o),
(480,694,c),
(476,694,l),
(448,647.333,o),
(423.333,630,o),
(398,630,cs),
(378,630,o),
(354.667,641,o),
(320,661,cs),
(281.333,683.667,o),
(256,695,o),
(232,695,cs),
(182.667,695,o),
(148.667,651.333,o),
(118,550,c)
);
}
);
width = 585;
}
);
note = ntilde;
unicode = 241;
},
{
glyphname = oacute;
kernLeft = c;
kernRight = b;
lastChange = "2023-10-03 16:58:18 +0000";
layers = (
{
layerId = m01;
shapes = (
{
closed = 1;
nodes = (
(127.629,481,o),
(30,372.655,o),
(30,232,cs),
(30,91.886,o),
(125.862,-11,o),
(258,-11,cs),
(380.857,-11,o),
(486,90.253,o),
(486,238,cs),
(486,378.114,o),
(390.138,481,o),
(258,481,cs)
);
},
{
closed = 1;
nodes = (
(130,367.333,o),
(176,439,o),
(252,439,cs),
(333.333,439,o),
(386,353.333,o),
(386,220,cs),
(386,102.667,o),
(339.333,31,o),
(262,31,cs),
(182,31,o),
(130,116.667,o),
(130,250,cs)
);
},
{
closed = 1;
nodes = (
(274,671,ls),
(299.333,707,o),
(315.333,720,o),
(342,720,cs),
(371.333,720,o),
(390,700,o),
(390,676,cs),
(390,657.333,o),
(378,638.667,o),
(358,628,cs),
(185,535,l),
(181,535,l)
);
}
);
width = 516;
}
);
note = oacute;
unicode = 243;
},
{
glyphname = ocircumflex;
kernLeft = c;
kernRight = b;
lastChange = "2023-10-03 16:58:25 +0000";
layers = (
{
layerId = m01;
shapes = (
{
closed = 1;
nodes = (
(127.629,481,o),
(30,372.655,o),
(30,232,cs),
(30,91.886,o),
(125.862,-11,o),
(258,-11,cs),
(380.857,-11,o),
(486,90.253,o),
(486,238,cs),
(486,378.114,o),
(390.138,481,o),
(258,481,cs)
);
},
{
closed = 1;
nodes = (
(101,535,l),
(267,643,l),
(303,643,l),
(253,608,l),
(411,535,l),
(415,535,l),
(311,685,l),
(201,685,l),
(97,535,l)
);
},
{
closed = 1;
nodes = (
(130,367.333,o),
(176,439,o),
(252,439,cs),
(333.333,439,o),
(386,353.333,o),
(386,220,cs),
(386,102.667,o),
(339.333,31,o),
(262,31,cs),
(182,31,o),
(130,116.667,o),
(130,250,cs)
);
}
);
width = 516;
}
);
note = ocircumflex;
unicode = 244;
},
{
glyphname = odieresis;
kernLeft = c;
kernRight = b;
lastChange = "2023-10-03 16:58:34 +0000";
layers = (
{
layerId = m01;
shapes = (
{
closed = 1;
nodes = (
(127.629,481,o),
(30,372.655,o),
(30,232,cs),
(30,91.886,o),
(125.862,-11,o),
(258,-11,cs),
(380.857,-11,o),
(486,90.253,o),
(486,238,cs),
(486,378.114,o),
(390.138,481,o),
(258,481,cs)
);
},
{
closed = 1;
nodes = (
(208,575,l),
(208,674,l),
(110,674,l),
(110,575,l)
);
},
{
closed = 1;
nodes = (
(130,367.333,o),
(176,439,o),
(252,439,cs),
(333.333,439,o),
(386,353.333,o),
(386,220,cs),
(386,102.667,o),
(339.333,31,o),
(262,31,cs),
(182,31,o),
(130,116.667,o),
(130,250,cs)
);
},
{
closed = 1;
nodes = (
(402,575,l),
(402,674,l),
(304,674,l),
(304,575,l)
);
}
);
width = 516;
}
);
note = odieresis;
unicode = 246;
},
{
glyphname = ograve;
kernLeft = c;
kernRight = b;
lastChange = "2023-10-03 16:37:10 +0000";
layers = (
{
layerId = m01;
shapes = (
{
closed = 1;
nodes = (
(127.629,481,o),
(30,372.655,o),
(30,232,cs),
(30,91.886,o),
(125.862,-11,o),
(258,-11,cs),
(380.857,-11,o),
(486,90.253,o),
(486,238,cs),
(486,378.114,o),
(390.138,481,o),
(258,481,cs)
);
},
{
closed = 1;
nodes = (
(130,367.333,o),
(176,439,o),
(252,439,cs),
(333.333,439,o),
(386,353.333,o),
(386,220,cs),
(386,102.667,o),
(339.333,31,o),
(262,31,cs),
(182,31,o),
(130,116.667,o),
(130,250,cs)
);
},
{
closed = 1;
nodes = (
(327,535,l),
(331,535,l),
(238,671,ls),
(212.667,707,o),
(196.667,720,o),
(170,720,cs),
(140.667,720,o),
(122,700,o),
(122,676,cs),
(122,657.333,o),
(134,638.667,o),
(154,628,cs)
);
}
);
width = 516;
}
);
note = ograve;
unicode = 242;
},
{
glyphname = otilde;
kernLeft = c;
kernRight = b;
lastChange = "2023-10-03 16:37:10 +0000";
layers = (
{
layerId = m01;
shapes = (
{
closed = 1;
nodes = (
(127.629,481,o),
(30,372.655,o),
(30,232,cs),
(30,91.886,o),
(125.862,-11,o),
(258,-11,cs),
(380.857,-11,o),
(486,90.253,o),
(486,238,cs),
(486,378.114,o),
(390.138,481,o),
(258,481,cs)
);
},
{
closed = 1;
nodes = (
(79,550,l),
(107,598,o),
(131.667,615,o),
(157,615,cs),
(178.333,615,o),
(200.333,604.333,o),
(239,583,cs),
(277.667,561.667,o),
(300.333,550,o),
(323,550,cs),
(372.333,550,o),
(406.333,592.667,o),
(437,694,c),
(433,694,l),
(405,647.333,o),
(380.333,630,o),
(355,630,cs),
(335,630,o),
(311.667,641,o),
(277,661,cs),
(238.333,683.667,o),
(213,695,o),
(189,695,cs),
(139.667,695,o),
(105.667,651.333,o),
(75,550,c)
);
},
{
closed = 1;
nodes = (
(130,367.333,o),
(176,439,o),
(252,439,cs),
(333.333,439,o),
(386,353.333,o),
(386,220,cs),
(386,102.667,o),
(339.333,31,o),
(262,31,cs),
(182,31,o),
(130,116.667,o),
(130,250,cs)
);
}
);
width = 516;
}
);
note = otilde;
unicode = 245;
},
{
glyphname = scaron;
kernLeft = s;
kernRight = s;
lastChange = "2023-10-03 16:58:52 +0000";
layers = (
{
layerId = m01;
shapes = (
{
closed = 1;
nodes = (
(237.333,437,o),
(282,401.667,o),
(310,339,cs),
(325,306,l),
(359,306,l),
(357,483,l),
(292,458,l),
(302.667,450,o),
(312.667,440.667,o),
(322,430,c),
(322,401,l),
(283.333,451.667,o),
(239.667,478,o),
(181,478,cs),
(98.333,478,o),
(38,423,o),
(38,339,cs),
(38,281.667,o),
(73,239,o),
(137,215,cs),
(237,177,ls),
(282.333,159.667,o),
(306,138,o),
(306,106,cs),
(306,62,o),
(271.667,35,o),
(217,35,cs),
(158.333,35,o),
(112.667,69.333,o),
(82,132,cs),
(64,169,l),
(30,169,l),
(33,-14,l),
(99,18,l),
(91,25.333,o),
(82,34.333,o),
(72,45,c),
(72,73,l),
(114.667,19.667,o),
(161.333,-8,o),
(224,-8,cs),
(315.418,-8,o),
(383,53.915,o),
(383,137,cs),
(383,191.667,o),
(351.333,231.333,o),
(288,256,cs),
(172,302,ls),
(133.333,318,o),
(114,341.667,o),
(114,373,cs),
(114,411.667,o),
(142.667,437,o),
(184,437,cs)
);
},
{
closed = 1;
nodes = (
(140,548,l),
(250,548,l),
(354,698,l),
(350,698,l),
(184,590,l),
(148,590,l),
(198,625,l),
(40,698,l),
(36,698,l)
);
}
);
width = 409;
}
);
note = scaron;
unicode = 353;
},
{
glyphname = uacute;
kernLeft = u;
kernRight = a;
lastChange = "2023-10-03 16:58:57 +0000";
layers = (
{
layerId = m01;
shapes = (
{
closed = 1;
nodes = (
(187,480,l),
(13,435,l),
(49,418,ls),
(87.667,399.333,o),
(95,390.667,o),
(95,364,cs),
(95,139,ls),
(95,47,o),
(145,-10,o),
(233,-10,cs),
(296.333,-10,o),
(352.667,25.667,o),
(402,97,cs),
(421,124,l),
(421,93,l),
(390,50,l),
(390,-6,l),
(565,18,l),
(527,35,ls),
(493.667,49.667,o),
(482,64.667,o),
(482,98,cs),
(482,480,l),
(308,435,l),
(344,418,ls),
(382.667,399.333,o),
(390,390.667,o),
(390,364,cs),
(390,118,l),
(364.667,80.667,o),
(323.667,53,o),
(277,53,cs),
(217,53,o),
(187,90,o),
(187,146,cs)
);
},
{
closed = 1;
nodes = (
(303,671,ls),
(328.333,707,o),
(344.333,720,o),
(371,720,cs),
(400.333,720,o),
(419,700,o),
(419,676,cs),
(419,657.333,o),
(407,638.667,o),
(387,628,cs),
(214,535,l),
(210,535,l)
);
}
);
width = 581;
}
);
note = uacute;
unicode = 250;
},
{
glyphname = ucircumflex;
kernLeft = u;
kernRight = a;
lastChange = "2023-10-03 16:59:01 +0000";
layers = (
{
layerId = m01;
shapes = (
{
closed = 1;
nodes = (
(187,480,l),
(13,435,l),
(49,418,ls),
(87.667,399.333,o),
(95,390.667,o),
(95,364,cs),
(95,139,ls),
(95,47,o),
(145,-10,o),
(233,-10,cs),
(296.333,-10,o),
(352.667,25.667,o),
(402,97,cs),
(421,124,l),
(421,93,l),
(390,50,l),
(390,-6,l),
(565,18,l),
(527,35,ls),
(493.667,49.667,o),
(482,64.667,o),
(482,98,cs),
(482,480,l),
(308,435,l),
(344,418,ls),
(382.667,399.333,o),
(390,390.667,o),
(390,364,cs),
(390,118,l),
(364.667,80.667,o),
(323.667,53,o),
(277,53,cs),
(217,53,o),
(187,90,o),
(187,146,cs)
);
},
{
closed = 1;
nodes = (
(130,535,l),
(296,643,l),
(332,643,l),
(282,608,l),
(440,535,l),
(444,535,l),
(340,685,l),
(230,685,l),
(126,535,l)
);
}
);
width = 581;
}
);
note = ucircumflex;
unicode = 251;
},
{
glyphname = udieresis;
kernLeft = u;
kernRight = a;
lastChange = "2023-10-03 16:59:08 +0000";
layers = (
{
layerId = m01;
shapes = (
{
closed = 1;
nodes = (
(187,480,l),
(13,435,l),
(49,418,ls),
(87.667,399.333,o),
(95,390.667,o),
(95,364,cs),
(95,139,ls),
(95,47,o),
(145,-10,o),
(233,-10,cs),
(296.333,-10,o),
(352.667,25.667,o),
(402,97,cs),
(421,124,l),
(421,93,l),
(390,50,l),
(390,-6,l),
(565,18,l),
(527,35,ls),
(493.667,49.667,o),
(482,64.667,o),
(482,98,cs),
(482,480,l),
(308,435,l),
(344,418,ls),
(382.667,399.333,o),
(390,390.667,o),
(390,364,cs),
(390,118,l),
(364.667,80.667,o),
(323.667,53,o),
(277,53,cs),
(217,53,o),
(187,90,o),
(187,146,cs)
);
},
{
closed = 1;
nodes = (
(237,575,l),
(237,674,l),
(139,674,l),
(139,575,l)
);
},
{
closed = 1;
nodes = (
(431,575,l),
(431,674,l),
(333,674,l),
(333,575,l)
);
}
);
width = 581;
}
);
note = udieresis;
unicode = 252;
},
{
glyphname = ugrave;
kernLeft = u;
kernRight = a;
lastChange = "2023-10-03 16:37:10 +0000";
layers = (
{
layerId = m01;
shapes = (
{
closed = 1;
nodes = (
(187,480,l),
(13,435,l),
(49,418,ls),
(87.667,399.333,o),
(95,390.667,o),
(95,364,cs),
(95,139,ls),
(95,47,o),
(145,-10,o),
(233,-10,cs),
(296.333,-10,o),
(352.667,25.667,o),
(402,97,cs),
(421,124,l),
(421,93,l),
(390,50,l),
(390,-6,l),
(565,18,l),
(527,35,ls),
(493.667,49.667,o),
(482,64.667,o),
(482,98,cs),
(482,480,l),
(308,435,l),
(344,418,ls),
(382.667,399.333,o),
(390,390.667,o),
(390,364,cs),
(390,118,l),
(364.667,80.667,o),
(323.667,53,o),
(277,53,cs),
(217,53,o),
(187,90,o),
(187,146,cs)
);
},
{
closed = 1;
nodes = (
(356,535,l),
(360,535,l),
(267,671,ls),
(241.667,707,o),
(225.667,720,o),
(199,720,cs),
(169.667,720,o),
(151,700,o),
(151,676,cs),
(151,657.333,o),
(163,638.667,o),
(183,628,cs)
);
}
);
width = 581;
}
);
note = ugrave;
unicode = 249;
},
{
glyphname = yacute;
kernLeft = v;
kernRight = v;
lastChange = "2023-10-03 16:59:17 +0000";
layers = (
{
layerId = m01;
shapes = (
{
closed = 1;
nodes = (
(236,6,l),
(201,-67,ls),
(158.333,-157.667,o),
(124,-194,o),
(80,-194,cs),
(67,-194,l),
(67,-179,l),
(79,-179,l),
(83,-177.667,o),
(87,-167,o),
(87,-159,cs),
(87,-132.333,o),
(63.667,-110,o),
(37,-110,cs),
(7.667,-110,o),
(-13,-132.333,o),
(-13,-163,cs),
(-13,-204.333,o),
(21.333,-233,o),
(68,-233,cs),
(133.333,-233,o),
(183.333,-195,o),
(222,-115,cs),
(456,368,ls),
(476.667,410.667,o),
(503.333,436.333,o),
(536,445,c),
(536,470,l),
(347,470,l),
(347,444,l),
(362,442,ls),
(395.333,436.667,o),
(412,421,o),
(412,395,cs),
(412,381.667,o),
(407.667,366.333,o),
(399,349,cs),
(272,82,l),
(261,103,l),
(276,136,l),
(182,377,ls),
(178.667,384.333,o),
(177,393,o),
(177,403,cs),
(177,425,o),
(190.667,438,o),
(218,442,cs),
(233,444,l),
(233,470,l),
(5,470,l),
(5,445,l),
(43.667,435.667,o),
(64.667,417.333,o),
(82,376,cs)
);
},
{
closed = 1;
nodes = (
(308,671,ls),
(333.333,707,o),
(349.333,720,o),
(376,720,cs),
(405.333,720,o),
(424,700,o),
(424,676,cs),
(424,657.333,o),
(412,638.667,o),
(392,628,cs),
(219,535,l),
(215,535,l)
);
}
);
width = 541;
}
);
note = yacute;
unicode = 253;
},
{
glyphname = ydieresis;
kernLeft = v;
kernRight = v;
lastChange = "2023-10-03 16:59:22 +0000";
layers = (
{
layerId = m01;
shapes = (
{
closed = 1;
nodes = (
(236,6,l),
(201,-67,ls),
(158.333,-157.667,o),
(124,-194,o),
(80,-194,cs),
(67,-194,l),
(67,-179,l),
(79,-179,l),
(83,-177.667,o),
(87,-167,o),
(87,-159,cs),
(87,-132.333,o),
(63.667,-110,o),
(37,-110,cs),
(7.667,-110,o),
(-13,-132.333,o),
(-13,-163,cs),
(-13,-204.333,o),
(21.333,-233,o),
(68,-233,cs),
(133.333,-233,o),
(183.333,-195,o),
(222,-115,cs),
(456,368,ls),
(476.667,410.667,o),
(503.333,436.333,o),
(536,445,c),
(536,470,l),
(347,470,l),
(347,444,l),
(362,442,ls),
(395.333,436.667,o),
(412,421,o),
(412,395,cs),
(412,381.667,o),
(407.667,366.333,o),
(399,349,cs),
(272,82,l),
(261,103,l),
(276,136,l),
(182,377,ls),
(178.667,384.333,o),
(177,393,o),
(177,403,cs),
(177,425,o),
(190.667,438,o),
(218,442,cs),
(233,444,l),
(233,470,l),
(5,470,l),
(5,445,l),
(43.667,435.667,o),
(64.667,417.333,o),
(82,376,cs)
);
},
{
closed = 1;
nodes = (
(242,575,l),
(242,674,l),
(144,674,l),
(144,575,l)
);
},
{
closed = 1;
nodes = (
(436,575,l),
(436,674,l),
(338,674,l),
(338,575,l)
);
}
);
width = 541;
}
);
note = ydieresis;
unicode = 255;
},
{
glyphname = zcaron;
kernLeft = z;
kernRight = z;
lastChange = "2023-10-03 16:59:31 +0000";
layers = (
{
layerId = m01;
shapes = (
{
closed = 1;
nodes = (
(296,414,l),
(15,0,l),
(419,0,l),
(439,189,l),
(408,189,l),
(397,149,ls),
(375.667,74.333,o),
(330.667,38,o),
(256,38,cs),
(118,38,l),
(130,56,l),
(160,56,l),
(441,470,l),
(42,470,l),
(36,286,l),
(66,286,l),
(81,338,ls),
(99.667,403.333,o),
(140.667,432,o),
(214,432,cs),
(338,432,l),
(326,414,l)
);
},
{
closed = 1;
nodes = (
(184,548,l),
(294,548,l),
(398,698,l),
(394,698,l),
(228,590,l),
(192,590,l),
(242,625,l),
(84,698,l),
(80,698,l)
);
}
);
width = 459;
}
);
note = zcaron;
unicode = 382;
},
{
glyphname = Abreve;
kernLeft = A;
kernRight = A;
lastChange = "2023-10-03 16:59:41 +0000";
layers = (
{
layerId = m01;
shapes = (
{
closed = 1;
nodes = (
(472,216,l),
(520,102,ls),
(524.667,92,o),
(527,82.333,o),
(527,73,cs),
(527,49,o),
(510.333,33.667,o),
(481,31,cs),
(464,29,l),
(464,0,l),
(715,0,l),
(715,27,l),
(672.333,36.333,o),
(651,57.667,o),
(631,103,cs),
(362,733,l),
(360,733,l),
(93,111,ls),
(73.667,65.667,o),
(44.667,37.667,o),
(6,27,c),
(6,0,l),
(210,0,l),
(210,29,l),
(193,31,ls),
(157.667,35,o),
(140,51.667,o),
(140,81,cs),
(140,95,o),
(144.333,112,o),
(153,132,cs),
(197,236,l),
(500,236,l),
(508,216,l)
);
},
{
closed = 1;
nodes = (
(331,556,l),
(450,271,l),
(212,271,l)
);
},
{
closed = 1;
nodes = (
(221.06,837.405,o),
(281.58,775,o),
(360,775,cs),
(438.42,775,o),
(498.94,837.405,o),
(495,930,c),
(491,930,l),
(475,887.333,o),
(428,857,o),
(360,857,cs),
(292,857,o),
(245,887.333,o),
(229,930,c),
(225,930,l),
(225,930,l)
);
}
);
width = 721;
}
);
note = Abreve;
unicode = 258;
},
{
glyphname = Amacron;
kernLeft = A;
kernRight = A;
lastChange = "2023-10-03 17:00:04 +0000";
layers = (
{
layerId = m01;
shapes = (
{
closed = 1;
nodes = (
(472,216,l),
(520,102,ls),
(524.667,92,o),
(527,82.333,o),
(527,73,cs),
(527,49,o),
(510.333,33.667,o),
(481,31,cs),
(464,29,l),
(464,0,l),
(715,0,l),
(715,27,l),
(672.333,36.333,o),
(651,57.667,o),
(631,103,cs),
(362,733,l),
(360,733,l),
(93,111,ls),
(73.667,65.667,o),
(44.667,37.667,o),
(6,27,c),
(6,0,l),
(210,0,l),
(210,29,l),
(193,31,ls),
(157.667,35,o),
(140,51.667,o),
(140,81,cs),
(140,95,o),
(144.333,112,o),
(153,132,cs),
(197,236,l),
(500,236,l),
(508,216,l)
);
},
{
closed = 1;
nodes = (
(513,820,l),
(513,880,l),
(207,880,l),
(207,820,l)
);
},
{
closed = 1;
nodes = (
(331,556,l),
(450,271,l),
(212,271,l)
);
}
);
width = 721;
}
);
note = Amacron;
unicode = 256;
},
{
glyphname = Aogonek;
kernLeft = A;
kernRight = A;
lastChange = "2023-10-03 17:00:10 +0000";
layers = (
{
layerId = m01;
shapes = (
{
closed = 1;
nodes = (
(472,216,l),
(520,102,ls),
(524.667,92,o),
(527,82.333,o),
(527,73,cs),
(527,49,o),
(510.333,33.667,o),
(481,31,cs),
(464,29,l),
(464,0,l),
(679,0,l),
(599,-29.333,o),
(547,-87,o),
(547,-139,cs),
(547,-181.667,o),
(577.667,-211,o),
(627,-211,cs),
(667,-211,o),
(702,-191.333,o),
(718,-154,c),
(715,-151,l),
(696.333,-163,o),
(683,-169,o),
(663,-169,cs),
(629.667,-169,o),
(609,-150.333,o),
(609,-121,cs),
(609,-83.667,o),
(640.333,-38,o),
(703,-6,cs),
(715,0,l),
(715,27,l),
(672.333,36.333,o),
(651,57.667,o),
(631,103,cs),
(362,733,l),
(360,733,l),
(93,111,ls),
(73.667,65.667,o),
(44.667,37.667,o),
(6,27,c),
(6,0,l),
(210,0,l),
(210,29,l),
(193,31,ls),
(157.667,35,o),
(140,51.667,o),
(140,81,cs),
(140,95,o),
(144.333,112,o),
(153,132,cs),
(197,236,l),
(500,236,l),
(508,216,l)
);
},
{
closed = 1;
nodes = (
(331,556,l),
(450,271,l),
(212,271,l)
);
}
);
width = 721;
}
);
note = Aogonek;
unicode = 260;
},
{
glyphname = Cacute;
kernLeft = C;
kernRight = C;
lastChange = "2023-10-03 17:00:16 +0000";
layers = (
{
layerId = m01;
shapes = (
{
closed = 1;
nodes = (
(486,-10,o),
(587.333,70.333,o),
(626,201,c),
(622,203,l),
(556.667,92.333,o),
(483.667,44,o),
(381,44,cs),
(247.426,44,o),
(149,163.968,o),
(149,354,cs),
(149,543.503,o),
(239.041,663,o),
(366,663,cs),
(454,663,o),
(522.333,610.667,o),
(565,508,cs),
(585,462,l),
(619,462,l),
(619,707,l),
(542,664,l),
(551.333,656,o),
(566,639.667,o),
(574,629,c),
(574,594,l),
(524,671.333,o),
(454,710,o),
(364,710,cs),
(240,710,o),
(133.5,641.333,o),
(75.5,528,cs),
(46.5,471.333,o),
(32,408.667,o),
(32,340,cs),
(32,208,o),
(92.833,96.167,o),
(193.5,35.5,cs),
(243.833,5.167,o),
(300,-10,o),
(362,-10,cs)
);
},
{
closed = 1;
nodes = (
(391,901,ls),
(416.333,937,o),
(432.333,950,o),
(459,950,cs),
(488.333,950,o),
(507,930,o),
(507,906,cs),
(507,887.333,o),
(495,868.667,o),
(475,858,cs),
(302,765,l),
(298,765,l)
);
}
);
width = 665;
}
);
note = Cacute;
unicode = 262;
},
{
glyphname = Ccaron;
kernLeft = C;
kernRight = C;
lastChange = "2023-10-03 17:00:23 +0000";
layers = (
{
layerId = m01;
shapes = (
{
closed = 1;
nodes = (
(486,-10,o),
(587.333,70.333,o),
(626,201,c),
(622,203,l),
(556.667,92.333,o),
(483.667,44,o),
(381,44,cs),
(247.426,44,o),
(149,163.968,o),
(149,354,cs),
(149,543.503,o),
(239.041,663,o),
(366,663,cs),
(454,663,o),
(522.333,610.667,o),
(565,508,cs),
(585,462,l),
(619,462,l),
(619,707,l),
(542,664,l),
(551.333,656,o),
(566,639.667,o),
(574,629,c),
(574,594,l),
(524,671.333,o),
(454,710,o),
(364,710,cs),
(240,710,o),
(133.5,641.333,o),
(75.5,528,cs),
(46.5,471.333,o),
(32,408.667,o),
(32,340,cs),
(32,208,o),
(92.833,96.167,o),
(193.5,35.5,cs),
(243.833,5.167,o),
(300,-10,o),
(362,-10,cs)
);
},
{
closed = 1;
nodes = (
(318,778,l),
(428,778,l),
(532,928,l),
(528,928,l),
(362,820,l),
(326,820,l),
(376,855,l),
(218,928,l),
(214,928,l)
);
}
);
width = 665;
}
);
note = Ccaron;
unicode = 268;
},
{
glyphname = Ccircumflex;
kernLeft = C;
kernRight = C;
lastChange = "2023-10-03 17:00:29 +0000";
layers = (
{
layerId = m01;
shapes = (
{
closed = 1;
nodes = (
(486,-10,o),
(587.333,70.333,o),
(626,201,c),
(622,203,l),
(556.667,92.333,o),
(483.667,44,o),
(381,44,cs),
(247.426,44,o),
(149,163.968,o),
(149,354,cs),
(149,543.503,o),
(239.041,663,o),
(366,663,cs),
(454,663,o),
(522.333,610.667,o),
(565,508,cs),
(585,462,l),
(619,462,l),
(619,707,l),
(542,664,l),
(551.333,656,o),
(566,639.667,o),
(574,629,c),
(574,594,l),
(524,671.333,o),
(454,710,o),
(364,710,cs),
(240,710,o),
(133.5,641.333,o),
(75.5,528,cs),
(46.5,471.333,o),
(32,408.667,o),
(32,340,cs),
(32,208,o),
(92.833,96.167,o),
(193.5,35.5,cs),
(243.833,5.167,o),
(300,-10,o),
(362,-10,cs)
);
},
{
closed = 1;
nodes = (
(218,765,l),
(384,873,l),
(420,873,l),
(370,838,l),
(528,765,l),
(532,765,l),
(428,915,l),
(318,915,l),
(214,765,l)
);
}
);
width = 665;
}
);
note = Ccircumflex;
unicode = 264;
},
{
glyphname = Cdotaccent;
kernLeft = C;
kernRight = C;
lastChange = "2023-10-03 17:00:34 +0000";
layers = (
{
layerId = m01;
shapes = (
{
closed = 1;
nodes = (
(486,-10,o),
(587.333,70.333,o),
(626,201,c),
(622,203,l),
(556.667,92.333,o),
(483.667,44,o),
(381,44,cs),
(247.426,44,o),
(149,163.968,o),
(149,354,cs),
(149,543.503,o),
(239.041,663,o),
(366,663,cs),
(454,663,o),
(522.333,610.667,o),
(565,508,cs),
(585,462,l),
(619,462,l),
(619,707,l),
(542,664,l),
(551.333,656,o),
(566,639.667,o),
(574,629,c),
(574,594,l),
(524,671.333,o),
(454,710,o),
(364,710,cs),
(240,710,o),
(133.5,641.333,o),
(75.5,528,cs),
(46.5,471.333,o),
(32,408.667,o),
(32,340,cs),
(32,208,o),
(92.833,96.167,o),
(193.5,35.5,cs),
(243.833,5.167,o),
(300,-10,o),
(362,-10,cs)
);
},
{
closed = 1;
nodes = (
(422,805,l),
(422,904,l),
(324,904,l),
(324,805,l)
);
}
);
width = 665;
}
);
note = Cdotaccent;
unicode = 266;
},
{
glyphname = Dcaron;
kernRight = D;
lastChange = "2023-10-03 17:00:41 +0000";
layers = (
{
layerId = m01;
shapes = (
{
closed = 1;
nodes = (
(20,29,l),
(20,0,l),
(317,0,ls),
(458.333,0,o),
(580.167,67,o),
(647.5,175,cs),
(681.167,229,o),
(698,289,o),
(698,355,cs),
(698,485.667,o),
(628.833,596.167,o),
(513.5,655.5,cs),
(455.833,685.167,o),
(391,700,o),
(319,700,cs),
(20,700,l),
(20,671,l),
(43,669,ls),
(90.333,665,o),
(114,640.333,o),
(114,595,cs),
(114,105,ls),
(114,59.667,o),
(90.333,35,o),
(43,31,cs)
);
},
{
closed = 1;
nodes = (
(184,61,l),
(220,61,l),
(220,639,l),
(184,639,l),
(184,659,l),
(314,659,ls),
(473.368,659,o),
(581,533.671,o),
(581,351,cs),
(581,161.184,o),
(475.38,41,o),
(305,41,cs),
(184,41,l)
);
},
{
closed = 1;
nodes = (
(293,778,l),
(403,778,l),
(507,928,l),
(503,928,l),
(337,820,l),
(301,820,l),
(351,855,l),
(193,928,l),
(189,928,l)
);
}
);
width = 729;
}
);
note = Dcaron;
unicode = 270;
},
{
glyphname = Dcroat;
kernRight = D;
lastChange = "2023-10-03 17:00:45 +0000";
layers = (
{
layerId = m01;
shapes = (
{
closed = 1;
nodes = (
(698,485.667,o),
(628.833,596.167,o),
(513.5,655.5,cs),
(455.833,685.167,o),
(391,700,o),
(319,700,cs),
(20,700,l),
(20,671,l),
(43,669,ls),
(90.333,665,o),
(114,640.333,o),
(114,595,cs),
(114,375,l),
(20,375,l),
(20,340,l),
(150,340,l),
(150,320,l),
(114,320,l),
(114,105,ls),
(114,59.667,o),
(90.333,35,o),
(43,31,cs),
(20,29,l),
(20,0,l),
(317,0,ls),
(458.333,0,o),
(580.167,67,o),
(647.5,175,cs),
(681.167,229,o),
(698,289,o),
(698,355,cs)
);
},
{
closed = 1;
nodes = (
(184,61,l),
(220,61,l),
(220,340,l),
(314,340,l),
(314,375,l),
(220,375,l),
(220,639,l),
(184,639,l),
(184,659,l),
(314,659,ls),
(473.368,659,o),
(581,533.671,o),
(581,351,cs),
(581,161.184,o),
(475.38,41,o),
(305,41,cs),
(184,41,l)
);
}
);
width = 729;
}
);
note = Dcroat;
unicode = 272;
},
{
glyphname = Ebreve;
kernRight = E;
lastChange = "2023-10-03 17:00:53 +0000";
layers = (
{
layerId = m01;
shapes = (
{
closed = 1;
nodes = (
(220,61,l),
(220,340,l),
(325,340,ls),
(375.667,340,o),
(398.667,318.667,o),
(412,260,cs),
(420,226,l),
(453,226,l),
(453,490,l),
(420,490,l),
(412,456,ls),
(398.667,396,o),
(375.667,375,o),
(325,375,cs),
(220,375,l),
(220,639,l),
(184,639,l),
(184,659,l),
(402,659,ls),
(479.333,659,o),
(523,621.667,o),
(547,535,cs),
(569,456,l),
(601,456,l),
(589,700,l),
(20,700,l),
(20,671,l),
(43,669,ls),
(90.333,665,o),
(114,640.333,o),
(114,595,cs),
(114,105,ls),
(114,59.667,o),
(90.333,35,o),
(43,31,cs),
(20,29,l),
(20,0,l),
(587,0,l),
(619,249,l),
(586,249,l),
(568,184,ls),
(541.333,85.333,o),
(490.333,41,o),
(409,41,cs),
(184,41,l),
(184,61,l)
);
},
{
closed = 1;
nodes = (
(214.06,837.405,o),
(274.58,775,o),
(353,775,cs),
(431.42,775,o),
(491.94,837.405,o),
(488,930,c),
(484,930,l),
(468,887.333,o),
(421,857,o),
(353,857,cs),
(285,857,o),
(238,887.333,o),
(222,930,c),
(218,930,l)
);
}
);
width = 660;
}
);
note = Ebreve;
unicode = 276;
},
{
glyphname = Ecaron;
kernRight = E;
lastChange = "2023-10-03 17:01:02 +0000";
layers = (
{
layerId = m01;
shapes = (
{
closed = 1;
nodes = (
(220,61,l),
(220,340,l),
(325,340,ls),
(375.667,340,o),
(398.667,318.667,o),
(412,260,cs),
(420,226,l),
(453,226,l),
(453,490,l),
(420,490,l),
(412,456,ls),
(398.667,396,o),
(375.667,375,o),
(325,375,cs),
(220,375,l),
(220,639,l),
(184,639,l),
(184,659,l),
(402,659,ls),
(479.333,659,o),
(523,621.667,o),
(547,535,cs),
(569,456,l),
(601,456,l),
(589,700,l),
(20,700,l),
(20,671,l),
(43,669,ls),
(90.333,665,o),
(114,640.333,o),
(114,595,cs),
(114,105,ls),
(114,59.667,o),
(90.333,35,o),
(43,31,cs),
(20,29,l),
(20,0,l),
(587,0,l),
(619,249,l),
(586,249,l),
(568,184,ls),
(541.333,85.333,o),
(490.333,41,o),
(409,41,cs),
(184,41,l),
(184,61,l)
);
},
{
closed = 1;
nodes = (
(298,778,l),
(408,778,l),
(512,928,l),
(508,928,l),
(342,820,l),
(306,820,l),
(356,855,l),
(198,928,l),
(194,928,l)
);
}
);
width = 660;
}
);
note = Ecaron;
unicode = 282;
},
{
glyphname = Edotaccent;
kernRight = E;
lastChange = "2023-10-03 17:01:10 +0000";
layers = (
{
layerId = m01;
shapes = (
{
closed = 1;
nodes = (
(220,61,l),
(220,340,l),
(325,340,ls),
(375.667,340,o),
(398.667,318.667,o),
(412,260,cs),
(420,226,l),
(453,226,l),
(453,490,l),
(420,490,l),
(412,456,ls),
(398.667,396,o),
(375.667,375,o),
(325,375,cs),
(220,375,l),
(220,639,l),
(184,639,l),
(184,659,l),
(402,659,ls),
(479.333,659,o),
(523,621.667,o),
(547,535,cs),
(569,456,l),
(601,456,l),
(589,700,l),
(20,700,l),
(20,671,l),
(43,669,ls),
(90.333,665,o),
(114,640.333,o),
(114,595,cs),
(114,105,ls),
(114,59.667,o),
(90.333,35,o),
(43,31,cs),
(20,29,l),
(20,0,l),
(587,0,l),
(619,249,l),
(586,249,l),
(568,184,ls),
(541.333,85.333,o),
(490.333,41,o),
(409,41,cs),
(184,41,l),
(184,61,l)
);
},
{
closed = 1;
nodes = (
(402,805,l),
(402,904,l),
(304,904,l),
(304,805,l)
);
}
);
width = 660;
}
);
note = Edotaccent;
unicode = 278;
},
{
glyphname = Emacron;
kernRight = E;
lastChange = "2023-10-03 17:01:19 +0000";
layers = (
{
layerId = m01;
shapes = (
{
closed = 1;
nodes = (
(220,61,l),
(220,340,l),
(325,340,ls),
(375.667,340,o),
(398.667,318.667,o),
(412,260,cs),
(420,226,l),
(453,226,l),
(453,490,l),
(420,490,l),
(412,456,ls),
(398.667,396,o),
(375.667,375,o),
(325,375,cs),
(220,375,l),
(220,639,l),
(184,639,l),
(184,659,l),
(402,659,ls),
(479.333,659,o),
(523,621.667,o),
(547,535,cs),
(569,456,l),
(601,456,l),
(589,700,l),
(20,700,l),
(20,671,l),
(43,669,ls),
(90.333,665,o),
(114,640.333,o),
(114,595,cs),
(114,105,ls),
(114,59.667,o),
(90.333,35,o),
(43,31,cs),
(20,29,l),
(20,0,l),
(587,0,l),
(619,249,l),
(586,249,l),
(568,184,ls),
(541.333,85.333,o),
(490.333,41,o),
(409,41,cs),
(184,41,l),
(184,61,l)
);
},
{
closed = 1;
nodes = (
(506,820,l),
(506,880,l),
(200,880,l),
(200,820,l)
);
}
);
width = 660;
}
);
note = Emacron;
unicode = 274;
},
{
glyphname = Eng;
kernRight = N;
lastChange = "2023-10-03 16:37:10 +0000";
layers = (
{
layerId = m01;
shapes = (
{
closed = 1;
nodes = (
(650,584,ls),
(650,634.667,o),
(673,661.333,o),
(721,668,cs),
(744,671,l),
(744,700,l),
(502,700,l),
(502,671,l),
(525,668,ls),
(573,662,o),
(597,634,o),
(597,584,cs),
(597,189,l),
(578,211,l),
(578,248,l),
(196,700,l),
(34,700,l),
(114,618,l),
(114,116,ls),
(114,65.333,o),
(91,38.667,o),
(43,32,cs),
(20,29,l),
(20,0,l),
(262,0,l),
(262,29,l),
(239,32,ls),
(191,38,o),
(167,66,o),
(167,116,cs),
(167,570,l),
(597,53,l),
(597,-86,ls),
(597,-168.667,o),
(560.667,-217,o),
(502,-217,cs),
(446,-217,o),
(416,-194.333,o),
(408,-145,c),
(440,-145,l),
(441.333,-137,o),
(442,-130.667,o),
(442,-126,cs),
(442,-90,o),
(421,-67,o),
(389,-67,cs),
(354.333,-67,o),
(333,-92.667,o),
(333,-130,cs),
(333,-201.698,o),
(398.711,-260,o),
(490,-260,cs),
(586,-260,o),
(650,-192,o),
(650,-72,cs)
);
}
);
width = 759;
}
);
note = Eng;
unicode = 330;
},
{
glyphname = Eogonek;
kernRight = E;
lastChange = "2023-10-03 17:01:28 +0000";
layers = (
{
layerId = m01;
shapes = (
{
closed = 1;
nodes = (
(220,61,l),
(220,340,l),
(325,340,ls),
(375.667,340,o),
(398.667,318.667,o),
(412,260,cs),
(420,226,l),
(453,226,l),
(453,490,l),
(420,490,l),
(412,456,ls),
(398.667,396,o),
(375.667,375,o),
(325,375,cs),
(220,375,l),
(220,639,l),
(184,639,l),
(184,659,l),
(402,659,ls),
(479.333,659,o),
(523,621.667,o),
(547,535,cs),
(569,456,l),
(601,456,l),
(589,700,l),
(20,700,l),
(20,671,l),
(43,669,ls),
(90.333,665,o),
(114,640.333,o),
(114,595,cs),
(114,105,ls),
(114,59.667,o),
(90.333,35,o),
(43,31,cs),
(20,29,l),
(20,0,l),
(551,0,l),
(471,-29.333,o),
(419,-87,o),
(419,-139,cs),
(419,-181.667,o),
(449.667,-211,o),
(499,-211,cs),
(539,-211,o),
(574,-191.333,o),
(590,-154,c),
(587,-151,l),
(568.333,-163,o),
(555,-169,o),
(535,-169,cs),
(501.667,-169,o),
(481,-150.333,o),
(481,-121,cs),
(481,-83.667,o),
(512.333,-38,o),
(575,-6,cs),
(587,0,l),
(619,249,l),
(586,249,l),
(568,184,ls),
(541.333,85.333,o),
(490.333,41,o),
(409,41,cs),
(184,41,l),
(184,61,l)
);
}
);
width = 660;
}
);
note = Eogonek;
unicode = 280;
},
{
glyphname = Gbreve;
kernLeft = C;
kernRight = G;
lastChange = "2023-10-03 17:01:34 +0000";
layers = (
{
layerId = m01;
shapes = (
{
closed = 1;
nodes = (
(447.667,-9,o),
(519.667,12.667,o),
(579,56,c),
(650,-11,l),
(650,232,ls),
(650,277.333,o),
(672,302,o),
(716,306,cs),
(739,308,l),
(739,337,l),
(452,337,l),
(452,308,l),
(475,306,ls),
(525.667,302,o),
(551,277.333,o),
(551,232,cs),
(551,118,l),
(589,144,l),
(589,119,l),
(521,67,o),
(461.667,44,o),
(395,44,cs),
(248.039,44,o),
(149,170.526,o),
(149,355,cs),
(149,543.671,o),
(240.506,663,o),
(371,663,cs),
(467,663,o),
(538.333,610.667,o),
(581,508,cs),
(600,463,l),
(634,463,l),
(634,708,l),
(558,665,l),
(567.333,655.667,o),
(587.667,635.333,o),
(589,630,c),
(589,595,l),
(541,671,o),
(466.333,710,o),
(373,710,cs),
(245,710,o),
(135.833,641,o),
(76.5,529,cs),
(46.833,473,o),
(32,410.333,o),
(32,341,cs),
(32,209,o),
(92.833,97.167,o),
(193.5,36.5,cs),
(243.833,6.167,o),
(300.333,-9,o),
(363,-9,cs)
);
},
{
closed = 1;
nodes = (
(247.06,837.405,o),
(307.58,775,o),
(386,775,cs),
(464.42,775,o),
(524.94,837.405,o),
(521,930,c),
(517,930,l),
(501,887.333,o),
(454,857,o),
(386,857,cs),
(318,857,o),
(271,887.333,o),
(255,930,c),
(251,930,l)
);
}
);
width = 755;
}
);
note = Gbreve;
unicode = 286;
},
{
glyphname = Gcircumflex;
kernLeft = C;
kernRight = G;
lastChange = "2023-10-03 17:01:39 +0000";
layers = (
{
layerId = m01;
shapes = (
{
closed = 1;
nodes = (
(447.667,-9,o),
(519.667,12.667,o),
(579,56,c),
(650,-11,l),
(650,232,ls),
(650,277.333,o),
(672,302,o),
(716,306,cs),
(739,308,l),
(739,337,l),
(452,337,l),
(452,308,l),
(475,306,ls),
(525.667,302,o),
(551,277.333,o),
(551,232,cs),
(551,118,l),
(589,144,l),
(589,119,l),
(521,67,o),
(461.667,44,o),
(395,44,cs),
(248.039,44,o),
(149,170.526,o),
(149,355,cs),
(149,543.671,o),
(240.506,663,o),
(371,663,cs),
(467,663,o),
(538.333,610.667,o),
(581,508,cs),
(600,463,l),
(634,463,l),
(634,708,l),
(558,665,l),
(567.333,655.667,o),
(587.667,635.333,o),
(589,630,c),
(589,595,l),
(541,671,o),
(466.333,710,o),
(373,710,cs),
(245,710,o),
(135.833,641,o),
(76.5,529,cs),
(46.833,473,o),
(32,410.333,o),
(32,341,cs),
(32,209,o),
(92.833,97.167,o),
(193.5,36.5,cs),
(243.833,6.167,o),
(300.333,-9,o),
(363,-9,cs)
);
},
{
closed = 1;
nodes = (
(231,765,l),
(397,873,l),
(433,873,l),
(383,838,l),
(541,765,l),
(545,765,l),
(441,915,l),
(331,915,l),
(227,765,l)
);
}
);
width = 755;
}
);
note = Gcircumflex;
unicode = 284;
},
{
glyphname = uni0122;
kernLeft = C;
kernRight = G;
lastChange = "2023-10-03 16:37:10 +0000";
layers = (
{
layerId = m01;
shapes = (
{
closed = 1;
nodes = (
(447.667,-9,o),
(519.667,12.667,o),
(579,56,c),
(650,-11,l),
(650,232,ls),
(650,277.333,o),
(672,302,o),
(716,306,cs),
(739,308,l),
(739,337,l),
(452,337,l),
(452,308,l),
(475,306,ls),
(525.667,302,o),
(551,277.333,o),
(551,232,cs),
(551,118,l),
(589,144,l),
(589,119,l),
(521,67,o),
(461.667,44,o),
(395,44,cs),
(248.039,44,o),
(149,170.526,o),
(149,355,cs),
(149,543.671,o),
(240.506,663,o),
(371,663,cs),
(467,663,o),
(538.333,610.667,o),
(581,508,cs),
(600,463,l),
(634,463,l),
(634,708,l),
(558,665,l),
(567.333,655.667,o),
(587.667,635.333,o),
(589,630,c),
(589,595,l),
(541,671,o),
(466.333,710,o),
(373,710,cs),
(245,710,o),
(135.833,641,o),
(76.5,529,cs),
(46.833,473,o),
(32,410.333,o),
(32,341,cs),
(32,209,o),
(92.833,97.167,o),
(193.5,36.5,cs),
(243.833,6.167,o),
(300.333,-9,o),
(363,-9,cs)
);
},
{
closed = 1;
nodes = (
(314,-134.667,o),
(338.667,-158,o),
(368,-158,cs),
(377.333,-158,o),
(383.333,-156.667,o),
(386,-154,c),
(386,-114,l),
(404,-114,l),
(404,-133,ls),
(404,-186.333,o),
(373.333,-231.333,o),
(324,-254,c),
(327,-260,l),
(401.667,-238.667,o),
(447,-184.667,o),
(447,-122,cs),
(447,-75.333,o),
(420.667,-46,o),
(378,-46,cs),
(340.667,-46,o),
(314,-70.667,o),
(314,-104,cs)
);
}
);
width = 755;
}
);
note = uni0122;
unicode = 290;
},
{
glyphname = Gdotaccent;
kernLeft = C;
kernRight = G;
lastChange = "2023-10-03 17:01:48 +0000";
layers = (
{
layerId = m01;
shapes = (
{
closed = 1;
nodes = (
(447.667,-9,o),
(519.667,12.667,o),
(579,56,c),
(650,-11,l),
(650,232,ls),
(650,277.333,o),
(672,302,o),
(716,306,cs),
(739,308,l),
(739,337,l),
(452,337,l),
(452,308,l),
(475,306,ls),
(525.667,302,o),
(551,277.333,o),
(551,232,cs),
(551,118,l),
(589,144,l),
(589,119,l),
(521,67,o),
(461.667,44,o),
(395,44,cs),
(248.039,44,o),
(149,170.526,o),
(149,355,cs),
(149,543.671,o),
(240.506,663,o),
(371,663,cs),
(467,663,o),
(538.333,610.667,o),
(581,508,cs),
(600,463,l),
(634,463,l),
(634,708,l),
(558,665,l),
(567.333,655.667,o),
(587.667,635.333,o),
(589,630,c),
(589,595,l),
(541,671,o),
(466.333,710,o),
(373,710,cs),
(245,710,o),
(135.833,641,o),
(76.5,529,cs),
(46.833,473,o),
(32,410.333,o),
(32,341,cs),
(32,209,o),
(92.833,97.167,o),
(193.5,36.5,cs),
(243.833,6.167,o),
(300.333,-9,o),
(363,-9,cs)
);
},
{
closed = 1;
nodes = (
(435,805,l),
(435,904,l),
(337,904,l),
(337,805,l)
);
}
);
width = 755;
}
);
note = Gdotaccent;
unicode = 288;
},
